<svg xmlns="http://www.w3.org/2000/svg" width="100" height="102" viewBox="0 0 100.66 102.428">
  <g id="Layer_40" data-name="Layer 40" transform="matrix(0.616, 0.788, -0.788, 0.616, 52.965, 0)">
    <path id="Path_3" data-name="Path 3" d="M4.655,6A58.338,58.338,0,0,1,62.928,64.389L75.221,52.1a2.585,2.585,0,0,1,3.645,3.658l-16.7,16.7a2.585,2.585,0,0,1-3.658,0l-16.7-16.7A2.587,2.587,0,1,1,45.464,52.1L57.757,64.389a53.167,53.167,0,0,0-53.1-53.219A2.585,2.585,0,1,1,4.655,6Z" transform="translate(-2.07 -6)" fill="#008f9b"/>
  </g>
</svg>
