<svg xmlns="http://www.w3.org/2000/svg" width="40" height="40" viewBox="0 0 50 50"><path d="M15.334,6.547a9.581,9.581,0,0,0,5.453-2.259,9.581,9.581,0,0,1,12.425,0,9.581,9.581,0,0,0,5.453,2.259,9.581,9.581,0,0,1,8.788,8.788,9.568,9.568,0,0,0,2.259,5.453,9.581,9.581,0,0,1,0,12.425,9.581,9.581,0,0,0-2.259,5.453,9.581,9.581,0,0,1-8.788,8.788,9.581,9.581,0,0,0-5.453,2.259,9.581,9.581,0,0,1-12.425,0,9.581,9.581,0,0,0-5.453-2.259,9.581,9.581,0,0,1-8.788-8.788,9.581,9.581,0,0,0-2.259-5.453,9.581,9.581,0,0,1,0-12.425,9.581,9.581,0,0,0,2.259-5.453,9.581,9.581,0,0,1,8.788-8.788Zm23.25,16.413a3.125,3.125,0,1,0-4.419-4.419L23.875,28.831l-4.041-4.041a3.125,3.125,0,1,0-4.419,4.419l6.25,6.25a3.125,3.125,0,0,0,4.419,0l12.5-12.5Z" transform="translate(-2 -2)" fill="#008f9b" fill-rule="evenodd"/></svg>