<svg id="Icons" height="512" viewBox="0 0 60 60" width="512" xmlns="http://www.w3.org/2000/svg"><path d="m9.122 42.5a.5.5 0 0 1 -.266-.924l21.255-13.357-22.831 13.181a.5.5 0 0 1 -.511-.858l14.853-9.128-14.342 8.279a.5.5 0 0 1 -.511-.858l14.4-8.843-13.889 8.02a.5.5 0 0 1 -.509-.861l2.558-1.545-2.049 1.183a.5.5 0 0 1 -.511-.858l15.48-9.525-14.969 8.642a.5.5 0 0 1 -.509-.86l7.606-4.621-7.1 4.1a.5.5 0 0 1 -.512-.858l15.925-9.826-15.41 8.897a.5.5 0 0 1 -.515-.857l18.76-11.756-18.245 10.533a.5.5 0 0 1 -.512-.858l11.211-6.932-10.699 6.176a.5.5 0 0 1 -.514-.857l11.893-7.429-11.379 6.571a.5.5 0 0 1 -.511-.859l3.192-1.963-2.681 1.551a.5.5 0 0 1 -.512-.858l2.516-1.551-2 1.156a.5.5 0 0 1 -.524-.85l13.431-8.8-12.911 7.444a.5.5 0 0 1 -.515-.856l3.257-2.047-2.742 1.583a.5.5 0 0 1 -.516-.856l1.97-1.242-1.454.839a.5.5 0 0 1 -.521-.852l4.3-2.777-3.779 2.182a.5.5 0 0 1 -.522-.852l2.842-1.844-2.32 1.337a.5.5 0 0 1 -.546-.835l7.453-5.459-6.907 3.987a.5.5 0 0 1 -.533-.845l1.916-1.314-1.383.8a.5.5 0 0 1 -.547-.835l2.608-1.924-2.061 1.188a.5.5 0 0 1 -.576-.811l2.539-2.188-1.963 1.133a.5.5 0 0 1 -.584-.8l.668-.6-.084.047a.5.5 0 0 1 -.64-.746l.544-.679a.492.492 0 0 1 -.3-.232.5.5 0 0 1 .182-.682l1.66-.961a.5.5 0 0 1 .64.745l-.286.355 1.913-1.1a.5.5 0 0 1 .584.8l-.67.6 2.439-1.4a.5.5 0 0 1 .576.811l-2.538 2.189 5.194-3a.5.5 0 0 1 .547.835l-2.607 1.92 4.782-2.755a.5.5 0 0 1 .533.844l-1.909 1.31 3.727-2.154a.5.5 0 0 1 .546.836l-7.452 5.459 10.9-6.3a.5.5 0 0 1 .523.851l-2.842 1.854 4.674-2.7a.5.5 0 0 1 .521.852l-4.3 2.777 6.288-3.629a.5.5 0 0 1 .516.855l-1.973 1.245 3.637-2.1a.5.5 0 0 1 .516.856l-3.259 2.044 5.031-2.9a.5.5 0 0 1 .524.85l-13.425 8.8 16.715-9.65a.5.5 0 0 1 .513.858l-2.514 1.547 4.171-2.405a.5.5 0 0 1 .512.858l-3.212 1.972 4.907-2.83a.5.5 0 0 1 .515.856l-11.889 7.423 14.344-8.279a.5.5 0 0 1 .512.857l-11.21 6.93 13.494-7.787a.5.5 0 0 1 .515.856l-18.756 11.752 21.207-12.24a.5.5 0 0 1 .512.858l-15.922 9.819 16.21-9.357a.5.5 0 0 1 .51.86l-7.6 4.619 7.117-4.109a.5.5 0 0 1 .511.859l-15.489 9.526 14.974-8.643a.5.5 0 0 1 .508.861l-2.543 1.539 2.036-1.175a.5.5 0 0 1 .511.859l-14.413 8.844 13.9-8.026a.5.5 0 0 1 .511.858l-14.853 9.13 14.347-8.283a.5.5 0 0 1 .515.856l-21.249 13.354 20.736-11.972a.5.5 0 0 1 .516.856l-18.864 11.918 18.349-10.594a.5.5 0 0 1 .512.858l-5.492 3.368 4.981-2.876a.5.5 0 0 1 .516.857l-11.8 7.4 11.28-6.512a.5.5 0 0 1 .518.855l-11.53 7.325 11.019-6.362a.5.5 0 0 1 .523.851l-12.163 7.911 11.642-6.72a.5.5 0 0 1 .52.853l-6.81 4.358 6.291-3.632a.5.5 0 0 1 .523.853l-6.244 4.046 5.723-3.3a.5.5 0 0 1 .535.843l-8.845 6.139 8.312-4.8a.5.5 0 0 1 .533.845l-5.136 3.523 4.6-2.658a.5.5 0 0 1 .545.836l-4.945 3.614 4.406-2.543a.5.5 0 0 1 .574.814l-4.251 3.611 3.679-2.123a.5.5 0 0 1 .564.822l-1.029.829.466-.269a.5.5 0 0 1 .65.731l-1.157 1.553.509-.293a.5.5 0 0 1 .725.59l-.211.634a.5.5 0 0 1 -.013.858l-.5.289a.5.5 0 0 1 -.725-.59l.086-.257-1.471.848a.5.5 0 0 1 -.651-.731l1.158-1.552-3.96 2.285a.5.5 0 0 1 -.564-.822l1.025-.826-2.858 1.65a.5.5 0 0 1 -.574-.813l4.251-3.613-7.667 4.429a.5.5 0 0 1 -.545-.836l4.945-3.615-7.714 4.453a.5.5 0 0 1 -.533-.845l5.143-3.527-7.577 4.374a.5.5 0 0 1 -.536-.844l8.847-6.139-12.1 6.985a.5.5 0 0 1 -.523-.853l6.235-4.041-8.48 4.9a.5.5 0 0 1 -.52-.854l6.813-4.369-9.036 5.217a.5.5 0 0 1 -.523-.852l12.162-7.907-15.174 8.765a.5.5 0 0 1 -.518-.855l11.544-7.331-14.183 8.188a.5.5 0 0 1 -.515-.857l11.776-7.391-14.288 8.251a.5.5 0 0 1 -.512-.859l5.512-3.382-7.349 4.242a.5.5 0 0 1 -.516-.856l18.854-11.911-22.117 12.77a.494.494 0 0 1 -.25.068z" fill="#354589"/><path d="m13.866 37.47a.5.5 0 0 1 -.263-.925l8.751-5.437-10.625 6.135a.5.5 0 0 1 -.517-.855l15.917-10.041-15.849 9.153a.5.5 0 0 1 -.518-.854l18.169-11.555-17.651 10.19a.5.5 0 0 1 -.512-.857l9.882-6.115-9.37 5.409a.5.5 0 0 1 -.512-.859l6.806-4.2-6.294 3.641a.5.5 0 0 1 -.52-.853l15.12-9.747-14.6 8.428a.5.5 0 0 1 -.677-.174.5.5 0 0 1 .16-.682l8.812-5.58-8.295 4.788a.5.5 0 0 1 -.516-.855l5.113-3.225-4.6 2.654a.5.5 0 0 1 -.523-.852l8.66-5.656-8.137 4.7a.5.5 0 0 1 -.517-.855l.835-.528-.318.183a.5.5 0 0 1 -.522-.852l3.3-2.142-2.778 1.6a.5.5 0 0 1 -.524-.85l2.647-1.738-2.12 1.225a.5.5 0 0 1 -.55-.833l6.437-4.827-5.887 3.4a.5.5 0 0 1 -.532-.845l.425-.29a.5.5 0 0 1 -.461-.866l3.1-2.56-2.532 1.462a.5.5 0 0 1 -.576-.812l1.137-.976-.561.323a.5.5 0 0 1 -.714-.62l.677-1.67a.5.5 0 0 1 -.41-.907l1.167-.668a.5.5 0 0 1 .714.621l-.671 1.654 3.937-2.275a.5.5 0 0 1 .577.811l-1.135.976 3.095-1.787a.5.5 0 0 1 .568.818l-3.105 2.559 5.854-3.377a.5.5 0 0 1 .532.845l-.274.188 1.79-1.033a.5.5 0 0 1 .55.833l-6.438 4.828 9.806-5.661a.5.5 0 0 1 .524.85l-2.645 1.74 4.487-2.59a.5.5 0 0 1 .522.851l-3.3 2.145 5.19-3a.5.5 0 0 1 .518.855l-.838.529 2.4-1.384a.5.5 0 0 1 .524.851l-8.662 5.653 11.27-6.5a.5.5 0 0 1 .517.855l-5.107 3.218 7.056-4.073a.5.5 0 0 1 .517.855l-8.817 5.583 11.152-6.438a.5.5 0 0 1 .521.852l-15.118 9.741 18.352-10.593a.5.5 0 0 1 .513.858l-6.776 4.18 7.963-4.6a.5.5 0 0 1 .512.857l-9.9 6.125 9.547-5.511a.5.5 0 0 1 .518.854l-18.171 11.554 17.651-10.19a.5.5 0 0 1 .516.855l-15.906 10.034 15.39-8.885a.5.5 0 0 1 .513.858l-8.773 5.45 8.26-4.768a.5.5 0 0 1 .52.853l-13.994 9 13.474-7.777a.5.5 0 0 1 .521.852l-11.227 7.246 10.706-6.18a.5.5 0 0 1 .518.854l-6.047 3.849 5.529-3.192a.5.5 0 0 1 .516.856l-1.691 1.068 1.175-.677a.5.5 0 0 1 .521.852l-4.115 2.658 3.594-2.074a.5.5 0 0 1 .536.843l-7.812 5.461 7.276-4.2a.5.5 0 0 1 .547.835l-6.376 4.71 5.829-3.365a.5.5 0 0 1 .548.834l-3.545 2.633 3-1.731a.5.5 0 0 1 .55.834l-1.347 1.006.8-.46a.5.5 0 0 1 .582.807l-1.581 1.4 1-.576a.5.5 0 0 1 .621.768l-.623.689a.5.5 0 0 1 .5.866l-2.759 1.587a.5.5 0 0 1 -.621-.767l.623-.69-2.525 1.457a.5.5 0 0 1 -.582-.806l1.58-1.4-3.824 2.206a.5.5 0 0 1 -.55-.833l1.343-1-3.181 1.833a.5.5 0 0 1 -.548-.834l3.548-2.637-6.013 3.471a.5.5 0 0 1 -.547-.835l6.374-4.709-9.6 5.544a.5.5 0 0 1 -.536-.842l7.809-5.458-10.916 6.3a.5.5 0 0 1 -.522-.852l4.117-2.659-6.087 3.511a.5.5 0 0 1 -.517-.855l1.685-1.063-3.323 1.918a.5.5 0 0 1 -.518-.854l6.053-3.846-8.154 4.7a.5.5 0 0 1 -.521-.852l11.228-7.248-14.029 8.1a.5.5 0 0 1 -.521-.853l13.993-9-17.068 9.853a.5.5 0 0 1 -.25.07z" fill="#4d5baf"/><path d="m23.119 55.47a.5.5 0 0 1 -.3-.9l.372-.285-1.935 1.115a.5.5 0 0 1 -.571-.815l1.5-1.259-3.592 2.074a.5.5 0 0 1 -.553-.83l.269-.205-1.794 1.035a.5.5 0 0 1 -.572-.815l1.529-1.285-3.639 2.1a.5.5 0 0 1 -.562-.824l.965-.768-2.758 1.592a.5.5 0 0 1 -.561-.824l.9-.712-2.664 1.536a.5.5 0 0 1 -.611-.778l2.309-2.41-5.525 3.188a.5.5 0 0 1 -.656-.141.5.5 0 0 1 .076-.667l1.831-1.61-4.188 2.418a.5.5 0 0 1 -.571-.817l1.439-1.2-1.966 1.14a.5.5 0 0 1 -.575-.812l.624-.533-.064.036a.5.5 0 0 1 -.689-.67l.719-1.331a.5.5 0 0 1 -.227-.934l1.184-.679a.5.5 0 0 1 .689.671l-.646 1.2 3.236-1.871a.5.5 0 0 1 .575.812l-.625.534 2.333-1.346a.5.5 0 0 1 .571.817l-1.439 1.2 3.49-2.014a.5.5 0 0 1 .58.808l-1.827 1.604 4.186-2.415a.5.5 0 0 1 .611.778l-2.309 2.411 5.527-3.19a.5.5 0 0 1 .56.824l-.9.712 2.664-1.535a.5.5 0 0 1 .562.824l-.964.768 2.763-1.598a.5.5 0 0 1 .571.815l-1.533 1.291 3.64-2.1a.5.5 0 0 1 .553.83l-.269.2 1.794-1.035a.5.5 0 0 1 .572.815l-1.5 1.258 3.593-2.074a.5.5 0 0 1 .554.829l-.371.285 1.931-1.114a.5.5 0 0 1 .556.828l-.571.442 2.2-1.27a.5.5 0 0 1 .585.8l-1.969 1.778 4.474-2.582a.5.5 0 0 1 .664.151.5.5 0 0 1 -.1.674l-.882.7 2.637-1.522a.5.5 0 0 1 .606.784l-2.276 2.3 5.341-3.086a.5.5 0 0 1 .554.83l-.341.26 1.89-1.09a.5.5 0 0 1 .564.821l-1.179.956 3.081-1.778a.5.5 0 0 1 .579.809l-1.8 1.569 4.12-2.378a.5.5 0 0 1 .555.829l-.4.309 1.972-1.138a.5.5 0 0 1 .557.827l-.634.493 2.29-1.321a.5.5 0 0 1 .6.794l-2.17 2.073 4.859-2.8a.5.5 0 0 1 .566.82l-1.2.983 1.554-.9a.5.5 0 0 1 .589.8l-1 .923.423-.244a.5.5 0 0 1 .629.759l-.372.433a.5.5 0 0 1 .243.932l-2.16 1.238a.5.5 0 0 1 -.629-.758l.233-.271-1.783 1.029a.5.5 0 0 1 -.589-.8l1-.924-2.985 1.724a.5.5 0 0 1 -.566-.819l1.2-.983-3.123 1.8a.5.5 0 0 1 -.6-.794l2.17-2.073-4.961 2.869a.5.5 0 0 1 -.557-.827l.636-.5-2.291 1.327a.5.5 0 0 1 -.555-.829l.4-.306-1.969 1.135a.5.5 0 0 1 -.58-.809l1.8-1.568-4.12 2.377a.5.5 0 0 1 -.564-.821l1.182-.959-3.084 1.78a.5.5 0 0 1 -.553-.83l.338-.259-1.886 1.089a.5.5 0 0 1 -.606-.784l2.277-2.3-5.344 3.084a.5.5 0 0 1 -.561-.825l.881-.7-2.635 1.525a.5.5 0 0 1 -.585-.8l1.968-1.779-4.472 2.579a.5.5 0 0 1 -.556-.826l.571-.442-2.2 1.27a.493.493 0 0 1 -.252.068z" fill="#bddadc"/><path d="m24.412 51.47a.5.5 0 0 1 -.275-.917l1.2-.792-2.846 1.639a.5.5 0 0 1 -.54-.839l5.358-3.808-8.05 4.647a.5.5 0 0 1 -.548-.834l6.436-4.781-9.726 5.615a.5.5 0 0 1 -.527-.848l1.949-1.3-3.72 2.148a.5.5 0 0 1 -.528-.847l2.559-1.719-4.446 2.566a.5.5 0 0 1 -.545-.836l6.1-4.457-9.163 5.293a.5.5 0 0 1 -.539-.84l5.312-3.771-7.993 4.611a.5.5 0 0 1 -.548-.834l6.41-4.756-7.779 4.49a.5.5 0 0 1 -.55-.833l5.074-3.794-2.675 1.547a.5.5 0 0 1 -.561-.824l2.017-1.611a.5.5 0 0 1 -.641-.737l1.717-2.287-.026-.039a.5.5 0 0 1 .184-.684l.766-.441a.5.5 0 0 1 .649.733l-1.017 1.36 3.624-2.09a.5.5 0 0 1 .562.823l-2.022 1.61 4.224-2.433a.5.5 0 0 1 .55.833l-5.07 3.787 8.012-4.626a.5.5 0 0 1 .548.834l-6.412 4.758 9.684-5.593a.5.5 0 0 1 .54.841l-5.307 3.766 7.987-4.611a.5.5 0 0 1 .545.836l-6.1 4.457 9.17-5.294a.5.5 0 0 1 .528.847l-2.563 1.723 4.45-2.568a.5.5 0 0 1 .527.848l-1.945 1.3 3.716-2.145a.5.5 0 0 1 .548.834l-6.433 4.773 9.728-5.616a.5.5 0 0 1 .54.84l-5.358 3.807 8.053-4.648a.5.5 0 0 1 .525.85l-1.194.789 2.84-1.64a.5.5 0 0 1 .55.833l-6.594 4.943 10.006-5.777a.5.5 0 0 1 .534.845l-4.031 2.774 6.267-3.617a.5.5 0 0 1 .541.84l-5.545 3.963 8.321-4.8a.5.5 0 0 1 .54.84l-5.51 3.934 6.768-3.907a.5.5 0 0 1 .533.845l-2.863 1.973 2.986-1.727a.5.5 0 0 1 .531.847l-.081.054.068-.039a.5.5 0 0 1 .547.835l-2.452 1.806 2.592-1.5a.5.5 0 0 1 .572.816l-2.735 2.287 2.99-1.725a.5.5 0 0 1 .626.761l-2.046 2.334 2.434-1.4a.5.5 0 0 1 .715.616l-.625 1.584.914-.527a.5.5 0 0 1 .74.335l.125.628a.5.5 0 0 1 .25.933l-.365.211a.5.5 0 0 1 -.457.022.5.5 0 0 1 -.283-.358l-.111-.559-1.549.895a.5.5 0 0 1 -.715-.616l.625-1.584-3.812 2.2a.5.5 0 0 1 -.626-.761l2.045-2.333-5.367 3.094a.5.5 0 0 1 -.571-.816l2.736-2.284-5.379 3.1a.5.5 0 0 1 -.547-.835l2.45-1.8-4.572 2.635a.5.5 0 0 1 -.53-.846l.089-.061-1.571.907a.5.5 0 0 1 -.534-.844l2.864-1.973-4.885 2.817a.5.5 0 0 1 -.541-.839l5.51-3.933-8.264 4.772a.5.5 0 0 1 -.541-.839l5.545-3.961-8.319 4.8a.5.5 0 0 1 -.534-.844l4.033-2.774-6.268 3.618a.5.5 0 0 1 -.55-.833l6.594-4.941-10 5.774a.5.5 0 0 1 -.253.07z" fill="#d2e6e7"/><path d="m19.882 51.51a.5.5 0 0 1 -.357-.851l2.321-2.359-1.7.981a.5.5 0 0 1 -.657-.724l1.017-1.411a.5.5 0 0 1 0-.87l1.17-.674a.5.5 0 0 1 .656.725l-.666.925 2.853-1.652a.5.5 0 0 1 .606.783l-2.319 2.363 5.451-3.146a.5.5 0 0 1 .563.822l-1.134.913 3.006-1.735a.5.5 0 0 1 .583.8l-1.936 1.73 4.387-2.53a.5.5 0 0 1 .6.785l-2.284 2.3 5.34-3.083a.5.5 0 0 1 .613.776l-2.331 2.464 3.545-2.047a.5.5 0 0 1 .633.754l-1.329 1.585 1.338-.773a.5.5 0 0 1 .745.51l-.18 1.151.095-.054a.5.5 0 0 1 .5.865l-1 .577a.5.5 0 0 1 -.745-.509l.18-1.152-2.889 1.667a.5.5 0 0 1 -.632-.754l1.328-1.584-4.053 2.34a.5.5 0 0 1 -.613-.776l2.331-2.464-5.628 3.247a.5.5 0 0 1 -.6-.785l2.285-2.3-5.353 3.09a.5.5 0 0 1 -.583-.806l1.933-1.724-4.4 2.539a.5.5 0 0 1 -.563-.823l1.134-.912-3.014 1.739a.49.49 0 0 1 -.247.067z" fill="#a7c7c8"/><g fill="#262626"><path d="m10.278 32.132c-.027 2.756-.934 5.98 3.149 5.247h31.89c3.389.386 4.975-.374 4.409-4.088-.061-7.7.147-15.415 0-23.115a1.375 1.375 0 0 0 -1.123-1.5c-11.666-.172-23.391 0-35.076-.06-1.276 0-3.059-.091-3.249 1.581-.078 7.297.049 14.629 0 21.935zm1.448 1.748q0-12.026 0-24.053c.026-.562.01-.448.549-.448h35.311c1.183.258.692 3.4.692 4.155v7.915c-.044 5.024.231 10.195-.067 15.172-.186.134-.985 0-1.2 0h-33.111c-2.157.429-2.395-.886-2.174-2.741z"/><path d="m59.7 50.832c-1.9-3.349-3.973-6.677-5.964-9.984-.07-11.3.111-22.609 0-33.9-.2-3.295-4.719-2.491-6.978-2.491h-35.722c-5.68-1.046-4.791 4.271-4.768 8.094.008 9.509-.018 19.028.008 28.533-1.968 3.316-4.243 6.658-5.947 10.076-.31 1.93-.3 4.73 2.349 4.263h53.786c3.474.468 3.636-1.777 3.236-4.591zm-51.963-43.711c.077-1.332.884-1.58 1.955-1.58h33.526c2.924.616 9.946-2.025 9.049 2.918v32.055c-14.843.145-29.685.05-44.53.044.08-11.143-.13-22.303 0-33.437zm-4.763 41.742 4.464-7.439c14.991.037 29.981-.073 44.969.039 1.86 3 3.627 6.016 5.453 9.04h-16.254c-1.76-5.032-1.732-5.176-7.124-4.785-4.159.053-8.332-.092-12.485.007-2.494.187-2.5 3.021-3.456 4.778h-16.551zm18.287-1.863a2.87 2.87 0 0 0 .105-.765c5.465.185 10.908-.112 16.352.045 1.514.581 1.495 2.938 2.283 4.22h-20.14q.701-1.746 1.4-3.5zm37 7.574c-14.9.005-29.93 0-44.875 0-3.633-.115-7.345.19-10.956 0-1.049-.248-.761-2.123-.709-3.081h56.56c-.076.93.137 2.207-.024 3.084z"/><path d="m35.293 32.624c-3.571.3-7.608-.619-10.96.38-.177.28.151.373.378.373h8.761c.713-.066 1.665.223 2.2-.381.176-.279-.152-.372-.379-.372z"/><path d="m24.337 29.022c-.185.27.161.327.366.327 2.914-.275 6.251.571 8.964-.369.185-.271-.161-.328-.366-.328-2.914.274-6.251-.571-8.964.37z"/><path d="m24.942 13.545h10c.32 0 .761-.248.8-.6.037-.382-.38-.493-.675-.493h-8.767c-.672.065-1.8-.276-2.034.6-.036.382.381.493.676.493z"/><path d="m34.3 16.642c-2.251.249-4.914-.537-6.963.373-.193.272.168.344.371.344h5.257c.488.192 2.653-.372 1.335-.717z"/><path d="m37.936 17.526c.8-.115 10.308.558 7.132-1.051-.805.115-10.308-.558-7.132 1.051z"/><path d="m34.267 24.526c-.8.164-8.783-.6-6.53.949.798-.165 8.783.604 6.53-.949z"/><path d="m45.276 24.561c-2.559.293-5.648-.615-7.953.407.286 1.129 5.188.17 6.537.472.595.198 2.84-.34 1.416-.879z"/><path d="m26.707 21.361c2.25-.25 4.915.538 6.962-.374.193-.272-.167-.347-.372-.347h-5.256c-.493-.192-2.656.373-1.334.721z"/><path d="m36.715 21.391c2.571-.277 5.613.583 7.958-.387.173-.283-.147-.394-.384-.394h-6.132c-.54-.188-2.844.339-1.442.781z"/><path d="m21.726 32.806c-.57-1.746 1.472-24.129-1.448-19.612.569 1.747-1.472 24.13 1.448 19.612z"/><path d="m14.737 13.473a12.288 12.288 0 0 0 2.57-.106c2.224-1.441-4.943-.953-2.57.106z"/><path d="m17.309 16.682c-.862.147-2.7-.419-2.988.573.37.286 4.708-.066 2.988-.573z"/><path d="m14.943 21.55c.875-.152 2.4.453 2.794-.6.015-.384-.361-.5-.676-.5-.875.152-2.4-.453-2.795.6-.014.384.362.5.677.5z"/><path d="m17.263 24.514c-.827.163-3.066-.522-2.928.793.482.501 4.845.173 2.928-.793z"/><path d="m17.279 28.573c-.827.164-2.947-.5-2.949.716.453.416 4.77.111 2.949-.716z"/><path d="m15.718 32.7c-.345-.123-2.033.358-1.185.6.518.033 3.92.085 2.938-.6z"/></g></svg>