<svg xmlns="http://www.w3.org/2000/svg" xmlns:xlink="http://www.w3.org/1999/xlink" width="200" height="200" viewBox="0 0 200 200"><defs><clipPath id="a"><rect width="200" height="200" fill="none"/></clipPath></defs><g clip-path="url(#a)"><path d="M167.742,102.519V71.674L158.7,69.413A61,61,0,0,0,154.007,58.1l4.8-8L137,28.292l-5.614,3.368-4.311,12.932a5.543,5.543,0,0,1-4.039,3.655h.01a45.164,45.164,0,1,1-45.385-.405L74.038,31.559l-.685.33c-.789.382-1.576.784-2.351,1.2l-8-4.8L41.194,50.1l4.8,8A60.927,60.927,0,0,0,41.3,69.413l-9.046,2.261v30.845l9.047,2.262a60.955,60.955,0,0,0,4.688,11.313l-4.8,8L63.005,145.9l8-4.8a60.962,60.962,0,0,0,11.315,4.688l2.261,9.047h30.844l2.262-9.047A60.924,60.924,0,0,0,129,141.1l8,4.8,21.81-21.81-4.8-8A60.9,60.9,0,0,0,158.7,104.78Z" fill="#f0bc5e"/><path d="M25.806,112.9V100H12.9v25.806H32.258V112.9Z" fill="#f0bc5e"/><path d="M190.323,38.71H147.415l6.451,6.451h36.457a3.229,3.229,0,0,1,3.225,3.226v100H122.581v6.452h70.967v9.677a3.229,3.229,0,0,1-3.225,3.226h-9.678V161.29h-6.451v6.452h-6.452V161.29H161.29v6.452h-6.451V161.29h-6.452v6.452H9.677a3.229,3.229,0,0,1-3.225-3.226v-9.677H77.419v-6.452H6.452v-100a3.229,3.229,0,0,1,3.225-3.226H46.134l6.451-6.451H9.677A9.688,9.688,0,0,0,0,48.387V164.516a9.689,9.689,0,0,0,9.677,9.678H64.516v6.451H38.71a6.459,6.459,0,0,0-6.452,6.452v6.451A6.459,6.459,0,0,0,38.71,200H161.29a6.459,6.459,0,0,0,6.452-6.452V187.1a6.459,6.459,0,0,0-6.452-6.452H135.484v-6.451h54.839A9.689,9.689,0,0,0,200,164.516V48.387a9.688,9.688,0,0,0-9.677-9.677M161.294,193.548H38.71V187.1H161.29Zm-32.262-12.9H70.967v-6.452h58.065Z"/><path d="M54.839,19.355H68.022l5.985,26.931a48.414,48.414,0,1,0,54.753,1.9,8.759,8.759,0,0,0,1.371-2.575l4.9-14.7a8.778,8.778,0,0,0-8.325-11.551H74.631L72.014,7.579A9.622,9.622,0,0,0,62.567,0H54.839a9.677,9.677,0,0,0,0,19.355m54.839,25.807h-12.9V38.71h12.9Zm-12.9-19.355h12.9v6.452h-12.9Zm25.032,19.355h-5.677V38.71h9.5l-1.62,4.862A2.323,2.323,0,0,1,121.806,45.162Zm-31.483,0H80.366L78.932,38.71H90.323Zm-6.452,22.58a3.226,3.226,0,1,1-3.226-3.225,3.226,3.226,0,0,1,3.226,3.225M77.42,122.42a42.273,42.273,0,0,1-6.452-5.092V96.775H77.42Zm19.354,6.489V109.678h6.452v19.234q-1.6.12-3.226.121t-3.226-.123Zm32.259-11.581a42.273,42.273,0,0,1-6.452,5.092v-32.1h6.452Zm12.9-30.231a41.684,41.684,0,0,1-6.452,22.324V83.871H116.129v41.934a41.594,41.594,0,0,1-6.451,2.1V103.226H90.323V127.9a41.748,41.748,0,0,1-6.452-2.1V90.323H64.516v19.1a41.9,41.9,0,0,1,11-56.365l1.29,5.806A9.678,9.678,0,1,0,89.768,70.968h20.465a9.678,9.678,0,1,0,0-6.451H89.768a9.717,9.717,0,0,0-6.452-6.074L81.8,51.613h40.007c.173,0,.343-.01.514-.02a42.17,42.17,0,0,1,19.616,35.5M116.129,67.742a3.226,3.226,0,1,1,3.226,3.226,3.226,3.226,0,0,1-3.226-3.226m12.9-39.61a2.354,2.354,0,0,1-.121.735l-1.129,3.391H116.129V25.807h10.579a2.328,2.328,0,0,1,2.325,2.325m-38.71-2.325v6.451H77.5l-1.434-6.451ZM54.839,6.452h7.728a3.207,3.207,0,0,1,3.149,2.526l.872,3.926H54.839a3.226,3.226,0,1,1,0-6.452"/><path d="M167.742,141.935H187.1V109.677H167.742Zm6.452-12.9h6.452v6.452h-6.452Zm6.451-6.451h-6.452v-6.452h6.452Z"/><rect width="6.452" height="6.452" transform="translate(174.194 96.774)"/><rect width="6.452" height="6.452" transform="translate(174.194 83.871)"/><path d="M16.129,135.484A3.226,3.226,0,1,1,12.9,138.71a3.226,3.226,0,0,1,3.226-3.226"/><path d="M29.032,135.484a3.226,3.226,0,1,1-3.226,3.226,3.226,3.226,0,0,1,3.226-3.226"/><rect width="19.355" height="6.452" transform="translate(12.903 122.581)"/><rect width="19.355" height="6.452" transform="translate(12.903 109.677)"/><rect width="12.903" height="6.452" transform="translate(12.903 96.774)"/></g></svg>