<svg xmlns="http://www.w3.org/2000/svg" xmlns:xlink="http://www.w3.org/1999/xlink" width="50" height="50" viewBox="0 0 50 50"><defs><clipPath id="a"><rect width="50" height="50" fill="#fff"/></clipPath></defs><g clip-path="url(#a)"><path d="M7.325,50H23.633V32.226H17.774V26.367h5.859V19.043a7.332,7.332,0,0,1,7.324-7.324h7.325v5.859h-5.86a2.933,2.933,0,0,0-2.93,2.93v5.859h8.525l-.976,5.859H29.492V50H42.676A7.332,7.332,0,0,0,50,42.676V7.324A7.332,7.332,0,0,0,42.676,0H7.325A7.332,7.332,0,0,0,0,7.324V42.676A7.333,7.333,0,0,0,7.325,50M2.93,7.324A4.4,4.4,0,0,1,7.325,2.929H42.676a4.4,4.4,0,0,1,4.4,4.395V42.676a4.4,4.4,0,0,1-4.4,4.394H32.422V35.156h7.1l1.954-11.719H32.422V20.508h8.789V8.789H30.957A10.266,10.266,0,0,0,20.7,19.043v4.394H14.844V35.156H20.7V47.07H7.325A4.4,4.4,0,0,1,2.93,42.676Z" fill="#fff"/></g></svg>