<svg xmlns="http://www.w3.org/2000/svg" xmlns:xlink="http://www.w3.org/1999/xlink" width="341.036" height="90" viewBox="0 0 341.036 90"><defs><clipPath id="a"><rect width="341.036" height="90" fill="none"/></clipPath></defs><g clip-path="url(#a)"><path d="M202.178,38.572h9V70.715h-9V66.536a10.94,10.94,0,0,1-9.964,5.143c-9.964,0-16.393-7.714-16.393-17.036,0-9.643,6.429-17.036,15.75-17.036,2.571,0,7.393.322,10.286,5.143V38.572ZM185.464,54.643a8.605,8.605,0,0,0,9,9,8.788,8.788,0,0,0,9-9,8.605,8.605,0,0,0-9-9,8.788,8.788,0,0,0-9,9m43.393-8.357V70.715h-9V46.286h-3.536V38.572h3.536V27.643h9V38.572h6.107v7.714Zm27.321,0a8.087,8.087,0,0,0-5.143-2.25c-2.25,0-3.535.964-3.535,2.571,0,.965.321,1.929,2.892,2.893l2.25.643c2.572.964,6.429,1.929,8.036,4.5a9.2,9.2,0,0,1,1.607,5.464,10.312,10.312,0,0,1-3.535,8.036,14.23,14.23,0,0,1-9.643,3.536,16.41,16.41,0,0,1-12.536-5.464l4.821-5.465c1.929,1.929,4.5,3.857,7.072,3.857s4.5-1.285,4.5-3.535a3.443,3.443,0,0,0-2.893-3.215l-1.929-.642c-2.25-.965-4.821-1.929-6.75-3.858a8.229,8.229,0,0,1-2.571-6.107,10.586,10.586,0,0,1,3.214-7.393c2.572-1.928,5.786-2.25,8.357-2.25a16.194,16.194,0,0,1,10.286,3.536Zm19.607-3.536a12.2,12.2,0,0,1,10.286-5.143c9.321,0,15.75,7.393,15.75,17.036s-6.429,17.036-16.071,17.036a12.342,12.342,0,0,1-10.286-5.143v4.179h-8.679v-54h9Zm-.964,11.893a8.605,8.605,0,0,0,9,9,8.788,8.788,0,0,0,9-9,9,9,0,0,0-18,0m41.786,11.25L301.178,38.572h10.607l9.965,18.321,9-18.321h10.285L315.321,87.75H305.035ZM173.571,44.036h-22.5v9h11.893c-1.929,6.107-6.429,10.286-14.786,10.286-9.321,0-16.071-7.715-16.071-17.036s6.428-17.357,15.75-17.357a17.37,17.37,0,0,1,13.5,6.75l7.393-4.822A25.448,25.448,0,0,0,147.857,20.25a25.861,25.861,0,0,0-25.715,26.036c0,14.464,10.929,26.036,25.715,26.036s25.714-11.572,25.714-26.036a5.258,5.258,0,0,0,0-2.25" fill="#fff"/><path d="M80.357,45h-22.5v6.428H73.286A29.141,29.141,0,0,1,54.643,72.321L17.679,35.357A28.919,28.919,0,0,1,45,16.071,29.674,29.674,0,0,1,68.786,28.285l4.821-4.178a35.334,35.334,0,0,0-63,13.178L53.036,79.714A36.165,36.165,0,0,0,80.357,45m-70.714.321A34.335,34.335,0,0,0,19.929,69.75,34.89,34.89,0,0,0,44.357,80.035Z" fill="#fff"/><path d="M45,0A45,45,0,1,0,90,45,45.132,45.132,0,0,0,45,0M19.928,70.072A34.89,34.89,0,0,1,9.643,45.643L44.678,80.357a36.483,36.483,0,0,1-24.75-10.285m32.786,9.321L10.607,37.286a35.335,35.335,0,0,1,63-13.179l-4.822,4.179A29.672,29.672,0,0,0,45,16.072,29.235,29.235,0,0,0,17.678,35.357L54.643,72.322A29.142,29.142,0,0,0,73.285,51.429H57.857V45h22.5A35.458,35.458,0,0,1,52.714,79.393Z" fill="#639"/></g></svg>