<svg xmlns="http://www.w3.org/2000/svg" width="978" height="13.002" viewBox="0 0 978 13.002"><g transform="translate(-0.006)"><g transform="translate(0.006)"><path d="M1239.17,2.125c.65.08.29.28-1.51.24l-1.28-.33Z" transform="translate(-261.471 1.666)" fill="#bea457"/><path d="M1227.08,2.42c-2.11-.16-4.55-.44-3.18-.75,2.09.32,2.6.19,4.85.57,1.8,0,3.14-.11,2.84-.23.63.08,2.79-.07,3.76.13a49.341,49.341,0,0,1-8.4.06C1226.29,2.27,1226.93,2.36,1227.08,2.42Z" transform="translate(-261.471 2.265)" fill="#bea457"/><path d="M1051.37,1.15h0Z" transform="translate(-261.471 7.194)" fill="#bea457"/><path d="M942.51.9a6,6,0,0,1,1.22.1,5,5,0,0,1-1.22-.1Z" transform="translate(-199.023 8.279)" fill="#bea457"/><path d="M923.92.588h1.1a7,7,0,0,1-1.1,0Z" transform="translate(-195.078 11.804)" fill="#bea457"/><path d="M1051.37,1.076l-2.9.1a15.928,15.928,0,0,1,2.9-.1Z" transform="translate(-261.471 7.443)" fill="#bea457"/><path d="M1202.85,2.38c.61,0,1.12.05,1.58.09h-1.48Z" transform="translate(-261.471 0.682)" fill="#bea457"/><path d="M1099.37.75h.88l.73.14Z" transform="translate(-261.471 8.97)" fill="#bea457"/><path d="M1136.2,1.23a2.67,2.67,0,0,1-1.45-.4,9.409,9.409,0,0,0,1.82.2C1136.58,1.06,1136.48,1.14,1136.2,1.23Z" transform="translate(-261.471 8.051)" fill="#bea457"/><path d="M1194.6,1.33h0Z" transform="translate(-261.471 6.285)" fill="#bea457"/><path d="M1073,.72a1.179,1.179,0,0,1-.33.1A1.108,1.108,0,0,1,1073,.72Z" transform="translate(-261.471 9.195)" fill="#bea457"/><path d="M42.87,2.931h0C42.65,2.951,42.58,2.931,42.87,2.931Z" transform="translate(-0.006 -2.661)" fill="#bea457"/><path d="M.17,1.39H.76c.07.05.13.11.13.16Z" transform="translate(-0.006 5.599)" fill="#bea457"/><path d="M889.91.231h.15C891,.261,890.45.251,889.91.231Z" transform="translate(-187.831 12.521)" fill="#bea457"/><path d="M577.63,1.06c3.53-.26-5.76-.33-.43-.61C576.7.51,582,.89,577.63,1.06Z" transform="translate(-121.787 11.492)" fill="#bea457"/><path d="M1201.9,2.43Z" transform="translate(-261.471 0.729)" fill="#bea457"/><path d="M577.2,1.06Z" transform="translate(-121.819 7.648)" fill="#bea457"/><path d="M811.53.54a6.068,6.068,0,0,1,.8-.12,3,3,0,0,1-.8.12Z" transform="translate(-171.307 12.042)" fill="#bea457"/><path d="M869.92.82h0Z" transform="translate(-183.423 8.861)" fill="#bea457"/><path d="M781.21.781c-.79,0-1.05.06-2.12,0h.32a14.209,14.209,0,0,0,1.8,0Z" transform="translate(-164.635 9.005)" fill="#bea457"/><path d="M749.65.87a2.076,2.076,0,0,0,.59-.06h1Z" transform="translate(-158.346 8.804)" fill="#bea457"/><path d="M138.77,2.553a9.79,9.79,0,0,0-1.46.25C137.79,2.6,133.16,2.533,138.77,2.553Z" transform="translate(-0.006 -2.143)" fill="#bea457"/><path d="M1202.84,2.431a3,3,0,0,0-.94-.12h1C1203,2.371,1203.06,2.4,1202.84,2.431Z" transform="translate(-261.471 0.937)" fill="#bea457"/><path d="M779.93,3h0Z" transform="translate(-164.138 -2.79)" fill="#bea457"/><path d="M365.15,2.8,364,2.76C364.44,2.76,364.85,2.77,365.15,2.8Z" transform="translate(-76.862 -2.35)" fill="#bea457"/><path d="M760,2.81c-.9.1-1.85.16-2.83.19a1.467,1.467,0,0,1-.58-.07Z" transform="translate(-160.047 -2.6)" fill="#bea457"/><path d="M137.3,2.55Z" transform="translate(-0.006 0.123)" fill="#bea457"/><path d="M81.945,0c3.757,0,1.768,1.458,2.562,2.309,4.48.405,2.075-1.094,3.6-1.863,2.8.405,4.943,1.782,7.073,1.7.149-.243.558-.324.086-.648,2.955,1.215,8.778,0,12.22,1.58a1.119,1.119,0,0,0,.456-.405,2.653,2.653,0,0,0-.534,2.066,4.589,4.589,0,0,0,3.757,0,1.918,1.918,0,0,1-1.572-.648l1.76.405c1.572-1.418-2.4-.486-2.4-1.539,3.434.486,7.442,1.62,10.083,1.256.55-1.377-6.161-.486-2.648-1.7l-4.079.527c3.144-2.187-2.476,0,.385-2.187,5.368-.365,6,.729,11.356.324,1.2.77-.4,1.134.786,1.9,7.607,1.377,5.988-3.483,11.576-1.661,1.973,2.015,3.992,2.6,6,1.742l-1.36-1.539c5.195,0,2.963,2.228,8.4,1.175-.967-.608-4.079-.486-3.293-.689,3.521-1.215,2.491.891,5.2.891l.558-1.377c5.5,0,11.623,1.215,17.753,1.458-.338-.405-1.391-.851,0-1.256A112.184,112.184,0,0,0,193.611.81l2.845,1.215c.668,0,1.234-.527.511-.77,2.908-.446.157.729,1.572,1.215,1.65,0,2.185-.689,1.14-1.053,5.124,1.013,14.594,2.187,19.993.891l-1.053-.324c4.2-.486,4.715,2.43,8.645,1.337l-.747-.243c9.124-.486,19.215.608,26.178-1.215,1.32,1.7,9.03-.77,9.611,1.62,5.218-1.175,3.725-1.58,11.057-2.39,1.965,0,2.923,1.5,5.344,1.742l.063-1.256,3.293,1.3,1.745-1.458,2.255.243c-.6-.194-1.208.121-1.792.932a13.805,13.805,0,0,0,8.747-1.5l8.393,1.053a5.492,5.492,0,0,0-2.7-1.013c4.487,1.3.786-1.3,4.92,0-.55.284.3.729.393.972,2.051-.729,6.711-.729,10.161-.446l-.66-.851c6.224,0,13.132.405,20.119.405-2.507.405-1.925,1.9.126,2.025l.786-1.3c1.32.81-2.145.486.574,1.5,2.617,0,1.76-1.5.259-1.944l3.144.446c.189-.365-.558-.608-.786-1.094,1.3.81,5.5-1.337,7.364,0l.181-.365c6.986,0,10.154.446,15.851.486.11,1.134,2.358.891,4.032,1.823,4.181-.365,8.825-1.256,13.871-1.175,3.544.567,1.029.972,2.625,1.661.259-1.053,5.3-.932,2.688-1.7a106.623,106.623,0,0,1,15.38,1.053c-.833.446-1.768.608-1.281.972a2.683,2.683,0,0,0,2.955-.932h-.361c8.59,1.58,19.82-3.038,26.665-.851h-.385L434.4,2.957c3.269,0-1.957-.77.464-1.418,7.647,1.742,12.087-.243,18.39.891,4.872-3.038,17.289.243,23.891-1.742l-.385.729a4.094,4.094,0,0,0,3.316-.567c-.181.567-1.847.648-.786,1.053C493.7,2.754,509.04.851,523.815.162c5.407,0,3.065,3.767,9.879,2.025L531.76.851c10.908,1.62,22.3,0,33.007,1.3a2.669,2.669,0,0,0-1.69-.689,12.133,12.133,0,0,1,8.377.729c1.658,0,.385-.689,1.407-1.094,2.263-.608,5.674,1.215,6.876.243a1.246,1.246,0,0,0-1.045-.365c1.47.446,6.869,0,5.454.972,4.008-.527,7.67.527,10.861,0,2.083,1.256,6.861-.608,7.521,1.175-.283-1.823,7.026-1.458,9.564-.608-.849-.567,2.2-.567,1.21-1.337,2.892,0,5.5.365,5.037,1.3,5.32-2.187,10.7,1.782,13.706-1.053,8.59,1.013,16.5,1.661,24.26,2.106-.275-1.823-8.543,0-8.2-2.106,7.324.729,11.552,2.309,18.861,1.863,1.886-.243-1.069-.77-1.705-1.094,7.324.77,14.146,0,20.677.851a2.455,2.455,0,0,0-1.383-.527c1.281,0,2.986-.243,2.845.567h-1.257c-2.051,1.175,5.1,2.511,5.328,3.119-2.177-2.349,6.436-.567,2.978-3.6.841,0,1.9.567,1.713,1.134,1.25,0,1.65-.486.377-1.134,4.6.446,2.963,1.337,7.136,1.337a4.357,4.357,0,0,0-1.289-1.053,15.23,15.23,0,0,0,7.749,1.256c-.212-.243.2-.567-.849-.567,6.043,0,10.3,2.066,16.944,1.337-1.957-1.742,2.255-.567,2.609-2.106l3.607-.2L731,3.321c3.143,0,5.894,1.094,8.582.608l-2.358-.648,5.855.324-3.316.567c3.143.77-.338,1.9,3.827,1.5-.849,0,3.144,0,4.715-.932h0a10.853,10.853,0,0,0,5.454.608c.6-.486-.487-1.661-.094-1.985,1.525,1.256,7.317.365,9.25,1.7-.644-.324-.676-1.134-.464-1.3L763.784,4.9c1.446-.324,1.658-.486,1.422-1.134,4.354-.2-1.383,1.9,3.788,1.094-.409,0-.212-.243-1.061-.405,5.195-.405,10.028.648,14.8,0,1.407-1.539-4.165-.365-2.554-1.661,6.876.284,14.24,1.823,20.9,1.458h-1.242c.927,2.147,4.959-1.053,8.322,0-.786,0-1.077-1.175-.857-.932,4.558-.365,9.321.527,16.229,1.175l-.857-.527c2.688-.486,7.073-.284,9.973-.527.865.527,2.523.446,1.517,1.256,8.943-3.159,17.061,1.661,25-.932-.943,0-2.263-.486-1.509-.486l6.766.486a3.613,3.613,0,0,1-2.31,1.3,9.369,9.369,0,0,0,4.44,1.013c-3.041-.648,0-1.539,1.344-2.025-.22.284.228.567.118.891,3.529-1.661.589,1.863,5.415.729l-.259-.486c1.808.284,3.466.932,5.415.77.786-1.094-1.917-.486-2.043-1.377,2.735,0,5.391,2.025,7.859.972-1.163-.324-2.829-.324-3.992-.608a9.8,9.8,0,0,1,5.014-1.175h-.2L889.84,3.2l-1.179.324c3.426,2.835,6.971.527,11.576,2.39-4.479-1.782-.739-1.013-1.085-2.268,1.179-.324,2.971-.689,2.46-1.053,2.177.972,3.631-.77,6.711.648.134-.365,2.358,0,1.831-1.013,2.837.324-.668.689-.424,1.175,4.362,1.377,10.256-1.62,16.5.243,5.415.729,6.413,2.066,11.443,2.754,1.69-.648-1.391-1.458-1.391-1.458a17.393,17.393,0,0,1,7.372,0c-.527-.365,0-.648.786-1.094,2.067,0,1.383,1.418,4.11.851a6.731,6.731,0,0,0-2.067-1.58c2.436.365,4.849,1.094,7.372,1.458.668-.689-1.525-1.053-2.413-1.5,2.837.324,7.348.608,8.22,1.7l-1.815.405c1.03,0,.534-.932-.228-1.134-2.436-.851-3.513.365-3.646.77l1.8.243c-1.847,2.309-7.222-.365-10.837-.243l1.509,1.7L942.729,5.1c-.786.446-1.328,1.377.464,1.661-2.593.81-2.3-.608-4.527.324-.244,0-.134,0,.094.284l-2.538-.486c.5.324-.417,1.175,1.14.932-4.55.972-7.34-1.256-9.053,0h.385c-6.287-.567-.613-1.256-5.344-2.673l-3.191,3.038-.621-1.256c-.644,0-1.933,0-1.7.648-2.42-.851.417-.527-.99-1.337-3.143,1.134-8.645-.527-9.352,1.458-1.124-.972,3-.729-.346-1.377-.959,2.106-3.867-.365-6.735.608.88,1.094,3.591.486.731,1.458-1.729-1.823-5.58.405-7.992,0-.11-1.5-5.25-.648-9.3-1.134.259.527-7.623.81-11.4,1.337l.118.284c-.731-1.5-4.621-1.215-7.45-1.539.11.891.621,1.256,2.153,1.661h-2.664a6.552,6.552,0,0,0-3.143-.891l.668,1.134c-3.544,0-7.136-1.337-11.694-.567-.251-1.053,3.623-2.916-1.195-3.6-.181.567-.354,1.539.9,1.782-.409,0-1.47-.486-2.3-.243l1.925.932c-2.075.405-1.085-.77-2.743-.689,0,.81-1.234.567-.99,1.215.417,0,1.446-.324,2.083,0a9.76,9.76,0,0,0-4.888,1.256c.165-.486,0-1.094-1.367-1.215-3.544,0-1.21.972-3.277,1.377-.857-.527-3.143,0-3.143-1.175a2.473,2.473,0,0,0-1.627,1.256c-1.831-.527-8.558,0-6.5-1.418h.173c-6-1.215-12.48.648-18.445,0v.405c-3.56-.486-7.922-.284-10.46-1.134-1.053,0-2.483.729-2.035,1.215-2.719-.324-3.026-.77-6.955,0,2.735.729-.943.648,2.8.527a15.826,15.826,0,0,1-8.126,0c1.289,1.053-2.664,1.3-4.346,1.013L782.4,9.4h-5.218l.9,1.175c-7.238,1.661-13.053-2.754-18.555,0-1.918-.932,3.929-.648,2.216-1.742-3.332,0-6.8,2.106-7.859,2.106-4.566.729-4.259-1.985-9.03-1.458.613-.486,1.187-1.742-2.358-2.228-3.332.2-4.094,2.025-2,2.43a.948.948,0,0,0,1.155-.283c1.077,0,2.483.365,1.163.891l-.432-.486c-1.65.486-6.232.446-5.155,1.256-2.515-.486-1.077-.81.786-1.053-4.267.689-6.672,0-11.065.486.7-.284,1.344-.81.644-.81-6.444.567-2.837-.932-7.207-1.134-2.476.689.9,1.7-3.505,1.094-2.68.486-.566,1.256.5,1.661-4.008-.932-7.49.608-9.776.77l2.106.405a16.5,16.5,0,0,0-3.348-.243l1.21-.932a2.9,2.9,0,0,0-2.271.567c-1.273-.648.982-1.62-1.572-2.471-1.65.486-5.03-.527-5.6.77,5.2-.446-.574,1.256,3.827,1.458h-3.144c-.189,0,.173.243.519.324-4.943,1.053-2.255-1.377-7.411-1.377.652.729-1.195,1.377-2.035,1.215,2.075,0,.99-1.175-.912-1.742-3.309.567-3.591-.405-5.32-.365l1.973-.243a8.571,8.571,0,0,0-4.621-.851c-.2.567,2.09.365,1.265.608-2.554-1.256-5.776,1.337-9.344.486-1.65.486-.157,1.337-1.572,1.661-4-.932-4.33,1.013-8.527.243,1.21-.972,1.422-.729-1.572-1.7l6.9.689-4.432-1.62c2.083,0,4.4.608,5.651.446-2.114-.77-1.9-.527-.9-1.337-2.853,1.458-5.65-.851-8.951,0l.1,2.39c-4.982,1.418-8.8-.891-15.2-.284l2.067-.405c-.864-.972-3.977,0-6.059-.527.2.81-1.108,1.094-2,1.58.1-.608-4.715,0-5.3-1.539l-2.916,1.053C625.029,10.774,624.3,8.06,619.3,8.3c1.5.891-.786,1.458,2.578,2.066a3.985,3.985,0,0,1-3.191-.405c-.975.527-4.629-1.053-6.161-.284a3.394,3.394,0,0,0-2.806-1.134c-.2,0,0,.405,0,.405s-2.931-.567-1.3-1.458c-5.14,2.511-14.358,0-18.861,1.985-3.6-.284-8.008-.527-11.293-.527.212.243,0,.405.637.324-4.558.77-2.806-2.268-7.992-1.458-2.648,1.134,2.782.608,1.1,1.134-.715,2.633-6.287-.324-9.745,1.175h.841c-2.664.891-6.507-.972-10.869-.81,0,0,.212.243,0,.405-2.979-1.337-8.645-1.782-12.818-2.147,1.3,1.013,1.91.527,1.108,1.58-1.878,0,.55-1.661-3.2-1.985-1.218.567-3.929,1.053-4.291,2.187h3.544c-1.792,1.62-4.542.122-6.428.405l.244.608c-5.423,0-5.5-1.782-11.332-1.661l.605-.486c-3.191-1.58-2.672.891-5.855-.284l-.959,1.58c-2.1-.365-7.364-1.539-11.136-1.823,2.138,1.256,6.546,1.782,9.281,2.471-2.083,0-7.073,0-8.165-.891.833,0,1.894.527,2.727.284a22.131,22.131,0,0,0-10.075-1.823c.731,3.078-10.829.77-13.839,3.159-7.348-1.134-14.57.486-23.128.324,3.034-2.43-2.5,0-1.973-2.552H453.62l-6.043,1.539c-1.43.689,1.894.527,1.713,1.094-4.362,0-1.831,1.053-4.715,1.7.6-.891-1.517-1.256-4-.932l3.5-1.134c-6.1-1.337-5.265,2.066-11.419.77l1.941.77c-3.144-.446-11.639,0-14.735-1.985-.558.284-1.3.972.094,1.175-7.537.284-16.794-2.147-22.641-.891l.574.608a6.9,6.9,0,0,0-4.212-.527c.086.243.566.567-.086.608s-3.733-1.053-5.6-.689l1.572.689C382.2,12.232,378.27,9.8,372.1,9.357c0,1.782-5.768,2.39-8.645,2.673l.1.243c-8.566.243-14.547-1.458-22.476-2.187-4.912,1.944-16.669.81-24.582,1.9,1.21-.324-.2-1.377-1.572-1.58-1.855.365-5.132-1.215-4.833.405h.66c-1.43,1.58-5.25,1.175-8.189,1.215l-.487-2.147C294.282,13,281.645,8.749,277.4,11.5c-1.878-.527-4.2-.527-6.067-1.053l.094,1.134a116.234,116.234,0,0,1-14.287.2l1.312.81c-3.631,0-4.59-3.321-7.937-3.4l-1.006,1.742c-6.342,0-12.755,1.458-19.018,0,.432.751.891,1,1.344.729-2.978,0-11.537,1.175-10.452-1.175-.079,1.5-6.539,0-9.965-.527l.534,1.094a13.8,13.8,0,0,0-7.018-2.228c-.951,0-.833.932.432.608-3.144.608-2.483-1.053-6.342-.446l1.375.729a6.681,6.681,0,0,1-4.825-1.134,8.814,8.814,0,0,0-6.7,1.3,4.73,4.73,0,0,0-4.173-1.175c-.259.405.44.648.786.729-5.5.77-8.157-1.3-11.922-.2-.2.5-.417.738-.637.689h7.529c0,1.013-3.513,1.215-.715,2.633-2.821-.77-7.654-2.471-11.081-1.985-.165,0-.33.2-.456.365H166.4c-1.092,0-1.792.284-2.845.284a11.428,11.428,0,0,1-5.784.527c.149-1.134-2.153-.972,0-1.9a1.622,1.622,0,0,0,1.5,0H164.3a6.42,6.42,0,0,0-4.762-.365c-.9-.729-1.894-1.458-2.452-1.823-2.358,1.58-7.026,2.43-7.67,3.443-5.352-.648-12.613-.446-15.977-2.592a2.22,2.22,0,0,0-2.318.972c.88.2,1.925,0,2.358.486-3.041-.567-9.022-.2-9.745-1.7-3.835.648,2.153,1.377-3.144,1.134l.715.446c-10.311,2.39-16.779-3.807-28.3-.891a1.878,1.878,0,0,0,1.36-.527c-13.109,1.5-27.019-1.134-39.954,1.013a9.663,9.663,0,0,1-6.287-1.256L47.335,9.4,43.5,8.02c-5.446-1.053-9.431,3-16.315,1.013l.888-.81c-2.476,0-7.859-.486-7.419.486a1.5,1.5,0,0,0-1.792-.446l-.1.689L12.685,7.858c-4.715.446.731,2.511-6.138,2.633C3.986,10.248-.73,8.627.261,8.222A3.051,3.051,0,0,0,2.972,7.169L.614,6.845C.182,4.9-1.618,3,4.119,1.661l4,1.175L9.432,1.9h-3.4a4.851,4.851,0,0,1,4.48.405A2.552,2.552,0,0,1,12.19,1.3L16.12,3.119c.479-.729-1.76-1.458.872-1.863,1.839.81-1.76,1.62,1.281,2.187a3.1,3.1,0,0,1,3.6-.81c.314-.486-.157-.81-1.045-1.013,2,.567,5.289.243,6.287,1.256,2-1.094,6.743.243,6.546-1.539a15.067,15.067,0,0,0,5.36,1.5C35.665.689,45.889,2.835,45,.405c2.483,1.9,8.967.851,13.36,1.9a1.967,1.967,0,0,0-1.116-.365c2.476,0,3.191-.729,4.786-1.094.314,1.58,4.165,1.944,6.287,2.957,3.026-1.539-1.847-1.863-.9-3.362-.149,1.3,5.273,1.3,4.244,2.349A5.309,5.309,0,0,0,74.841.851c.409,1.985,2.161.324,4.079,1.539,3.356-.972.864-1.863,4.55-1.256C85.23.851,81.945,0,81.945,0Zm87.689,3.4Zm7.372,0h-3.2c-.259.405,0,.81.786.77a4.341,4.341,0,0,1,2.413-.729Zm-15.592,7.939a1.541,1.541,0,0,0,1.721-.324h-2.043a.16.16,0,0,1-.134,0C161.106,11.232,161.259,11.341,161.413,11.341Z" transform="translate(-0.006)" fill="#bea457"/><path d="M202.73.83h-.62L203,.76l.53.09Z" transform="translate(-0.006 9.007)" fill="#bea457"/><path d="M1052.7,1.2h0Z" transform="translate(-261.471 6.941)" fill="#bea457"/><path d="M354.7,2.83l-.01.07-.82-.06Z" transform="translate(-74.703 -2.52)" fill="#bea457"/><path d="M1104.35,2.24a4.159,4.159,0,0,1,.68-.08,5,5,0,0,1-.68.08Z" transform="translate(-261.471 1.845)" fill="#bea457"/><path d="M1126.66,2.33l3.15-.1C1128.44,2.29,1127.45,2.32,1126.66,2.33Z" transform="translate(-261.471 1.421)" fill="#bea457"/><path d="M1143.81,2.25a1,1,0,0,1,.33.12h0Z" transform="translate(-261.471 1.252)" fill="#bea457"/><path d="M871.1,2.738h-.66C868.89,2.678,869.94,2.7,871.1,2.738Z" transform="translate(-183.673 -2.228)" fill="#bea457"/><path d="M952.25,2.186c-.86,0-1.71-.1-2.6-.13a7.66,7.66,0,0,1,2.6.13Z" transform="translate(-200.754 2.34)" fill="#bea457"/><path d="M780.48,3Z" transform="translate(-164.647 -2.79)" fill="#bea457"/><path d="M945.87,2.169c1.45-.05,2.65,0,3.78,0C948.46,2.189,947.07,2.209,945.87,2.169Z" transform="translate(-200.146 2.02)" fill="#bea457"/><path d="M1218.15,2.49h0Z" transform="translate(-261.471 0.426)" fill="#bea457"/><path d="M1219.07,2.444h.92a6.77,6.77,0,0,1-.92,0Z" transform="translate(-261.471 0.605)" fill="#bea457"/><path d="M1221.92,2.438l-1.93-.07a14,14,0,0,1,1.93.07Z" transform="translate(-261.471 0.827)" fill="#bea457"/><path d="M1195.44,2.47l-.26-.11a.37.37,0,0,1,.26.11Z" transform="translate(-261.471 0.717)" fill="#bea457"/><path d="M1188.54,2.517c1.65,0,4.13-.22,6.43-.16l.21.08C1194.1,2.287,1190.1,2.687,1188.54,2.517Z" transform="translate(-261.471 0.425)" fill="#bea457"/><path d="M1159.74.922l5.78-.09c-1,.11-2.34.26.29.29C1158.52,1.442,1167.32.872,1159.74.922Z" transform="translate(-261.471 8.063)" fill="#bea457"/><path d="M1141.81.78c3.11,0,0,.16.13.22C1140,.92,1139.49.9,1141.81.78Z" transform="translate(-261.471 8.668)" fill="#bea457"/><path d="M1012.25.74l.32.26C1010.17.98,1012.54.92,1012.25.74Z" transform="translate(-261.471 8.806)" fill="#bea457"/><path d="M987.49,2.38l2.33-.16,1.11.24Z" transform="translate(-208.895 1.003)" fill="#bea457"/><path d="M972.86.5l1.04.03L969.91.44Z" transform="translate(-205.268 12.032)" fill="#bea457"/><path d="M755.27.862l.72-.31C757.61.612,758,.962,755.27.862Z" transform="translate(-159.585 9.694)" fill="#bea457"/><path d="M661.33.713a28.78,28.78,0,0,1-5.33.11C658.15.8,660.26.673,661.33.713Z" transform="translate(-138.985 9.111)" fill="#bea457"/><path d="M379.62.27l1.89.1L377.94.28Z" transform="translate(-79.961 12.362)" fill="#bea457"/></g></g></svg>