<svg xmlns="http://www.w3.org/2000/svg" xmlns:xlink="http://www.w3.org/1999/xlink" width="48" height="48" viewBox="0 0 48 48"><defs><clipPath id="a"><rect width="48" height="48" fill="#fff"/></clipPath></defs><g clip-path="url(#a)"><path d="M7.031,48H40.968A7.04,7.04,0,0,0,48,40.969V7.031A7.04,7.04,0,0,0,40.968,0H7.031A7.038,7.038,0,0,0,0,7.031V40.969A7.039,7.039,0,0,0,7.031,48M2.813,7.031A4.223,4.223,0,0,1,7.031,2.812H40.968a4.224,4.224,0,0,1,4.22,4.219V40.969a4.224,4.224,0,0,1-4.22,4.218H7.031a4.223,4.223,0,0,1-4.218-4.218Z" fill="#fff"/><path d="M24,36.656A12.656,12.656,0,1,0,11.344,24,12.67,12.67,0,0,0,24,36.656m0-22.5A9.843,9.843,0,1,1,14.156,24,9.844,9.844,0,0,1,24,14.156" fill="#fff"/><path d="M38.063,14.156a4.219,4.219,0,1,0-4.22-4.219,4.219,4.219,0,0,0,4.22,4.219m0-5.625a1.406,1.406,0,1,1-1.406,1.406,1.405,1.405,0,0,1,1.406-1.406" fill="#fff"/></g></svg>