<svg xmlns="http://www.w3.org/2000/svg" xmlns:xlink="http://www.w3.org/1999/xlink" width="130" height="130" viewBox="0 0 130 130"><defs><clipPath id="a"><rect width="130" height="130" fill="none"/></clipPath></defs><g transform="translate(0.211 0.211)"><rect width="130" height="130" transform="translate(-0.211 -0.211)" fill="#fff"/><g transform="translate(-0.211 -0.211)"><g clip-path="url(#a)"><path d="M67.312,166.386l9.929-6.009c1.915,3.4,3.658,6.27,7.837,6.27,4.006,0,6.532-1.567,6.532-7.663V117.528H103.8v41.628c0,12.628-7.4,18.376-18.2,18.376-9.753,0-15.415-5.052-18.289-11.148" transform="translate(-32.939 -57.706)"/><path d="M152.381,164.4l9.927-5.748c2.614,4.268,6.01,7.4,12.019,7.4,5.052,0,8.274-2.525,8.274-6.009,0-4.181-3.309-5.661-8.883-8.1l-3.047-1.308c-8.8-3.744-14.632-8.447-14.632-18.376,0-9.144,6.968-16.112,17.854-16.112,7.751,0,13.325,2.7,17.331,9.754L181.73,132c-2.091-3.744-4.354-5.225-7.838-5.225-3.57,0-5.835,2.264-5.835,5.225,0,3.658,2.265,5.139,7.49,7.4l3.048,1.307c10.364,4.442,16.2,8.97,16.2,19.159,0,10.974-8.622,16.983-20.2,16.983-11.321,0-18.637-5.4-22.208-12.454" transform="translate(-74.895 -57.027)"/></g></g></g></svg>