<svg xmlns="http://www.w3.org/2000/svg" xmlns:xlink="http://www.w3.org/1999/xlink" width="50" height="50" viewBox="0 0 50 50"><defs><clipPath id="a"><rect width="50" height="50" fill="#fff"/></clipPath></defs><g clip-path="url(#a)"><path d="M42.675,0H7.324A7.332,7.332,0,0,0,0,7.324V42.676A7.332,7.332,0,0,0,7.324,50H42.675A7.332,7.332,0,0,0,50,42.676V7.324A7.333,7.333,0,0,0,42.675,0m4.4,42.676a4.4,4.4,0,0,1-4.4,4.4H7.324a4.4,4.4,0,0,1-4.395-4.4V7.324A4.4,4.4,0,0,1,7.324,2.93H42.675a4.4,4.4,0,0,1,4.4,4.394Z" fill="#fff"/><path d="M8.887,41.211h8.789v-20.7H8.887Zm2.929-17.773h2.93V38.282h-2.93Z" fill="#fff"/><path d="M32.333,20.508h-.008a8.753,8.753,0,0,0-2.93.5v-.5H20.606v20.7H29.4V30.761a1.465,1.465,0,0,1,2.93,0v10.45h8.789V29.754c0-4.74-3.846-9.242-8.781-9.246m5.851,17.773h-2.93v-7.52a4.395,4.395,0,0,0-8.789,0v7.52H23.536V23.437h2.929v2.932l2.345-1.761a5.8,5.8,0,0,1,3.515-1.171h.005c3.119,0,5.854,2.955,5.854,6.317Z" fill="#fff"/><path d="M8.887,17.578h8.789V8.789H8.887Zm2.929-5.859h2.93v2.93h-2.93Z" fill="#fff"/></g></svg>