<?xml version="1.0"?>
<svg xmlns="http://www.w3.org/2000/svg" id="Icons" viewBox="0 0 60 60" width="512" height="512"><path d="M6.812,59.471a.5.5,0,0,1-.259-.927l14.681-8.93L4.279,59.4a.5.5,0,0,1-.509-.86l15.947-9.679L2.527,58.788a.5.5,0,0,1-.507-.861l9.25-5.566-9.561,5.52a.5.5,0,0,1-.51-.86l20.587-12.53L1.28,56.33a.5.5,0,0,1-.51-.859l23.414-14.3L1.28,54.393a.5.5,0,0,1-.512-.859L29.685,35.688l-28.4,16.4a.5.5,0,0,1-.507-.861l3.956-2.37L1.28,50.849a.5.5,0,0,1-.508-.862l9.009-5.413-8.5,4.907a.5.5,0,0,1-.507-.861L7.59,44.53,1.28,48.173a.5.5,0,0,1-.507-.861l6.548-3.928L1.28,46.871a.5.5,0,0,1-.509-.86L18.7,35.143,1.28,45.2a.5.5,0,0,1-.509-.86l17.974-10.9L1.28,43.525a.5.5,0,0,1-.507-.862l.518-.309-.011.006A.5.5,0,0,1,.77,41.5l23.5-14.356L1.28,40.418a.5.5,0,0,1-.509-.859L21.862,26.72,1.28,38.6a.5.5,0,0,1-.507-.862l1.832-1.095L1.28,37.41a.5.5,0,0,1-.507-.861L4.3,34.437,1.279,36.181a.5.5,0,0,1-.512-.859L27.3,18.966,1.279,33.986a.5.5,0,0,1-.509-.86l14.194-8.61-13.685,7.9a.5.5,0,0,1-.514-.857L25.147,16.37,1.279,30.15a.5.5,0,0,1-.509-.861L8.507,24.6,1.279,28.77a.5.5,0,0,1-.508-.862l.433-.261a.5.5,0,0,1-.438-.894l14.686-9.094L1.279,25.842a.5.5,0,0,1-.511-.859l9.02-5.548L1.279,24.347a.5.5,0,0,1-.512-.858l9.205-5.7L1.279,22.81a.5.5,0,0,1-.516-.856l12.211-7.7L1.279,21a.5.5,0,0,1-.513-.858l5.465-3.4L1.279,19.607a.5.5,0,0,1-.522-.852l12.112-7.879L1.279,17.567a.5.5,0,0,1-.527-.849L11.837,9.344l-10.558,6.1a.5.5,0,0,1-.524-.85L7.7,10.018,1.279,13.725a.5.5,0,0,1-.538-.842L9.127,6.967,1.279,11.5a.5.5,0,0,1-.524-.852l.751-.493-.227.131a.5.5,0,0,1-.531-.847L2.5,8.246l-1.223.706a.5.5,0,0,1-.566-.82l4.4-3.6L1.279,6.742A.5.5,0,0,1,.7,5.932L2.858,4.056l-1.579.911A.5.5,0,0,1,.63,4.233L1.774,2.716a.5.5,0,0,1-.527-.241.5.5,0,0,1,.183-.683L3.364.675a.5.5,0,0,1,.65.734l-1.1,1.462L6.849.6a.5.5,0,0,1,.578.81L5.27,3.284,9.923.6a.5.5,0,0,1,.566.82l-4.4,3.6L13.75.6a.5.5,0,0,1,.531.846l-1.758,1.2L16.061.6a.5.5,0,0,1,.524.851l-.744.489L18.161.6a.5.5,0,0,1,.538.841L10.313,7.354,22.018.6a.5.5,0,0,1,.524.85L15.6,6.02,24.987.6a.5.5,0,0,1,.528.849L14.43,8.82,28.673.6a.5.5,0,0,1,.522.852L17.08,9.33,32.206.6a.5.5,0,0,1,.514.858l-5.47,3.4L34.627.6a.5.5,0,0,1,.517.856l-12.207,7.7L37.754.6a.5.5,0,0,1,.513.858l-9.212,5.7L40.417.6a.5.5,0,0,1,.512.859L31.907,7,43.006.6a.5.5,0,0,1,.514.858L28.844,10.542,46.071.6a.5.5,0,0,1,.508.862l-.114.069L48.076.6a.5.5,0,0,1,.51.861l-7.749,4.7L50.468.6a.5.5,0,0,1,.514.858L26.606,16.639,54.393.6a.5.5,0,0,1,.509.861L40.68,10.085,56.762.8a.5.5,0,0,1,.512.859L30.747,18.013l27.54-15.9a.5.5,0,0,1,.507.863l-3.5,2.095,3.34-1.928a.5.5,0,0,1,.507.862l-1.8,1.076,1.379-.8a.5.5,0,0,1,.509.86L38.117,18,58.72,6.1a.5.5,0,0,1,.51.86L35.738,21.312,58.72,8.043a.5.5,0,0,1,.507.862l-.518.309.011-.006a.5.5,0,0,1,.509.861L41.267,20.958,58.72,10.881a.5.5,0,0,1,.509.861L41.29,22.617,58.72,12.554a.5.5,0,0,1,.507.862l-6.548,3.927,6.041-3.488a.5.5,0,0,1,.507.862l-6.817,4.09,6.31-3.643a.5.5,0,0,1,.508.862l-9.009,5.413,8.5-4.908a.5.5,0,0,1,.507.863L55.292,19.75l3.428-1.98a.5.5,0,0,1,.512.858L30.31,36.479l28.41-16.4a.5.5,0,0,1,.51.86L35.825,35.23,58.72,22.012a.5.5,0,0,1,.509.861L38.619,35.417l20.1-11.606a.5.5,0,0,1,.508.861l-9.256,5.57,8.748-5.051a.5.5,0,0,1,.509.86L43.289,35.727l15.432-8.91a.5.5,0,0,1,.509.861L44.547,36.607l14.174-8.183a.5.5,0,0,1,.51.86L43.559,38.872l15.162-8.754a.5.5,0,0,1,.508.861L56.2,32.806l2.518-1.453a.5.5,0,0,1,.513.857l-17.1,10.612,16.586-9.576a.5.5,0,0,1,.512.858l-13.1,8.109,12.589-7.268a.5.5,0,0,1,.518.855L41.568,47.055l17.153-9.9a.5.5,0,0,1,.513.858l-8.053,5,7.54-4.353a.5.5,0,0,1,.516.856L49.021,45.968l9.7-5.6a.5.5,0,0,1,.523.852l-12.688,8.3,12.165-7.024a.5.5,0,0,1,.525.85L48.988,50.1l9.733-5.619a.5.5,0,0,1,.52.853l-4.647,3,4.127-2.383a.5.5,0,0,1,.535.844l-8.222,5.7,7.687-4.437a.5.5,0,0,1,.523.851l-.671.438.148-.085a.5.5,0,0,1,.552.83l-5.93,4.515,5.378-3.1a.5.5,0,0,1,.536.843l-.614.429.078-.045a.5.5,0,0,1,.575.813l-2.677,2.293,2.1-1.213a.5.5,0,0,1,.615.773l-1.365,1.463.553-.319a.5.5,0,1,1,.5.865l-3.456,2a.5.5,0,0,1-.615-.773l1.364-1.462L52.444,59.4a.5.5,0,0,1-.575-.812L54.545,56.3l-5.378,3.1a.5.5,0,0,1-.536-.842l.617-.432L47.04,59.4a.5.5,0,0,1-.553-.83l5.932-4.515L43.157,59.4a.5.5,0,0,1-.523-.851l.666-.434L41.072,59.4a.5.5,0,0,1-.535-.843l8.216-5.7L37.423,59.4a.5.5,0,0,1-.521-.852l4.652-3L34.882,59.4a.5.5,0,0,1-.526-.849l10.259-6.765L31.428,59.4a.5.5,0,0,1-.524-.851l12.695-8.3L27.749,59.4a.5.5,0,0,1-.517-.855L37.447,52.1,24.789,59.4a.5.5,0,0,1-.514-.857l8.048-5L22.18,59.4a.5.5,0,0,1-.519-.854L39.334,47.292,18.356,59.4a.5.5,0,0,1-.512-.857L30.938,50.44,15.414,59.4a.5.5,0,0,1-.514-.857L32,47.936,12.135,59.4a.5.5,0,0,1-.509-.86l3.038-1.833L10,59.4a.5.5,0,0,1-.511-.859l15.682-9.593L7.062,59.4A.5.5,0,0,1,6.812,59.471Z" fill="#4b95ff"/><path d="M8.221,55.471a.5.5,0,0,1-.262-.926l16.4-10.094L5.71,55.219A.5.5,0,0,1,5.2,54.36L24,42.8,5.28,53.605a.5.5,0,0,1-.513-.857l24.115-15L5.28,51.373a.5.5,0,0,1-.511-.858L23.636,38.921,5.28,49.518a.5.5,0,0,1-.509-.861l10.234-6.206L5.28,48.065a.5.5,0,0,1-.509-.86L15.687,40.58,5.28,46.588a.5.5,0,0,1-.511-.859L24.055,33.868,5.28,44.707a.5.5,0,0,1-.509-.86l10.116-6.133L5.279,43.26a.5.5,0,0,1-.512-.858L26.486,28.973,5.279,41.217a.5.5,0,0,1-.511-.86L22.251,29.642,5.279,39.44a.5.5,0,0,1-.51-.859L20.261,29.1,5.279,37.752a.5.5,0,0,1-.513-.857L23.785,25.086,5.279,35.771a.5.5,0,0,1-.512-.859L18.335,26.54,5.279,34.077a.5.5,0,0,1-.513-.857l12.56-7.786L5.279,32.389a.5.5,0,0,1-.517-.855L20.868,21.305l-15.589,9a.5.5,0,0,1-.521-.853l15.6-10.087-15.076,8.7a.5.5,0,0,1-.513-.858l3.578-2.223-3.065,1.77a.5.5,0,0,1-.523-.852l11.1-7.236-10.573,6.1a.5.5,0,0,1-.516-.856l2.292-1.443L5.279,23.5a.5.5,0,0,1-.516-.857l.421-.265a.5.5,0,0,1-.427-.895L8.575,19l-3.3,1.9a.5.5,0,0,1-.541-.84L12.47,14.52,5.279,18.671a.5.5,0,0,1-.546-.836l5.213-3.829L5.279,16.7a.5.5,0,0,1-.556-.828l3.529-2.736L5.279,14.852a.5.5,0,0,1-.562-.824l1.559-1.245-1,.576a.5.5,0,0,1-.567-.819l.334-.276a.514.514,0,0,1-.351-.128.5.5,0,0,1-.123-.574l.615-1.387a.491.491,0,0,1-.5-.244.5.5,0,0,1,.182-.683L5.992,8.6a.5.5,0,0,1,.707.635l-.591,1.332L9.516,8.6a.5.5,0,0,1,.567.819l-.06.049,1.5-.868a.5.5,0,0,1,.563.823l-1.559,1.245L14.113,8.6a.5.5,0,0,1,.557.828l-3.529,2.737L17.314,8.6a.5.5,0,0,1,.546.836l-5.212,3.828L20.728,8.6a.5.5,0,0,1,.541.839l-7.733,5.549L24.6,8.6a.5.5,0,0,1,.522.852L21.31,11.926,27.076,8.6a.5.5,0,0,1,.517.857l-.182.113,1.681-.97a.5.5,0,0,1,.516.856l-2.289,1.442L31.3,8.6a.5.5,0,0,1,.523.852l-11.1,7.238L34.735,8.6a.5.5,0,0,1,.514.858l-3.576,2.221L37.006,8.6a.5.5,0,0,1,.521.853l-15.6,10.092L40.881,8.6a.5.5,0,0,1,.517.855L25.293,19.68,44.49,8.6A.5.5,0,0,1,45,9.454L32.449,17.236,47.414,8.6a.5.5,0,0,1,.513.859L34.36,17.826,50.348,8.6a.5.5,0,0,1,.513.858L31.836,21.266,53.769,8.6a.5.5,0,0,1,.51.859L38.79,18.938l15.93-9.2a.5.5,0,0,1,.511.859L37.757,21.311,54.72,11.518a.5.5,0,0,1,.512.858L33.506,25.809,54.72,13.561a.5.5,0,0,1,.509.861L45.115,20.554l9.6-5.545a.5.5,0,0,1,.511.859L35.961,27.719,54.72,16.889a.5.5,0,0,1,.509.86L44.3,24.382,54.72,18.367a.5.5,0,0,1,.509.861l-10.25,6.215,9.742-5.624a.5.5,0,0,1,.511.859L36.374,32.267,54.721,21.674a.5.5,0,0,1,.513.857L31.113,37.537l23.608-13.63a.5.5,0,0,1,.511.859L36.423,36.333l18.3-10.564a.5.5,0,0,1,.511.858L38.832,36.72l15.889-9.173a.5.5,0,0,1,.512.858L39.816,37.937l14.9-8.6a.5.5,0,0,1,.515.856l-17.36,10.9,16.845-9.725a.5.5,0,0,1,.515.857l-14.2,8.921,13.685-7.9a.5.5,0,0,1,.517.856l-12.61,7.97,12.093-6.981a.5.5,0,0,1,.522.851L41.071,45.162l13.65-7.88a.5.5,0,0,1,.517.856L48.7,42.277,54.721,38.8a.5.5,0,0,1,.524.85l-9.319,6.114,8.795-5.077a.5.5,0,0,1,.528.847l-8.271,5.547,7.743-4.471a.5.5,0,0,1,.54.84l-8.236,5.872,7.7-4.442a.5.5,0,0,1,.537.842L50.732,48.9l3.989-2.3a.5.5,0,0,1,.555.828l-4.42,3.423,3.865-2.231a.5.5,0,0,1,.55.832l-1.334,1.005.784-.451a.5.5,0,0,1,.61.779l-1.91,1.986,1.3-.75a.492.492,0,0,1,.6.08.5.5,0,0,1,.076.606l-.55.938a.5.5,0,0,1,.333.925L53.74,55.4a.5.5,0,0,1-.68-.686l.518-.883L50.86,55.4a.5.5,0,0,1-.61-.779l1.911-1.986L47.369,55.4a.5.5,0,0,1-.551-.832l1.333-1.005L44.969,55.4a.5.5,0,0,1-.556-.828l4.416-3.42L41.47,55.4a.5.5,0,0,1-.537-.841l4.523-3.177L38.495,55.4a.5.5,0,0,1-.54-.84l8.235-5.872L34.564,55.4a.5.5,0,0,1-.528-.847l8.276-5.549L31.231,55.4a.5.5,0,0,1-.524-.85l9.322-6.115L27.963,55.4a.5.5,0,0,1-.518-.855l6.545-4.143-8.658,5a.5.5,0,0,1-.522-.851l14.171-9.223L21.531,55.4a.5.5,0,0,1-.517-.855l12.605-7.967L18.337,55.4a.5.5,0,0,1-.516-.856l14.2-8.921L15.086,55.4a.5.5,0,0,1-.516-.856l17.361-10.9L11.562,55.4a.5.5,0,0,1-.512-.858l15.423-9.534L8.471,55.4A.5.5,0,0,1,8.221,55.471Z" fill="#fff"/><path d="M21.57,32.471a.5.5,0,0,1-.264-.925l2.5-1.558L19.623,32.4a.5.5,0,0,1-.514-.857l2.638-1.64-4.325,2.5a.5.5,0,0,1-.523-.851l11.955-7.787L13.891,32.4a.5.5,0,0,1-.519-.854l8.753-5.573-10.733,6.2a.5.5,0,0,1-.524-.852l11.755-7.667L10.361,30.732a.5.5,0,0,1-.518-.854l6.527-4.166-6.092,3.517a.5.5,0,0,1-.516-.856l2.05-1.3-1.535.886a.5.5,0,0,1-.531-.846l8.7-5.923-8.169,4.716a.5.5,0,0,1-.53-.848L14.92,21.57l-4.647,2.682a.5.5,0,0,1-.543-.838l5.591-4.036-4.671,2.7a.5.5,0,0,1-.535-.844l3.094-2.145a.5.5,0,0,1-.131-.828l3.772-3.4a.5.5,0,0,1,.229-.576l1.184-.683a.5.5,0,0,1,.585.8l-1.582,1.427L21.13,13.6a.5.5,0,0,1,.535.844l-1.039.72L23.335,13.6a.5.5,0,0,1,.543.838l-5.592,4.037L26.729,13.6a.5.5,0,0,1,.531.847l-5.175,3.494L29.6,13.6a.5.5,0,0,1,.532.846l-8.7,5.922L33.163,13.6a.5.5,0,0,1,.517.856l-2.051,1.3L35.354,13.6a.5.5,0,0,1,.519.855l-6.53,4.168,8.7-5.023a.5.5,0,0,1,.523.852L26.811,22.116,41.566,13.6a.5.5,0,0,1,.519.855l-8.756,5.575L44.467,13.6a.5.5,0,0,1,.522.852L33.037,22.233l14.88-8.59a.5.5,0,0,1,.514.857l-2.643,1.643L49.1,14.228a.5.5,0,0,1,.515.857l-2.5,1.556,2.5-1.442a.5.5,0,0,1,.516.857l-3.377,2.122,2.962-1.71a.5.5,0,0,1,.519.854l-4.993,3.193,4.474-2.583a.5.5,0,0,1,.521.853l-4.152,2.68,3.632-2.1a.5.5,0,0,1,.534.844L42.9,25.285l6.824-3.94a.5.5,0,0,1,.54.841l-5.736,4.081,5.2-3a.5.5,0,0,1,.529.848l-.4.27a.5.5,0,0,1,.445.867L46.2,28.7l3.526-2.036a.5.5,0,0,1,.606.784l-2.21,2.24,1.6-.926a.5.5,0,0,1,.66.719l-.724,1.041a.563.563,0,0,1,.446.25.5.5,0,0,1-.183.683l-1.619.935a.5.5,0,0,1-.66-.718l.642-.925L45.413,32.4a.5.5,0,0,1-.6-.784l2.208-2.239L41.779,32.4a.5.5,0,0,1-.572-.815l4.1-3.445L37.922,32.4a.5.5,0,0,1-.529-.847l.174-.118L35.9,32.4a.5.5,0,0,1-.541-.84l5.739-4.083L32.566,32.4a.5.5,0,0,1-.534-.844l7.356-5.07L29.144,32.4a.5.5,0,0,1-.522-.852l4.153-2.681L26.654,32.4a.5.5,0,0,1-.519-.853l4.991-3.193L24.118,32.4a.5.5,0,0,1-.515-.856l3.377-2.123L21.82,32.4A.5.5,0,0,1,21.57,32.471Z" fill="#4b95ff"/><path d="M33.135,22.525a.5.5,0,0,1-.25-.933l1.672-.966a.5.5,0,0,1,.5.867l-1.672.965A.5.5,0,0,1,33.135,22.525Z" fill="#86fdaa"/><path d="M22.387,32.47a.5.5,0,0,1-.276-.917l.461-.306-2,1.155a.5.5,0,0,1-.543-.838l1.763-1.275L18.129,32.4a.5.5,0,0,1-.558-.827L22.546,27.7,14.4,32.4a.5.5,0,0,1-.529-.847l3.088-2.081a.5.5,0,0,1-.19-.9l3.136-2.227a.492.492,0,0,1-.176-.152.5.5,0,0,1,.078-.668l3.78-3.308a.5.5,0,0,1,.2-.65l1.637-.945a.5.5,0,0,1,.579.81l-1.7,1.484,2.31-1.334a.5.5,0,0,1,.539.841l-1.12.8,1.421-.821a.5.5,0,0,1,.529.848l-1.6,1.081L28.3,23.223a.5.5,0,0,1,.557.827l-4.973,3.874,5.805-3.352a.5.5,0,0,1,.543.838l-1.759,1.275,7.829-4.521a.5.5,0,0,1,.525.85l-.464.307.7-.4a.5.5,0,0,1,.543.839l-3.992,2.883,4.546-2.624a.5.5,0,0,1,.56.825l-4.1,3.233L39.436,25.3a.5.5,0,0,1,.55.832L38.219,27.46l2.144-1.238a.5.5,0,0,1,.647.129.5.5,0,0,1-.044.658l-2.625,2.617,3.44-1.986a.5.5,0,0,1,.576.812l-.493.425.732-.422a.5.5,0,0,1,.654.727l-.856,1.176,1.335-.771a.5.5,0,0,1,.731.3l.376,1.331.33-.191a.5.5,0,0,1,.5.866l-.887.511a.494.494,0,0,1-.438.031.5.5,0,0,1-.293-.328l-.376-1.33L40.852,32.4a.5.5,0,0,1-.655-.726l.857-1.176-3.3,1.9a.5.5,0,0,1-.576-.811l.492-.424L35.532,32.4a.5.5,0,0,1-.6-.787L37.555,29l-5.9,3.4a.5.5,0,0,1-.551-.832l1.767-1.332L29.125,32.4a.5.5,0,0,1-.56-.825l4.1-3.233L25.635,32.4a.5.5,0,0,1-.543-.838l3.991-2.883L22.637,32.4A.5.5,0,0,1,22.387,32.47Z" fill="#86fdaa"/><path d="M12.163,22.167a.5.5,0,0,1-.319-.884L12.183,21l-1.9,1.1a.5.5,0,0,1-.547-.836l.477-.35a.5.5,0,0,1-.482-.866l1.419-1.072-.868.5a.5.5,0,0,1-.574-.813l1.756-1.5-1.182.682a.5.5,0,0,1-.683-.681L10.6,15.4l-.029.017a.5.5,0,0,1-.5-.866l1.632-.943a.5.5,0,0,1,.684.682l-1.009,1.765,4.3-2.48a.5.5,0,0,1,.574.813l-1.758,1.5,3.16-1.824a.5.5,0,0,1,.552.832l-1.419,1.072.663-.383a.5.5,0,0,1,.547.836l-.934.688a.5.5,0,0,1,.315.885l-1.6,1.328a.493.493,0,0,1,.159.168.5.5,0,0,1-.183.683L12.413,22.1A.5.5,0,0,1,12.163,22.167Z" fill="#fde05e"/><path d="M.273,15.124V55.137a4.648,4.648,0,0,0,.551,2.8,3.9,3.9,0,0,0,3.518,1.509H55.728a.683.683,0,0,0,.077-.012c.038,0,.064.009.107.007A3.824,3.824,0,0,0,59.727,55.7c.013-.856,0-1.714,0-2.57V11.176c0-2.379.045-4.763,0-7.142A3.446,3.446,0,0,0,56.247.553c-.646-.027-1.3,0-1.944,0H27.651c-7.676,0-15.354-.04-23.03,0A4.206,4.206,0,0,0,.587,2.724a5.7,5.7,0,0,0-.314,2.53ZM1.727,4C1.842.85,4.874,1.447,7.042,1.447H48.066c2.464,0,4.936-.058,7.4,0,3.028.072,2.808,2.819,2.808,4.963V55.377c0,1.46-.358,3.058-2.152,3.176H5.536a5.68,5.68,0,0,1-2.2-.192c-2.266-1-1.6-4.709-1.6-6.693V23.987C1.727,17.339,1.485,10.641,1.727,4Z" fill="#262626"/><path d="M4.272,52.744v1.334c0,.018.012.028.014.045a.338.338,0,0,0-.01.071c.3,1.843,3.555,1.26,4.872,1.26H46.041q3.6,0,7.207,0c.946,0,2.109-.144,2.429-1.216a5.883,5.883,0,0,0,.051-1.6V30.174c0-6.642.147-13.3,0-19.942-.043-1.928-1.8-1.686-3.2-1.686H7.819c-1.45,0-3.476-.161-3.547,1.819-.236,6.6,0,13.241,0,19.84Zm1.51-43.29c.223-.182,1.371,0,1.644,0H51.268a14.4,14.4,0,0,1,2.2,0c1.288.208.806,2.509.806,3.478V48.116c0,1.957.006,3.914,0,5.87,0,.694-.05.56-.664.56H7.333c-.682,0-1.449.192-1.605-.728V10.751C5.728,10.521,5.649,9.562,5.782,9.454Z" fill="#262626"/><path d="M9.267,22.057c0,.014.007.021.007.034,0,.118,0,.236,0,.354v6.847c0,1.67.548,2.978,2.486,3.024.576.013,1.153,0,1.73.01a1.459,1.459,0,0,0,.653,0c2.183.007,4.368-.014,6.55-.014H45.378a1,1,0,0,0,.834,0h1.481c1.3-.105,2.755-.707,3-2.149a8.907,8.907,0,0,0,.03-1.47V21.562c0-1.863.092-3.752,0-5.613-.084-1.7-1.352-2.265-2.851-2.265H21.864c-1.079,0-2.159-.011-3.241-.023a.929.929,0,0,0-1.1-.011c-1.692-.015-3.383-.02-5.069.034s-3.136.948-3.176,2.75c-.042,1.867-.008,3.738,0,5.606C9.272,22.046,9.267,22.051,9.267,22.057Zm5.766,9.627,7.6-7.6L24.6,22.118c.377-.377.487-.722.935-.485A11.119,11.119,0,0,1,27.5,23.556l1.825,1.788c.008.011,0,.026.013.035l2.632,2.578.369.361a.851.851,0,0,0,.983.106.754.754,0,0,0,.372-.343.371.371,0,0,0-.029-.4L31.032,25.1l-.179-.175L32.412,23.4l1.161-1.139c.141-.139.6-.763.8-.787.259-.03.76.622.936.8l1.963,1.963,7.451,7.451H15.033ZM44.139,14.316c1.073,0,2.16-.05,3.233,0,1.593.073,1.9,1.395,1.9,2.717v12.5c0,.729.02,2.068-.969,2.147H46.644l-6.719-6.719L36.4,21.443a2.176,2.176,0,0,0-3.222-.212c-1.072.932-2.064,1.978-3.067,2.995L27.226,21.4a2.2,2.2,0,0,0-3.322-.018c-2.646,2.466-5.131,5.131-7.689,7.689l-2.658,2.658a6.846,6.846,0,0,1-1.213-.042c-1.951-.283-1.62-2.456-1.62-3.881V22.479a8.838,8.838,0,0,0,7.987-8.163ZM10.724,15.878c.114-1.6.957-1.562,2.106-1.562h4.423a7.6,7.6,0,0,1-2.128,5.057,7.006,7.006,0,0,1-4.4,2.067v-.61C10.724,19.194,10.608,17.511,10.724,15.878Z" fill="#262626"/><path d="M6.4,5.277h.124a2.1,2.1,0,0,0,.528-.08,1.876,1.876,0,0,0,.5-.2l.1-.07a.141.141,0,0,0,.072-.126c-.037-.084-.178-.083-.249-.083h-1a2.1,2.1,0,0,0-.528.08,1.876,1.876,0,0,0-.5.2l-.1.07a.141.141,0,0,0-.072.126c.037.084.178.083.249.083Z" fill="#262626"/><path d="M11.406,5.294h.124a2.022,2.022,0,0,0,.53-.072,1.676,1.676,0,0,0,.494-.2l.1-.075a.154.154,0,0,0,.068-.139c-.038-.089-.175-.1-.254-.1h-1a2.022,2.022,0,0,0-.53.072,1.676,1.676,0,0,0-.494.2l-.1.075a.154.154,0,0,0-.068.139c.038.089.175.1.254.1Z" fill="#262626"/><path d="M15.58,5.481a.9.9,0,0,0,.353.04h1a.849.849,0,0,0,.291-.069.784.784,0,0,0,.254-.13.523.523,0,0,0,.17-.18.371.371,0,0,0,.085-.2.379.379,0,0,0-.173-.355l-.14-.068a.9.9,0,0,0-.353-.04h-1a.849.849,0,0,0-.291.069.784.784,0,0,0-.254.13.523.523,0,0,0-.17.18.371.371,0,0,0-.085.2.379.379,0,0,0,.173.355Z" fill="#262626"/><path d="M47.737,5.482h6a1.042,1.042,0,0,0,.949-.425c.155-.3-.135-.539-.423-.539h-6a1.042,1.042,0,0,0-.949.425C47.159,5.239,47.449,5.482,47.737,5.482Z" fill="#262626"/><path d="M16.8,36.635h-4.5c-.485,0-1.557.73-.588.73h36c.485,0,1.557-.73.588-.73Z" fill="#262626"/><path d="M38.421,40.445H37.058c-.845,0-1.1,1.11-.116,1.11h11c.845,0,1.1-1.11.116-1.11Z" fill="#262626"/><path d="M11.725,41.437h21c.579,0,1.526-.874.55-.874h-21C11.7,40.563,10.749,41.437,11.725,41.437Z" fill="#262626"/><path d="M48.263,44.517h-25c-.638,0-1.5.966-.526.966h25C48.375,45.483,49.239,44.517,48.263,44.517Z" fill="#262626"/><path d="M11.724,45.431h7a1.127,1.127,0,0,0,.954-.4c.166-.289-.143-.458-.4-.458h-7a1.127,1.127,0,0,0-.954.4C11.156,45.262,11.465,45.431,11.724,45.431Z" fill="#262626"/><path d="M36.267,48.533h-24c-.618,0-1.51.934-.534.934h24C36.351,49.467,37.243,48.533,36.267,48.533Z" fill="#262626"/><path d="M40.741,19.5c.074,0,.148,0,.222.012.015,0,.055.009.082.013a1.921,1.921,0,0,1,.3.1l.073.037c.046.026.09.053.134.083s.1.072.149.111c.01.011.061.057.068.064a2.08,2.08,0,0,1,.215.262c.034.05.067.1.1.155.012.022.014.024.018.031a.324.324,0,0,0,.016.041,2.015,2.015,0,0,1,.115.355c.012.053.021.107.029.16a.809.809,0,0,1,.012.146c0,.344.354.468.658.433.264-.031.8-.211.8-.561a2.153,2.153,0,0,1,.037-.384,1.149,1.149,0,0,1,.062-.228c.051-.114.106-.22.167-.328a.1.1,0,0,0,.013-.026.167.167,0,0,0,.02-.02c.039-.046.077-.093.119-.138.018-.018.091-.082.09-.084.026-.02.051-.041.078-.06a1.256,1.256,0,0,1,.108-.07c.028-.012.059-.024.072-.031s.015-.01.024-.015,0,0,.011,0l.156-.042h.017c.074,0,.147-.011.222-.012.3,0,.761-.228.8-.561.049-.369-.4-.436-.658-.433a3.028,3.028,0,0,0-1.974.8c-.014-.015-.023-.032-.038-.046a2.638,2.638,0,0,0-1.8-.755,1.015,1.015,0,0,0-.947.432C40.161,19.235,40.444,19.493,40.741,19.5Z" fill="#262626"/></svg>
