<svg xmlns="http://www.w3.org/2000/svg" xmlns:xlink="http://www.w3.org/1999/xlink" width="248.641" height="150" viewBox="0 0 248.641 150"><defs><clipPath id="a"><rect width="248.641" height="150" fill="none"/></clipPath></defs><g clip-path="url(#a)"><path d="M58.667,39.121h46.9v3.731h-42.6V70.9h40.057V74.63H62.968v30.8h43.083v3.73H58.667Zm51.1,0h4.984l22.08,30.8,22.569-30.8L190.091,0,139.659,73.158l25.988,36h-5.178L136.827,76.395l-23.741,32.758H108l26.184-36Zm57.74,3.731V39.121h53.441v3.731h-24.62v66.3h-4.3V42.85ZM0,39.121H5.373L79.468,150,48.849,109.153,4.494,44.419l-.2,64.734H0ZM220.512,104.3a1.56,1.56,0,1,1,1.537-1.583v.024a1.52,1.52,0,0,1-1.477,1.559h-.063m4.227-4.1h2.3a2.1,2.1,0,0,0,2.111,2.091c.056,0,.112,0,.168-.007,1.492,0,2.343-.9,2.343-2.587V89.02H234V99.71c0,3.037-1.757,4.786-4.662,4.786-2.735,0-4.6-1.695-4.6-4.289Zm12.327-.136h2.321c.2,1.434,1.6,2.345,3.618,2.345,1.881,0,3.261-.971,3.261-2.313,0-1.152-.878-1.843-2.875-2.314l-1.942-.47c-2.729-.639-3.973-1.959-3.973-4.178,0-2.69,2.195-4.48,5.487-4.48,3.063,0,5.3,1.79,5.439,4.334H246.12c-.22-1.392-1.433-2.262-3.189-2.262-1.851,0-3.084.891-3.084,2.252,0,1.078.794,1.7,2.76,2.156l1.662.408c3.1.723,4.371,1.979,4.371,4.251,0,2.889-2.238,4.7-5.813,4.7-3.35,0-5.6-1.729-5.765-4.43Z" fill="#fff"/></g></svg>