<svg xmlns="http://www.w3.org/2000/svg" xmlns:xlink="http://www.w3.org/1999/xlink" width="239" height="146.349" viewBox="0 0 239 146.349"><defs><clipPath id="a"><rect width="239" height="146.349" fill="none"/></clipPath><clipPath id="c"><path d="M86.87,33.818,64.126,46.946a2.7,2.7,0,0,0-1.351,2.377V75.632a2.817,2.817,0,0,0,1.351,2.377L86.87,91.137a2.785,2.785,0,0,0,2.755,0L112.37,78.009a2.7,2.7,0,0,0,1.35-2.377V49.323a2.815,2.815,0,0,0-1.35-2.377L89.625,33.818a2.788,2.788,0,0,0-2.755,0" fill="none"/></clipPath><linearGradient id="d" x1="-0.435" y1="1.279" x2="-0.424" y2="1.279" gradientUnits="objectBoundingBox"><stop offset="0" stop-color="#41873f"/><stop offset="0.329" stop-color="#418b3d"/><stop offset="0.635" stop-color="#419637"/><stop offset="0.932" stop-color="#3fa92d"/><stop offset="1" stop-color="#3fae2a"/></linearGradient></defs><g clip-path="url(#a)"><g clip-path="url(#a)"><path d="M118.2,146.349a4.742,4.742,0,0,1-2.269-.594l-7.185-4.268c-1.08-.594-.54-.81-.216-.918a13.108,13.108,0,0,0,3.241-1.458.5.5,0,0,1,.541.053l5.51,3.3a.686.686,0,0,0,.648,0l21.556-12.48a.62.62,0,0,0,.324-.594v-24.9a.621.621,0,0,0-.324-.6L118.473,91.462a.681.681,0,0,0-.648,0L96.27,103.887a.678.678,0,0,0-.325.594v24.9a.678.678,0,0,0,.325.594l5.889,3.4c3.187,1.62,5.186-.271,5.186-2.161V106.642a.657.657,0,0,1,.648-.648h2.755a.657.657,0,0,1,.648.648v24.581c0,4.267-2.323,6.753-6.374,6.753-1.243,0-2.215,0-4.971-1.351l-5.672-3.241a4.558,4.558,0,0,1-2.269-3.944v-24.9a4.558,4.558,0,0,1,2.269-3.943l21.555-12.48a4.824,4.824,0,0,1,4.538,0l21.555,12.48a4.559,4.559,0,0,1,2.27,3.943v24.9a4.559,4.559,0,0,1-2.27,3.944l-21.555,12.479A5.528,5.528,0,0,1,118.2,146.349Zm6.645-17.125c-9.454,0-11.4-4.322-11.4-8a.657.657,0,0,1,.649-.649h2.809a.555.555,0,0,1,.594.541c.432,2.863,1.675,4.267,7.4,4.267,4.538,0,6.483-1.026,6.483-3.457,0-1.4-.54-2.431-7.617-3.133-5.889-.595-9.562-1.891-9.562-6.591,0-4.376,3.674-6.97,9.832-6.97,6.915,0,10.318,2.378,10.751,7.563a.872.872,0,0,1-.162.487.671.671,0,0,1-.433.216h-2.809a.633.633,0,0,1-.594-.486c-.648-2.971-2.323-3.944-6.753-3.944-4.97,0-5.565,1.729-5.565,3.025,0,1.567.7,2.053,7.4,2.918,6.645.864,9.779,2.107,9.779,6.752-.054,4.755-3.944,7.456-10.805,7.456" fill="#539e43"/><path d="M51.322,48.945a2.749,2.749,0,0,0-1.4-2.377L27.012,33.386a3.334,3.334,0,0,0-1.243-.378h-.216a2.575,2.575,0,0,0-1.243.378L1.4,46.568A2.747,2.747,0,0,0,0,48.945L.054,84.384a1.343,1.343,0,0,0,.7,1.189,1.227,1.227,0,0,0,1.351,0l13.614-7.779a2.751,2.751,0,0,0,1.4-2.377V58.831a2.748,2.748,0,0,1,1.4-2.377L24.31,53.1a2.623,2.623,0,0,1,1.405-.379,2.326,2.326,0,0,1,1.351.379l5.78,3.349a2.749,2.749,0,0,1,1.4,2.377V75.417a2.75,2.75,0,0,0,1.4,2.377l13.614,7.779a1.32,1.32,0,0,0,1.4,0,1.343,1.343,0,0,0,.7-1.189ZM161.422.162a1.482,1.482,0,0,0-1.351,0,1.407,1.407,0,0,0-.7,1.188V36.466a.972.972,0,0,1-1.458.864l-5.727-3.3a2.78,2.78,0,0,0-2.755,0L126.523,47.27a2.748,2.748,0,0,0-1.405,2.377V76.064a2.748,2.748,0,0,0,1.405,2.378l22.906,13.236a2.785,2.785,0,0,0,2.755,0L175.09,78.442a2.75,2.75,0,0,0,1.4-2.378V10.21a2.773,2.773,0,0,0-1.4-2.431Zm-2.107,67.2a.62.62,0,0,1-.324.594L151.158,72.5a.8.8,0,0,1-.7,0l-7.833-4.538a.678.678,0,0,1-.324-.594V58.291a.62.62,0,0,1,.324-.594l7.833-4.538a.8.8,0,0,1,.7,0l7.833,4.538a.676.676,0,0,1,.324.594Zm78.334-9.292A2.7,2.7,0,0,0,239,55.7V49.269a2.813,2.813,0,0,0-1.351-2.377L214.9,33.711a2.785,2.785,0,0,0-2.755,0L189.244,46.946a2.749,2.749,0,0,0-1.4,2.377V75.741a2.747,2.747,0,0,0,1.4,2.376l22.744,12.966a2.684,2.684,0,0,0,2.7,0l13.776-7.671a1.357,1.357,0,0,0,0-2.377L205.451,67.8a1.406,1.406,0,0,1-.7-1.188V58.346a1.343,1.343,0,0,1,.7-1.189l7.185-4.106a1.32,1.32,0,0,1,1.4,0l7.185,4.106a1.408,1.408,0,0,1,.7,1.189v6.482a1.343,1.343,0,0,0,.7,1.189,1.318,1.318,0,0,0,1.4,0Z" fill="#fff"/><path d="M213.177,56.832a.49.49,0,0,1,.54,0l4.376,2.539a.567.567,0,0,1,.27.486v5.078a.566.566,0,0,1-.27.486l-4.376,2.54a.494.494,0,0,1-.54,0l-4.376-2.54a.566.566,0,0,1-.27-.486V59.857a.567.567,0,0,1,.27-.486Z" fill="#539e43"/></g><g clip-path="url(#c)"><path d="M74.889,8.741,41.041,77.791l60.565,38.545,33.848-69.05Z" fill="url(#d)"/></g><g clip-path="url(#a)"><image width="52" height="59" transform="translate(62 33.349)" xlink:href="node-image.png"/><image width="53" height="64" transform="translate(62 28.349)" xlink:href="node-image2.png"/></g></g></svg>