<svg xmlns="http://www.w3.org/2000/svg" width="190.194" height="100" viewBox="0 0 190.194 100"><g transform="translate(-31 -137.7)"><path d="M126.1,142.687c50.93,0,90.11,21.471,90.11,45.013s-39.222,45.013-90.11,45.013c-50.93,0-90.11-21.471-90.11-45.013s39.222-45.013,90.11-45.013m0-4.987c-52.494,0-95.1,22.358-95.1,50s42.6,50,95.1,50,95.1-22.358,95.1-50S178.591,137.7,126.1,137.7ZM95.835,183.685C93.468,195.73,85.184,194.462,75,194.462L79.056,173.5c11.327,0,18.977-1.226,16.779,10.186ZM59.952,215.722h10.9l2.578-13.314c12.215,0,19.78.888,26.8-5.664,7.777-7.143,9.763-19.822,4.269-26.162-2.874-3.339-7.523-4.945-13.821-4.945H69.673Zm55.2-63.483h10.862l-2.578,13.314c9.341,0,18.047-.676,22.232,3.17,4.4,4.057,2.282,9.214-2.451,33.6H132.226c4.565-23.584,5.452-25.571,3.762-27.346-1.606-1.733-5.241-1.352-14.074-1.352l-5.579,28.7H105.472l9.679-50.085Zm65.934,31.445c-2.367,12.215-10.9,10.778-20.837,10.778l4.057-20.964c11.369,0,18.977-1.226,16.779,10.186Zm-35.926,32.037h10.947l2.578-13.314c12.849,0,19.949.761,26.8-5.664,7.777-7.143,9.763-19.822,4.269-26.162-2.874-3.339-7.523-4.945-13.821-4.945H154.922Z" fill="#fff"/></g></svg>