<svg xmlns="http://www.w3.org/2000/svg" width="130" height="115.663" viewBox="0 0 130 115.663"><path d="M106.886,37.489q-2.023-.7-4.185-1.319.355-1.448.647-2.854c3.168-15.377,1.1-27.765-5.976-31.844C90.59-2.439,79.5,1.639,68.3,11.387q-1.616,1.406-3.237,2.97-1.079-1.032-2.154-1.989C51.167,1.944,39.4-2.448,32.334,1.642,25.558,5.564,23.552,17.21,26.4,31.783q.413,2.111.961,4.307c-1.665.473-3.273.977-4.811,1.513C8.79,42.4,0,49.921,0,57.722,0,65.779,9.436,73.86,23.772,78.759q1.7.58,3.515,1.1Q26.7,82.23,26.266,84.5c-2.719,14.32-.6,25.691,6.162,29.588,6.98,4.025,18.694-.112,30.1-10.083q1.352-1.182,2.713-2.5,1.762,1.7,3.514,3.206c11.048,9.507,21.96,13.347,28.711,9.438,6.973-4.037,9.239-16.251,6.3-31.113q-.337-1.7-.78-3.475,1.234-.365,2.418-.755c14.9-4.938,24.6-12.92,24.6-21.085,0-7.829-9.073-15.4-23.114-20.233Zm-3.232,36.047q-1.066.353-2.183.683a130.261,130.261,0,0,0-6.583-16.469,130.232,130.232,0,0,0,6.327-16.228q1.995.577,3.864,1.219c12.03,4.141,19.368,10.264,19.368,14.982,0,5.026-7.925,11.549-20.793,15.813Zm-5.339,10.58a47.026,47.026,0,0,1,.625,17.157c-.774,4.174-2.331,6.956-4.257,8.07-4.1,2.371-12.858-.711-22.307-8.842q-1.625-1.4-3.269-2.981A130.469,130.469,0,0,0,80,83.684,129.625,129.625,0,0,0,97.611,80.97q.4,1.6.7,3.145ZM44.32,108.933c-4,1.414-7.191,1.454-9.118.343-4.1-2.365-5.805-11.495-3.48-23.741q.4-2.1.949-4.316A130.606,130.606,0,0,0,50.19,83.755a135.194,135.194,0,0,0,11.16,13.787q-1.244,1.2-2.477,2.281a47.035,47.035,0,0,1-14.553,9.11ZM25.568,73.5a47.035,47.035,0,0,1-15.162-8.055c-3.224-2.761-4.852-5.5-4.852-7.727,0-4.734,7.057-10.772,18.828-14.875,1.428-.5,2.923-.967,4.475-1.408a133.117,133.117,0,0,0,6.336,16.419,135.3,135.3,0,0,0-6.416,16.652q-1.659-.477-3.209-1Zm6.286-42.788c-2.443-12.486-.821-21.9,3.262-24.268,4.349-2.518,13.966,1.072,24.1,10.072q.972.863,1.951,1.8a133.037,133.037,0,0,0-11.074,13.7,135.731,135.731,0,0,0-17.347,2.7q-.507-2.041-.894-4.005ZM87.93,44.563q-1.93-3.333-3.953-6.5c4.148.524,8.122,1.22,11.854,2.072A118.621,118.621,0,0,1,91.67,51.328Q89.9,47.97,87.93,44.563ZM65.062,22.29a118.715,118.715,0,0,1,7.65,9.235Q68.9,31.345,65,31.343q-3.856,0-7.653.179c2.526-3.331,5.113-6.425,7.715-9.232ZM42.048,44.6q-1.927,3.342-3.67,6.722c-1.617-3.835-3-7.607-4.131-11.249,3.709-.83,7.664-1.509,11.786-2.023q-2.048,3.194-3.985,6.549Zm4.1,33.187a118.207,118.207,0,0,1-11.981-1.926c1.148-3.707,2.562-7.559,4.214-11.477q1.746,3.371,3.685,6.727h0q1.975,3.412,4.082,6.676ZM65.216,93.546c-2.632-2.84-5.258-5.981-7.822-9.361q3.734.146,7.606.148,3.975,0,7.847-.174a118.129,118.129,0,0,1-7.632,9.387Zm26.507-29.36a117.817,117.817,0,0,1,4.365,11.436,117.99,117.99,0,0,1-12.127,2.067q2.024-3.208,3.991-6.615,1.986-3.445,3.771-6.888ZM83.141,68.3c-2.032,3.524-4.118,6.887-6.236,10.062-3.858.276-7.843.418-11.9.418-4.046,0-7.981-.126-11.77-.372-2.2-3.217-4.335-6.59-6.354-10.078h0c-2.014-3.478-3.867-6.986-5.547-10.474,1.679-3.5,3.528-7.008,5.53-10.48h0c2.008-3.481,4.121-6.839,6.3-10.035C57.029,37.049,60.993,36.9,65,36.9h0c4.025,0,7.994.154,11.859.448,2.15,3.173,4.248,6.519,6.264,10,2.038,3.521,3.911,7.009,5.6,10.431-1.688,3.48-3.557,7-5.586,10.523ZM94.6,6.283c4.353,2.51,6.046,12.635,3.311,25.912q-.262,1.271-.584,2.584a133.034,133.034,0,0,0-17.382-2.746A130.458,130.458,0,0,0,68.953,18.318q1.5-1.441,2.99-2.742c9.6-8.352,18.568-11.65,22.655-9.293ZM65,46.113A11.609,11.609,0,1,1,53.391,57.722,11.609,11.609,0,0,1,65,46.113Z" fill="#00d8ff"/></svg>