<?xml version="1.0" encoding="utf-8"?>
<!-- Generator: Adobe Illustrator 26.0.3, SVG Export Plug-In . SVG Version: 6.00 Build 0)  -->
<svg version="1.1" id="Layer_1" xmlns="http://www.w3.org/2000/svg" xmlns:xlink="http://www.w3.org/1999/xlink" x="0px" y="0px"
	 viewBox="0 0 1962 61" style="enable-background:new 0 0 1962 61;" xml:space="preserve">
<style type="text/css">
	.st0{fill:none;}
	.st1{fill:#252729;}
</style>
<path class="st0" d="M1962,30.9h-0.2c-3.6,0-3.6-12.9-7.2-12.9s-3.6-5.4-7.2-5.4s-3.6,12.4-7.2,12.4s-3.6-6.8-7.2-6.8s-3.6-1-7.2-1
	s-3.6,2.8-7.2,2.8s-3.6,2.2-7.2,2.2s-3.6-6.1-7.2-6.1s-3.6,8.6-7.2,8.6s-3.6,6.8-7.2,6.8s-3.6-14.4-7.2-14.4s-3.6,12.4-7.2,12.4
	s-3.6-3.3-7.2-3.3s-3.6,2.4-7.2,2.4s-3.6-12.2-7.2-12.2s-3.6-1.5-7.2-1.5s-3.6,7.4-7.2,7.4s-3.6-0.7-7.2-0.7s-3.6,5.8-7.2,5.8
	s-3.6-9.7-7.2-9.7s-3.6,8.1-7.2,8.1s-3.6-0.1-7.2-0.1s-3.6-12-7.2-12s-3.6,16.4-7.2,16.4s-3.6-2.7-7.2-2.7s-3.6-3.4-7.2-3.4
	s-3.6-1.4-7.2-1.4s-3.6-4.9-7.2-4.9s-3.6-3.1-7.2-3.1s-3.6,13.7-7.2,13.7s-3.6-5.3-7.2-5.3s-3.6,1.1-7.2,1.1s-3.6,3.4-7.2,3.4
	s-3.6-8.6-7.2-8.6s-3.6,12.1-7.2,12.1s-3.6-7.7-7.2-7.7s-3.6,8.1-7.2,8.1s-3.6-5.4-7.2-5.4s-3.6-3.5-7.2-3.5s-3.6-6.2-7.2-6.2
	s-3.6,9.6-7.2,9.6s-3.6-6.4-7.2-6.4s-3.6,0.8-7.2,0.8s-3.6,4.4-7.2,4.4s-3.6-3.6-7.2-3.6s-3.6,2.1-7.2,2.1s-3.6,4.3-7.2,4.3
	s-3.6-6.6-7.2-6.6s-3.6-8.3-7.2-8.3s-3.6,11.5-7.2,11.5s-3.6-1.8-7.2-1.8s-3.6-4.2-7.2-4.2s-3.6,7.1-7.2,7.1s-3.6-8.4-7.2-8.4
	s-3.6,10.8-7.2,10.8s-3.6-11.4-7.2-11.4s-3.6-2.5-7.2-2.5s-3.6,5.9-7.2,5.9s-3.6-4.2-7.2-4.2s-3.6,13.4-7.2,13.4s-3.6-14.9-7.2-14.9
	s-3.6,9.8-7.2,9.8s-3.6-2.7-7.2-2.7s-3.6-1-7.2-1s-3.6,9.1-7.2,9.1s-3.6-14.6-7.2-14.6s-3.6,2-7.2,2s-3.6,14.7-7.2,14.7
	s-3.6-6.7-7.2-6.7s-3.6,1.5-7.2,1.5s-3.6-12.1-7.2-12.1s-3.6,11.7-7.2,11.7s-3.6,4.1-7.2,4.1s-3.6-1.8-7.2-1.8s-3.6-3.3-7.2-3.3
	s-3.6-11.1-7.2-11.1s-3.6,3.6-7.2,3.6s-3.6,4.5-7.2,4.5s-3.6-0.6-7.2-0.6s-3.6,3.8-7.2,3.8s-3.6-11.3-7.2-11.3s-3.6-0.2-7.2-0.2
	s-3.6,9.2-7.2,9.2s-3.6-5.6-7.2-5.6s-3.6,0.7-7.2,0.7s-3.6,13.3-7.2,13.3s-3.6-18.2-7.2-18.2s-3.6,12.3-7.2,12.3s-3.6,2.3-7.2,2.3
	s-3.6-3.8-7.2-3.8s-3.6-2.9-7.2-2.9s-3.6-4.8-7.2-4.8s-3.6,1.1-7.2,1.1s-3.6,3.2-7.2,3.2s-3.6-4.3-7.2-4.3s-3.6,3.8-7.2,3.8
	s-3.6-2-7.2-2s-3.6,7.4-7.1,7.4s-3.6,0.2-7.2,0.2s-3.6-7.4-7.2-7.4s-3.6,5.2-7.2,5.2s-3.6,3-7.2,3s-3.6,1.2-7.2,1.2s-3.6,2-7.2,2
	s-3.6-0.6-7.2-0.6s-3.6,1.2-7.2,1.2s-3.6,0.2-7.2,0.2s-3.6-5-7.2-5s-3.6-3.3-7.2-3.3s-3.6,5.3-7.2,5.3s-3.6-2.7-7.2-2.7
	s-3.6-4.7-7.2-4.7s-3.6,0.5-7.2,0.5s-3.6,8.1-7.2,8.1s-3.6-1.5-7.2-1.5s-3.6-1.8-7.2-1.8s-3.6-9.4-7.2-9.4s-3.6,0.7-7.2,0.7
	s-3.6,0.4-7.2,0.4s-3.6,7.2-7.2,7.2s-3.6-10.7-7.2-10.7s-3.6,18.2-7.2,18.2s-3.6-10-7.2-10s-3.6-8-7.2-8s-3.6,12.9-7.2,12.9
	s-3.6,2.4-7.2,2.4s-3.6-6.2-7.2-6.2s-3.6,3.8-7.2,3.8s-3.6-0.6-7.2-0.6s-3.6,0.6-7.2,0.6s-3.6,3.2-7.2,3.2s-3.6-1.7-7.2-1.7
	s-3.6-3.3-7.2-3.3s-3.6,4.7-7.2,4.7s-3.6,1.9-7.2,1.9s-3.6-16.7-7.2-16.7s-3.6,0.5-7.2,0.5s-3.6,9-7.2,9s-3.6-2.2-7.2-2.2
	s-3.6,2-7.2,2s-3.6-9.9-7.2-9.9s-3.6,7-7.2,7s-3.6,0.8-7.2,0.8s-3.6-2-7.2-2s-3.6,7.8-7.2,7.8s-3.6-7.4-7.2-7.4s-3.6-0.5-7.2-0.5
	s-3.6,6.8-7.2,6.8s-3.6-4.8-7.2-4.8s-3.6-8.5-7.2-8.5s-3.6,11.8-7.2,11.8s-3.6-4.3-7.2-4.3s-3.6,10-7.2,10s-3.6-3.7-7.2-3.7
	s-3.6-2.2-7.2-2.2s-3.6,5.6-7.2,5.6s-3.6-13.9-7.2-13.9s-3.6,4.4-7.2,4.4s-3.6-6.7-7.2-6.7s-3.6,13.6-7.2,13.6s-3.6,2.3-7.2,2.3
	s-3.6-8.9-7.2-8.9s-3.6,5.2-7.2,5.2s-3.6-2.6-7.2-2.6s-3.6-5.4-7.2-5.4s-3.6,0.6-7.2,0.6s-3.6,9.8-7.2,9.8s-3.6,0.6-7.2,0.6
	S749.6,20,746,20s-3.6-2.5-7.2-2.5s-3.6,11.6-7.2,11.6s-3.6-4.2-7.2-4.2s-3.6-4.4-7.2-4.4s-3.6,0.7-7.2,0.7s-3.6,10.3-7.2,10.3
	s-3.6-8.3-7.2-8.3s-3.6,7.9-7.2,7.9s-3.6-7.4-7.2-7.4s-3.6,5.2-7.2,5.2s-3.6-10.6-7.2-10.6s-3.6,11.5-7.2,11.5s-3.6-7.4-7.2-7.4
	s-3.6-3.2-7.2-3.2s-3.6,7-7.2,7s-3.6-0.8-7.2-0.8s-3.6-4.4-7.2-4.4s-3.6,3.4-7.2,3.4s-3.6,6.7-7.2,6.7s-3.6-2.3-7.2-2.3
	s-3.6-6-7.2-6s-3.6-6.7-7.2-6.7s-3.6-2.4-7.2-2.4s-3.6,12.4-7.2,12.4s-3.6-6.9-7.2-6.9s-3.6-2-7.2-2s-3.6,0.3-7.2,0.3
	s-3.6,4.2-7.2,4.2s-3.6-8.6-7.2-8.6s-3.6,4.6-7.2,4.6s-3.6,10.5-7.2,10.5s-3.6-9.4-7.2-9.4s-3.6,6.4-7.2,6.4s-3.6,4.2-7.2,4.2
	s-3.6-10.9-7.2-10.9s-3.6,3.6-7.2,3.6s-3.6,3.2-7.2,3.2s-3.6,4.8-7.2,4.8S469,13,465.5,13s-3.6,14.6-7.2,14.6S454.6,25,451,25
	s-3.6,6.2-7.2,6.2s-3.6-1.8-7.2-1.8s-3.6-3.8-7.2-3.8s-3.6-1-7.2-1s-3.6-8.9-7.2-8.9s-3.6,1.7-7.2,1.7s-3.6,3.6-7.2,3.6
	s-3.6-7.2-7.2-7.2s-3.6,6.5-7.2,6.5s-3.6,11.1-7.2,11.1s-3.6-10.3-7.2-10.3s-3.6,1.2-7.2,1.2s-3.6-9.2-7.2-9.2s-3.6,3.6-7.2,3.6
	s-3.6,14-7.2,14s-3.6-9.8-7.2-9.8s-3.6,9.1-7.2,9.1s-3.6-13.1-7.2-13.1s-3.6,9.5-7.2,9.5s-3.6,4.4-7.2,4.4s-3.6-17.3-7.2-17.3
	s-3.6,14.9-7.2,14.9s-3.6-3.2-7.2-3.2s-3.6-12.2-7.2-12.2S274.7,25,271.1,25s-3.6,1.1-7.2,1.1s-3.6,2.4-7.2,2.4s-3.6,0.6-7.2,0.6
	s-3.6-0.9-7.2-0.9s-3.6,3.2-7.2,3.2S231.5,14,227.9,14s-3.6,3.4-7.2,3.4s-3.6,9.8-7.2,9.8s-3.6-2.7-7.2-2.7s-3.6-1.6-7.2-1.6
	s-3.6-6.1-7.2-6.1s-3.6,8.5-7.2,8.5s-3.6,4.1-7.2,4.1s-3.6-8.6-7.2-8.6s-3.6,9.8-7.2,9.8s-3.6-15-7.2-15s-3.6,4.2-7.2,4.2
	s-3.6-3.6-7.2-3.6s-3.6,6.2-7.2,6.2s-3.6-0.8-7.2-0.8s-3.6-8.6-7.2-8.6s-3.6,7.8-7.2,7.8s-3.6-8-7.2-8s-3.6,6.5-7.2,6.5
	s-3.6,1-7.2,1s-3.6,11-7.2,11s-3.6-2.2-7.2-2.2S73.1,24,69.5,24s-3.6,4.2-7.2,4.2s-3.6-13.8-7.2-13.8S51.5,29,47.9,29
	s-3.6-6.7-7.2-6.7S37.1,24,33.5,24s-3.6-3.5-7.2-3.5s-3.6,5.3-7.2,5.3s-3.6,5.4-7.2,5.4s-3.6-2.4-7.2-2.4c-2.5,0-3.3-1.4-4.7-2.2V61
	h1962V30.9z"/>
<path class="st1" d="M0,0v26.6c1.4,0.8,2.2,2.2,4.7,2.2c3.6,0,3.6,2.4,7.2,2.4c3.6,0,3.6-5.4,7.2-5.4c3.6,0,3.6-5.3,7.2-5.3
	c3.6,0,3.6,3.5,7.2,3.5c3.6,0,3.6-1.7,7.2-1.7s3.6,6.7,7.2,6.7c3.6,0,3.6-14.6,7.2-14.6c3.6,0,3.6,13.9,7.2,13.9
	c3.6,0,3.6-4.2,7.2-4.2c3.6,0,3.6,5.1,7.2,5.1s3.6,2.2,7.2,2.2c3.6,0,3.6-11,7.2-11c3.6,0,3.6-1,7.2-1c3.6,0,3.6-6.5,7.2-6.5
	s3.6,8,7.2,8c3.6,0,3.6-7.8,7.2-7.8c3.6,0,3.6,8.6,7.2,8.6c3.6,0,3.6,0.8,7.2,0.8c3.6,0,3.6-6.2,7.2-6.2s3.6,3.6,7.2,3.6
	c3.6,0,3.6-4.2,7.2-4.2c3.6,0,3.6,15,7.2,15s3.6-9.8,7.2-9.8c3.6,0,3.6,8.6,7.2,8.6s3.6-4.1,7.2-4.1c3.6,0,3.6-8.5,7.2-8.5
	c3.6,0,3.6,6.2,7.2,6.2c3.6,0,3.6,1.6,7.2,1.6s3.6,2.7,7.2,2.7c3.6,0,3.6-9.8,7.2-9.8c3.6,0,3.6-3.5,7.2-3.5s3.6,17.3,7.2,17.3
	s3.6-3.2,7.2-3.2c3.6,0,3.6,0.9,7.2,0.9c3.6,0,3.6-0.6,7.2-0.6s3.6-2.4,7.2-2.4c3.6,0,3.6-1.1,7.2-1.1c3.6,0,3.6-12.1,7.2-12.1
	c3.6,0,3.6,12.2,7.2,12.2c3.6,0,3.6,3.2,7.2,3.2c3.6,0,3.6-14.9,7.2-14.9c3.6,0,3.6,17.3,7.2,17.3c3.6,0,3.6-4.5,7.2-4.5
	c3.6,0,3.6-9.5,7.2-9.5c3.6,0,3.6,13.1,7.2,13.1c3.6,0,3.6-9.1,7.2-9.1c3.6,0,3.6,9.8,7.2,9.8c3.6,0,3.6-14,7.2-14
	c3.6,0,3.6-3.6,7.2-3.6c3.6,0,3.6,9.2,7.2,9.2c3.6,0,3.6-1.2,7.2-1.2c3.6,0,3.6,10.3,7.2,10.3c3.6,0,3.6-11.1,7.2-11.1
	c3.6,0,3.6-6.5,7.2-6.5c3.6,0,3.6,7.2,7.2,7.2c3.6,0,3.6-3.6,7.2-3.6c3.6,0,3.6-1.7,7.2-1.7c3.6,0,3.6,8.9,7.2,8.9
	c3.6,0,3.6,1,7.2,1c3.6,0,3.6,3.8,7.2,3.8c3.6,0,3.6,1.8,7.2,1.8c3.6,0,3.6-6.2,7.2-6.2c3.6,0,3.6,2.6,7.2,2.6s3.6-14.6,7.2-14.6
	s3.6,17.3,7.2,17.3c3.6,0,3.6-4.8,7.2-4.8c3.6,0,3.6-3.2,7.2-3.2c3.6,0,3.6-3.6,7.2-3.6c3.6,0,3.6,10.9,7.2,10.9
	c3.6,0,3.6-4.2,7.2-4.2s3.6-6.4,7.2-6.4s3.6,9.4,7.2,9.4s3.6-10.4,7.2-10.4s3.6-4.6,7.2-4.6s3.6,8.6,7.2,8.6s3.6-4.2,7.2-4.2
	s3.6-0.3,7.2-0.3s3.6,2,7.2,2s3.6,6.9,7.2,6.9s3.6-12.4,7.2-12.4s3.6,2.4,7.2,2.4s3.6,6.7,7.2,6.7s3.6,6,7.2,6s3.6,2.3,7.2,2.3
	s3.6-6.6,7.2-6.6s3.6-3.5,7.2-3.5s3.6,4.4,7.2,4.4s3.6,0.8,7.2,0.8s3.6-7,7.2-7s3.6,3.2,7.2,3.2s3.6,7.4,7.2,7.4s3.6-11.5,7.2-11.5
	s3.6,10.6,7.2,10.6s3.6-5.2,7.2-5.2s3.6,7.4,7.2,7.4s3.6-7.9,7.2-7.9s3.6,8.3,7.2,8.3s3.6-10.3,7.2-10.3s3.6-0.7,7.2-0.7
	s3.6,4.4,7.2,4.4s3.6,4.2,7.2,4.2s3.6-11.6,7.2-11.6s3.6,2.5,7.2,2.5s3.6,8.8,7.2,8.8s3.6-0.5,7.2-0.5s3.6-9.8,7.2-9.8
	s3.6-0.6,7.2-0.6s3.6,5.4,7.2,5.4s3.6,2.6,7.2,2.6s3.6-5.2,7.2-5.2s3.6,8.9,7.2,8.9s3.6-2.3,7.2-2.3s3.6-13.6,7.2-13.6
	s3.6,6.7,7.2,6.7s3.6-4.4,7.2-4.4s3.6,13.9,7.2,13.9s3.6-5.6,7.2-5.6s3.6,2.2,7.2,2.2s3.6,3.6,7.2,3.6s3.6-10,7.2-10
	s3.6,4.3,7.2,4.3s3.6-11.8,7.2-11.8s3.6,8.5,7.2,8.5s3.6,4.8,7.2,4.8s3.6-6.8,7.2-6.8s3.6,0.5,7.2,0.5s3.6,7.4,7.2,7.4
	s3.6-7.8,7.2-7.8s3.6,2,7.2,2s3.6-0.8,7.2-0.8s3.6-7,7.2-7s3.6,9.9,7.2,9.9s3.6-2,7.2-2s3.6,2.2,7.2,2.2s3.6-9,7.2-9
	s3.6-0.5,7.2-0.5s3.6,16.6,7.2,16.6s3.6-1.9,7.2-1.9s3.6-4.7,7.2-4.7s3.6,3.3,7.2,3.3s3.6,1.7,7.2,1.7s3.6-3.2,7.2-3.2
	s3.6-0.6,7.2-0.6s3.6,0.6,7.2,0.6s3.6-3.8,7.2-3.8s3.6,6.2,7.2,6.2s3.6-2.4,7.2-2.4s3.6-12.9,7.2-12.9s3.6,8,7.2,8s3.6,10,7.2,10
	s3.6-18.2,7.2-18.2s3.6,10.7,7.2,10.7s3.6-7.2,7.2-7.2s3.6-0.4,7.2-0.4s3.6-0.6,7.2-0.6s3.6,9.4,7.2,9.4s3.6,1.8,7.2,1.8
	s3.6,1.5,7.2,1.5s3.6-8.1,7.2-8.1s3.6-0.5,7.2-0.5s3.6,4.7,7.2,4.7s3.6,2.7,7.2,2.7s3.6-5.3,7.2-5.3s3.6,3.3,7.2,3.3
	s3.6,4.9,7.2,4.9s3.6-0.2,7.2-0.2s3.6-1.2,7.2-1.2s3.6,0.6,7.2,0.6s3.6-2,7.2-2s3.6-1.2,7.2-1.2s3.6-3,7.2-3s3.6-5.1,7.2-5.1
	s3.6,7.4,7.2,7.4s3.6-0.2,7.2-0.2s3.6-7.4,7.2-7.4s3.6,2,7.2,2s3.6-3.8,7.2-3.8s3.6,4.3,7.2,4.3s3.6-3.2,7.2-3.2s3.6-1.1,7.2-1.1
	s3.6,4.8,7.2,4.8s3.6,2.9,7.2,2.9s3.6,3.8,7.2,3.8s3.6-2.3,7.2-2.3s3.6-12.2,7.2-12.2s3.6,18.2,7.2,18.2s3.6-13.3,7.2-13.3
	s3.6-0.7,7.2-0.7s3.6,5.5,7.2,5.5s3.6-9.2,7.2-9.2s3.6,0.2,7.2,0.2s3.6,11.3,7.2,11.3s3.6-3.8,7.2-3.8s3.6,0.6,7.2,0.6
	s3.6-4.5,7.2-4.5s3.6-3.6,7.2-3.6s3.6,11.1,7.2,11.1s3.6,3.3,7.2,3.3s3.6,1.8,7.2,1.8s3.6-4.1,7.2-4.1s3.6-11.6,7.2-11.6
	s3.6,12.1,7.2,12.1s3.6-1.5,7.2-1.5s3.6,6.7,7.2,6.7s3.6-14.7,7.2-14.7s3.6-2,7.2-2s3.6,14.6,7.2,14.6s3.6-9.1,7.2-9.1s3.6,1,7.2,1
	s3.6,2.7,7.2,2.7s3.6-9.8,7.2-9.8s3.6,14.9,7.2,14.9s3.6-13.5,7.2-13.5s3.6,4.2,7.2,4.2s3.6-5.9,7.2-5.9s3.6,2.5,7.2,2.5
	s3.6,11.4,7.2,11.4s3.6-10.8,7.2-10.8s3.6,8.4,7.2,8.4s3.6-7.1,7.2-7.1s3.6,4.2,7.2,4.2s3.6,1.8,7.2,1.8s3.6-11.5,7.2-11.5
	s3.6,8.3,7.2,8.3s3.6,6.6,7.2,6.6s3.6-4.3,7.2-4.3s3.6-2.1,7.2-2.1s3.6,3.5,7.2,3.5s3.6-4.4,7.2-4.4s3.6-0.8,7.2-0.8
	s3.6,6.5,7.2,6.5s3.6-9.6,7.2-9.6s3.6,6.2,7.2,6.2s3.6,3.5,7.2,3.5s3.6,5.4,7.2,5.4s3.6-8.1,7.2-8.1s3.6,7.7,7.2,7.7
	s3.6-12.1,7.2-12.1s3.6,8.6,7.2,8.6s3.6-3.4,7.2-3.4s3.6-1.1,7.2-1.1s3.6,5.3,7.2,5.3s3.6-13.7,7.2-13.7s3.6,3.1,7.2,3.1
	s3.6,4.9,7.2,4.9s3.6,1.5,7.2,1.5s3.6,3.4,7.2,3.4s3.6,2.7,7.2,2.7s3.6-16.4,7.2-16.4s3.6,12,7.2,12s3.6,0.1,7.2,0.1
	s3.6-8.1,7.2-8.1s3.6,9.7,7.2,9.7s3.6-5.8,7.2-5.8s3.6,0.7,7.2,0.7s3.6-7.4,7.2-7.4s3.6,1.5,7.2,1.5s3.6,12.2,7.2,12.2
	s3.6-2.4,7.2-2.4s3.6,3.3,7.2,3.3s3.6-12.5,7.2-12.5s3.6,14.4,7.2,14.4s3.6-6.8,7.2-6.8s3.6-8.6,7.2-8.6s3.6,6.1,7.2,6.1
	s3.6-2.1,7.2-2.1s3.6-2.8,7.2-2.8s3.6,1,7.2,1s3.6,6.8,7.2,6.8s3.6-12.4,7.2-12.4s3.6,5.4,7.2,5.4s3.6,12.9,7.2,12.9h0.2V0H0z"/>
</svg>
