<?xml version="1.0" encoding="iso-8859-1"?>
<!-- Generator: Adobe Illustrator 19.0.0, SVG Export Plug-In . SVG Version: 6.00 Build 0)  -->
<svg version="1.1" id="Layer_1" xmlns="http://www.w3.org/2000/svg" xmlns:xlink="http://www.w3.org/1999/xlink" x="0px" y="0px"
	 viewBox="0 0 512 512" style="enable-background:new 0 0 512 512;" xml:space="preserve">
<g>
	<polygon style="fill:#32BEA6;" points="63.152,243.968 51.088,205.024 39.024,243.968 0,243.968 31.584,268.032 19.52,306.976 
		51.088,282.896 82.672,306.976 70.608,268.032 102.176,243.968 	"/>
	<polygon style="fill:#32BEA6;" points="165.616,243.968 153.552,205.024 141.488,243.968 102.448,243.968 134.032,268.032 
		121.968,306.976 153.552,282.896 185.12,306.976 173.056,268.032 204.64,243.968 	"/>
	<polygon style="fill:#32BEA6;" points="268.064,243.968 256,205.024 243.936,243.968 204.912,243.968 236.48,268.032 
		224.416,306.976 256,282.896 287.584,306.976 275.52,268.032 307.088,243.968 	"/>
	<polygon style="fill:#32BEA6;" points="370.512,243.968 358.448,205.024 346.384,243.968 307.36,243.968 338.944,268.032 
		326.88,306.976 358.448,282.896 390.032,306.976 377.968,268.032 409.552,243.968 	"/>
	<polygon style="fill:#32BEA6;" points="460.912,205.024 448.848,243.968 409.824,243.968 441.392,268.032 429.328,306.976 
		460.912,282.896 492.48,306.976 480.416,268.032 512,243.968 472.976,243.968 	"/>
</g>
<g>
</g>
<g>
</g>
<g>
</g>
<g>
</g>
<g>
</g>
<g>
</g>
<g>
</g>
<g>
</g>
<g>
</g>
<g>
</g>
<g>
</g>
<g>
</g>
<g>
</g>
<g>
</g>
<g>
</g>
</svg>
