<svg xmlns="http://www.w3.org/2000/svg" xmlns:xlink="http://www.w3.org/1999/xlink" width="61.091" height="50" viewBox="0 0 61.091 50"><defs><clipPath id="a"><rect width="61.091" height="50" fill="#fff"/></clipPath></defs><g clip-path="url(#a)"><path d="M61.09,6.677c-3.842.177-3.757.163-4.192.2l2.276-6.5s-7.1,2.614-8.9,3.081A14.256,14.256,0,0,0,33.481,2.108a11.625,11.625,0,0,0-5.587,11.954A31.009,31.009,0,0,1,7.8,2.752L6.12.728,4.86,3.041a13.976,13.976,0,0,0-1.488,9.408,13.491,13.491,0,0,0,1.309,3.673l-1.445-.561-.173,2.416A12.889,12.889,0,0,0,5.25,25.639a13.737,13.737,0,0,0,1.7,2.1L6.2,27.624l.912,2.768a13.455,13.455,0,0,0,6.917,8.015C10.808,39.776,8.2,40.649,3.919,42.058L0,43.347l3.62,1.979a38.02,38.02,0,0,0,11.074,4.03c10.712,1.68,22.771.312,30.889-7C52.421,36.2,54.665,27.438,54.2,18.322a5.691,5.691,0,0,1,1.064-3.708c1.515-2.024,5.819-7.923,5.827-7.937M52.4,12.47A9.274,9.274,0,0,0,50.627,18.5C51.1,27.7,48.6,34.831,43.189,39.7c-6.313,5.687-16.5,7.919-27.94,6.124a27.687,27.687,0,0,1-5.986-1.779,95.006,95.006,0,0,0,10.843-4.457l6.252-2.959-6.9-.441A9.768,9.768,0,0,1,11.7,31.771a12.367,12.367,0,0,0,2.629-.438L20.915,29.5l-6.639-1.625a9.9,9.9,0,0,1-6.04-4.2,10.138,10.138,0,0,1-1.308-2.888,16.53,16.53,0,0,0,2.693.43l6.145.607-4.868-3.8a10.249,10.249,0,0,1-3.884-10.8c10.948,11.354,23.8,10.5,25.1,10.8a21.1,21.1,0,0,0-.367-3.036c-1.657-5.858,1.973-8.832,3.611-9.839A10.69,10.69,0,0,1,47.966,6.2a3.206,3.206,0,0,0,2.94.787,24.479,24.479,0,0,0,2.421-.737l-1.543,4.409h1.971c-.373.5-.818,1.1-1.354,1.812" fill="#fff"/></g></svg>