<svg xmlns="http://www.w3.org/2000/svg" xmlns:xlink="http://www.w3.org/1999/xlink" width="200" height="196" viewBox="0 0 200 196"><defs><clipPath id="a"><rect width="200" height="196" fill="none"/></clipPath></defs><rect width="25.806" height="25.29" transform="translate(41.935 53.742)" fill="#f0bc5e"/><rect width="58.065" height="15.806" transform="translate(112.903 75.871)" fill="#f0bc5e"/><g clip-path="url(#a)"><path d="M35.484,132.774a12.791,12.791,0,0,0-12.9,12.645V170.71h6.452V158.065h12.9V170.71h6.452V145.419a12.791,12.791,0,0,0-12.9-12.645m-6.452,18.968v-6.323a6.453,6.453,0,0,1,12.9,0v6.323Z"/><path d="M67.742,132.774h-12.9V170.71H61.29V158.065h6.452a12.648,12.648,0,1,0,0-25.291m0,18.968H61.29V139.1h6.452a6.324,6.324,0,1,1,0,12.645"/><path d="M87.1,139.1h6.452v25.29H87.1v6.323h19.355v-6.323H100V139.1h6.452v-6.323H87.1Z"/><path d="M183.871,158.333V9.484A9.593,9.593,0,0,0,174.193,0H25.806a9.592,9.592,0,0,0-9.677,9.484v98H22.58v-98a3.2,3.2,0,0,1,3.226-3.162H174.193a3.2,3.2,0,0,1,3.226,3.162V134.311a27.335,27.335,0,0,0-8.238-7.3l-1.725-5.073a30.912,30.912,0,0,0-29.41-20.776h-.381a31.924,31.924,0,0,0-21.093,7.816l-3.838-5.266A37.337,37.337,0,0,0,82.605,88.516c-.656,0-1.309.021-1.96.054V37.935H29.032v56.9H61.713a36.635,36.635,0,0,0-9.915,9.835l-1.912,2.81h-13.5l-2.731,8.029a38.984,38.984,0,0,0-6.492,2.64l-7.728-3.787L7.021,126.53l3.866,7.572a37.334,37.334,0,0,0-2.693,6.362L0,143.141v17.2l8.193,2.676a37.27,37.27,0,0,0,2.694,6.362l-3.864,7.574,12.411,12.164,7.727-3.789a38.979,38.979,0,0,0,6.492,2.639L36.384,196H181.118A18.717,18.717,0,0,0,200,177.5v-.4a19.156,19.156,0,0,0-16.129-18.768ZM35.483,44.258h38.71V88.516H35.483ZM193.548,177.5a12.321,12.321,0,0,1-12.43,12.179H41.034l-2.351-6.913-1.693-.434a32.445,32.445,0,0,1-8.119-3.3l-1.51-.869-6.655,3.261-5.835-5.717,3.328-6.522-.885-1.479a31.052,31.052,0,0,1-3.367-7.956l-.444-1.66-7.052-2.3V147.7l7.054-2.3.443-1.66a31.1,31.1,0,0,1,3.366-7.956L18.2,134.3l-3.328-6.522,5.836-5.719,6.656,3.261,1.509-.869a32.409,32.409,0,0,1,8.119-3.3l1.693-.435,2.35-6.909H53.339l3.827-5.625a30.959,30.959,0,0,1,42.4-8.31,30.306,30.306,0,0,1,7.921,7.515l8.232,11.295,4.044-3.963a25.4,25.4,0,0,1,17.9-7.234h.381a24.48,24.48,0,0,1,23.29,16.451l.008.027a28.089,28.089,0,0,0-17.527,1.754l2.675,5.754a21.254,21.254,0,0,1,27.915,10.236,20.347,20.347,0,0,1,1.809,6.69l1.217,13.115.271,2.875h2.946a12.822,12.822,0,0,1,12.9,12.715Z"/><rect width="6.452" height="6.323" transform="translate(154.839 177.032)"/><path d="M137.477,151.742H119.354v6.323H133.49l6.452,12.645h24.574v-6.323H143.929Z"/><path d="M147.155,139.1H125.807v6.323h17.361l6.452,12.645h21.348v-6.323H153.607Z"/><path d="M127.8,164.387H112.9v6.323h10.91l6.452,12.645h18.122v-6.323H134.252Z"/><path d="M29.032,31.613H48.387V12.645H29.032Zm12.9-6.323H35.483V18.967h6.452Z"/><path d="M54.839,31.613H74.194V12.645H54.839Zm12.9-6.323H61.29V18.967h6.452Z"/><path d="M80.645,31.613H100V12.645H80.645ZM87.1,18.968h6.452v6.323H87.1Z"/><path d="M161.29,12.645H122.58a9.486,9.486,0,1,0,0,18.968h38.71a9.486,9.486,0,1,0,0-18.968m0,12.645H122.58a3.162,3.162,0,1,1,0-6.323h38.71a3.162,3.162,0,1,1,0,6.323"/><rect width="25.806" height="6.323" transform="translate(41.935 50.581)"/><rect width="25.806" height="6.323" transform="translate(41.935 63.226)"/><rect width="25.806" height="6.323" transform="translate(41.935 75.871)"/><path d="M87.1,69.548h38.71V37.935H87.1Zm6.451-25.29h25.806V63.226H93.548Z"/><path d="M170.968,37.935h-38.71V69.548h38.71Zm-6.452,25.291H138.71V44.258h25.806Z"/><rect width="6.452" height="6.323" transform="translate(112.903 75.871)"/><rect width="45.161" height="6.323" transform="translate(125.806 75.871)"/><rect width="58.065" height="6.323" transform="translate(112.903 88.516)"/><path d="M62.692,112l5.292,3.617a19.5,19.5,0,0,1,15.887-8.131v-6.323A26,26,0,0,0,62.692,112"/><path d="M98.62,105.7a25.89,25.89,0,0,0-7.377-3.487l-1.84,6.059a19.4,19.4,0,0,1,5.526,2.614Z"/></g></svg>