<svg xmlns="http://www.w3.org/2000/svg" width="200" height="200" viewBox="0 0 200 200"><g transform="translate(-1 -1)"><g transform="translate(120.549 24.408)"><path d="M62.881,8.293,37.935,33.239l.1.1A54.654,54.654,0,0,1,69.987,65.29l.042.042L94.974,40.387Z" transform="translate(-37.935 -8.293)" fill="#f0bc5e"/></g><g transform="translate(20.258 119.901)"><path d="M39.1,99.574,65.381,73.29c-.055-.116-.122-.225-.18-.34L50.7,55c-5.238-5.135-10.451-10.3-13.911-17.214l-.042-.051L7,67.477Z" transform="translate(-7 -37.733)" fill="#f0bc5e"/></g><g transform="translate(119.278 98.29)"><g transform="translate(1.313)"><path d="M111.761,85.565h6.6V66.306h-6.6a6.292,6.292,0,0,1-4.42-10.672l4.67-4.673L98.389,37.339l-4.676,4.673a6.112,6.112,0,0,1-6.548,1.406l-.324-.148A6.118,6.118,0,0,1,83.05,37.6V31h-9.79c.061,1.069.16,2.125.16,3.21a39.114,39.114,0,0,1-7.694,24.249l.266-.292A19.233,19.233,0,1,1,55.033,70.2c-6.644,6.48-13.269,12.977-16.366,23l-.135-.064a6.362,6.362,0,0,1-.584,10.884l10.5,10.505,4.676-4.673a6.085,6.085,0,0,1,6.548-1.406l.324.141a6.144,6.144,0,0,1,3.794,5.684v6.6H83.05v-6.6a6.29,6.29,0,0,1,10.669-4.42l4.673,4.673,13.622-13.622-4.67-4.673a6.207,6.207,0,0,1-1.261-6.872,6.127,6.127,0,0,1,5.678-3.8Z" transform="translate(-37.948 -31)" fill="#f0bc5e"/></g><g transform="translate(0 61.25)"><path d="M39.439,50.972a6.481,6.481,0,0,0-1.9-.889Z" transform="translate(-37.539 -50.083)" fill="#f0bc5e"/></g></g><g transform="translate(1 1)"><path d="M55.629,61.258A9.629,9.629,0,1,0,46,51.629,9.641,9.641,0,0,0,55.629,61.258Zm0-12.839a3.21,3.21,0,1,1-3.21,3.21A3.213,3.213,0,0,1,55.629,48.419Z" transform="translate(99.239 90.329)"/><path d="M201,27.035a26.035,26.035,0,0,0-44.445-18.41l-37.29,37.294a57.3,57.3,0,0,0-15.216-2.842A25.671,25.671,0,0,0,74.568,31.042a32.195,32.195,0,0,0-59.81,22.4,19.352,19.352,0,0,0,5.6,37.877h23.4A58.491,58.491,0,0,0,42.935,101a44.291,44.291,0,0,0,3.432,17.813L17.59,147.594,1.577,189.226A8.585,8.585,0,0,0,1,192.332a8.667,8.667,0,0,0,11.777,8.09L54.41,184.41l21.042-21.045a9.428,9.428,0,0,0,2.258,8.6,9.594,9.594,0,0,0,4.71,15.774,19.649,19.649,0,0,0,37.161,0,9.594,9.594,0,0,0,4.71-15.774,9.5,9.5,0,0,0,.348-12.481,41.6,41.6,0,0,1,8.813-13.748,22.572,22.572,0,1,0,22.387-25.384c-.316,0-.623.032-.936.045a43.658,43.658,0,0,0,4.161-19.4,57.153,57.153,0,0,0-3.019-18.223l37.329-37.329A25.88,25.88,0,0,0,201,27.035ZM7.452,71.968a12.9,12.9,0,0,1,25.806,0H39.71A19.362,19.362,0,0,0,21.181,52.655,25.78,25.78,0,0,1,68.642,33.584,25.827,25.827,0,0,0,56,53.019a12.9,12.9,0,0,0-9.839,12.5h6.452a6.452,6.452,0,0,1,12.9,0h6.452A12.883,12.883,0,0,0,62.5,53.135a19.331,19.331,0,1,1,37.79,7.681,16.1,16.1,0,0,0-8.968,14.377h6.452a9.677,9.677,0,1,1,9.677,9.677h-87.1A12.916,12.916,0,0,1,7.452,71.968ZM84.871,91.323V101a9.689,9.689,0,0,0,9.677,9.677h25.806a3.226,3.226,0,1,1,0,6.452H88.1a9.677,9.677,0,0,0,0,19.355h6.452a3.229,3.229,0,0,1,3.226,3.226v16.129h-12.9a9.538,9.538,0,0,0-1.91.194c-3.684-9.055-10.013-15.268-16.174-21.277-8.948-8.726-17.4-16.971-17.4-33.755a52,52,0,0,1,.994-9.677Zm35.484,74.194a3.229,3.229,0,0,1-3.226,3.226H84.871a3.226,3.226,0,1,1,0-6.452h32.258A3.229,3.229,0,0,1,120.355,165.516ZM10.465,194.4A2.219,2.219,0,0,1,7.6,191.539l3.232-8.406,8.035,8.035Zm40.352-15.519-25.361,9.755-12.09-12.09,9.755-25.361,26.41-26.41a72.322,72.322,0,0,0,10.623,12.513L34.2,163.235l4.561,4.561L64.758,141.8c3.968,3.935,7.652,7.916,10.368,12.765ZM101,194.548A13.254,13.254,0,0,1,89.632,188.1h22.735A13.254,13.254,0,0,1,101,194.548Zm16.129-12.9H84.871a3.226,3.226,0,1,1,0-6.452h32.258a3.226,3.226,0,1,1,0,6.452Zm1.91-25.613a9.538,9.538,0,0,0-1.91-.194h-12.9V139.71a9.689,9.689,0,0,0-9.677-9.677H88.1a3.226,3.226,0,0,1,0-6.452h32.258a9.677,9.677,0,1,0,0-19.355H94.548A3.229,3.229,0,0,1,91.323,101V91.323h16.129a16.129,16.129,0,1,0,0-32.258c-.09,0-.174.026-.265.026a25.4,25.4,0,0,0,.265-3.252,25.842,25.842,0,0,0-.761-6.116A51.888,51.888,0,0,1,152.613,101c0,16.784-8.452,25.029-17.4,33.755C129.052,140.765,122.723,146.977,119.039,156.032Zm36.8-29.226a16.285,16.285,0,1,1-15.561,12.019,96.269,96.269,0,0,0,10.087-11,15.939,15.939,0,0,1,5.474-1.016ZM144.152,62.413l19.474-19.477-4.561-4.561L139.6,57.842a58.476,58.476,0,0,0-13.874-9.261l26.89-26.89,27.7,27.7L153.4,76.294a58.543,58.543,0,0,0-9.252-13.881Zm40.719-17.587-27.7-27.7,3.942-3.942a19.585,19.585,0,0,1,27.7,27.7Z" transform="translate(-1 -1)"/></g></g></svg>