<svg height="512" viewBox="0 0 60 60" width="512" xmlns="http://www.w3.org/2000/svg"><path d="M5.358 59.47a.5.5 0 0 1-.267-.922l5.363-3.4-7.117 4.106a.5.5 0 0 1-.522-.853l11.053-7.138-12.007 6.931a.5.5 0 0 1-.512-.857l1.193-.737-1.145.66a.5.5 0 0 1-.513-.86l2.179-1.349-1.783 1.03a.5.5 0 0 1-.514-.856l5.858-3.663-5.345 3.084a.5.5 0 0 1-.517-.854l9.651-6.121-9.134 5.272a.5.5 0 0 1-.52-.853L13.3 44.02 1.279 50.958A.5.5 0 0 1 .76 50.1L11.887 43 1.278 49.122a.5.5 0 0 1-.515-.856l6.284-3.935-5.769 3.33a.5.5 0 0 1-.519-.853l11.646-7.459-11.127 6.423a.5.5 0 0 1-.517-.854l9.785-6.21-9.269 5.351a.5.5 0 0 1-.518-.859L10.9 36.759l-9.623 5.554a.5.5 0 0 1-.516-.855l8.571-5.412L1.277 40.7a.5.5 0 0 1-.514-.856l5.081-3.169-4.568 2.632a.5.5 0 0 1-.512-.859l1.58-.976-1.068.616a.5.5 0 0 1-.513-.858l3.782-2.35-3.269 1.887a.5.5 0 0 1-.52-.854l12.409-7.981L1.276 34.8a.5.5 0 0 1-.519-.854l11.207-7.16-10.689 6.166a.5.5 0 0 1-.518-.852l10.675-6.8-10.157 5.859a.5.5 0 0 1-.523-.851l14.973-9.8-14.451 8.344A.5.5 0 0 1 .755 28l11.736-7.52-11.217 6.474a.5.5 0 0 1-.523-.854L14.1 17.362 1.274 24.769a.5.5 0 0 1-.513-.858l.4-.249a.506.506 0 0 1-.561-.221.5.5 0 0 1 .158-.681l4.9-3.131-4.385 2.531a.5.5 0 0 1-.527-.849l7.507-5-6.98 4.03A.5.5 0 0 1 .74 19.5l6.735-4.619-6.2 3.58a.5.5 0 0 1-.54-.84l5.481-3.9-4.944 2.855a.5.5 0 0 1-.54-.841l2.784-1.978-2.244 1.3a.5.5 0 0 1-.542-.839l1.135-.818-.593.342a.5.5 0 0 1-.553-.83l.813-.624-.261.151a.5.5 0 0 1-.617-.772L2.093 10.1l-.822.474a.5.5 0 0 1-.658-.722l.491-.7a.5.5 0 0 1-.025-.88L2.264 7.6a.5.5 0 0 1 .658.721l-.181.257 1.7-.98a.5.5 0 0 1 .618.772L3.617 9.925l4.044-2.334a.5.5 0 0 1 .554.83l-.815.622 2.52-1.455a.5.5 0 0 1 .542.839l-1.134.818L12.2 7.586a.5.5 0 0 1 .54.841l-2.784 1.981 4.892-2.825a.5.5 0 0 1 .54.841l-5.482 3.9 8.216-4.744a.5.5 0 0 1 .533.845l-6.73 4.617 9.466-5.465a.5.5 0 0 1 .527.849l-7.509 5 10.13-5.849a.5.5 0 0 1 .52.855l-4.9 3.129 6.9-3.986a.5.5 0 0 1 .513.858l-.013.009 1.5-.869a.5.5 0 0 1 .524.851L16.24 17.159 30.72 8.8a.5.5 0 0 1 .519.854l-11.746 7.525L30.721 10.7a.5.5 0 0 1 .523.851l-14.969 9.8L30.721 13a.5.5 0 0 1 .518.855l-10.675 6.8L30.722 14.8a.5.5 0 0 1 .519.854l-11.211 7.16 10.692-6.172a.5.5 0 0 1 .52.853l-12.4 7.976 11.88-6.86a.5.5 0 0 1 .513.858l-3.782 2.351 3.269-1.887a.5.5 0 0 1 .512.858l-1.616 1 1.105-.638a.5.5 0 0 1 .514.858l-5.052 3.151 4.538-2.62a.5.5 0 0 1 .516.856l-8.578 5.416 8.062-4.654a.5.5 0 0 1 .518.855l-10.147 6.45 9.63-5.56a.5.5 0 0 1 .517.855l-9.784 6.21 9.267-5.351a.5.5 0 0 1 .519.854l-11.638 7.452 11.119-6.419a.5.5 0 0 1 .515.857L24.946 34.3l5.778-3.336a.5.5 0 0 1 .519.855l-11.127 7.109L30.725 32.8a.5.5 0 0 1 .52.853l-12.539 8.075 12.019-6.939a.5.5 0 0 1 .517.855l-9.651 6.121 9.134-5.273a.5.5 0 0 1 .514.857l-5.858 3.663 5.345-3.085a.5.5 0 0 1 .513.857l-2.194 1.359 1.681-.97a.5.5 0 0 1 .512.857l-1.188.736.676-.39a.5.5 0 0 1 .521.853l-11.054 7.139 10.534-6.081a.5.5 0 0 1 .517.855l-5.365 3.4 4.848-2.8a.5.5 0 0 1 .519.854l-4.62 2.956 4.1-2.368a.5.5 0 0 1 .523.852l-5.221 3.41 4.7-2.712a.5.5 0 0 1 .523.851l-3.045 1.993 2.523-1.456a.5.5 0 0 1 .536.843l-5.336 3.721 4.8-2.77a.5.5 0 0 1 .541.839l-3.771 2.7 3.23-1.864a.5.5 0 0 1 .551.831l-2.78 2.117 2.23-1.287a.5.5 0 0 1 .549.833l-.46.345a.5.5 0 0 1 .544.8l-1.589 1.888.957-.551a.5.5 0 0 1 .5.865L27.809 59.4a.5.5 0 0 1-.633-.755l1.59-1.889-4.582 2.644a.5.5 0 0 1-.55-.833l.389-.292-1.949 1.125a.5.5 0 0 1-.552-.831l2.783-2.109-5.093 2.94a.5.5 0 0 1-.541-.839l3.774-2.707L16.3 59.4a.5.5 0 0 1-.536-.842l5.336-3.72-7.9 4.562a.5.5 0 0 1-.523-.85l3.037-1.989-4.922 2.839a.5.5 0 0 1-.523-.851l5.216-3.407L8.108 59.4a.5.5 0 0 1-.519-.853l4.633-2.964L5.608 59.4a.5.5 0 0 1-.25.07z" fill="#4d5baf"/><path d="M31.012 59.5a.5.5 0 0 1-.272-.92l11-7.1-11.46 6.62a.5.5 0 0 1-.521-.853l12.218-7.9L30.28 56.1a.5.5 0 0 1-.514-.857l3.878-2.418-3.364 1.941a.5.5 0 0 1-.514-.857l3.934-2.453-3.42 1.974a.5.5 0 0 1-.517-.855l8.482-5.375-7.965 4.6a.5.5 0 0 1-.516-.856l6.814-4.29-6.3 3.636a.5.5 0 0 1-.514-.856l4.043-2.522-3.527 2.033a.5.5 0 0 1-.517-.854l8.543-5.417-8.026 4.634a.5.5 0 0 1-.513-.858l2.543-1.579-2.03 1.171a.5.5 0 0 1-.523-.851l13.982-9.152L30.28 43.81a.5.5 0 0 1-.514-.857l4.005-2.5-3.491 2.017a.5.5 0 0 1-.524-.851l14.433-9.481-13.909 8.03a.5.5 0 0 1-.521-.853l12.16-7.856-11.639 6.719a.5.5 0 0 1-.52-.854l11.34-7.289-10.82 6.245a.5.5 0 0 1-.52-.852l11.719-7.553-11.2 6.466a.5.5 0 0 1-.519-.855l10.033-6.4-9.513 5.488a.5.5 0 0 1-.515-.856l6.308-3.964L30.28 31.1a.5.5 0 0 1-.516-.856l7.581-4.787-7.065 4.078a.5.5 0 0 1-.518-.855l9.129-5.8-8.611 4.969a.5.5 0 0 1-.522-.849l12.981-8.45-12.459 7.191a.5.5 0 0 1-.514-.858l2.39-1.489-1.876 1.084a.5.5 0 0 1-.517-.855l5.171-3.284-4.654 2.687a.5.5 0 0 1-.516-.856l1.683-1.064-1.167.675a.5.5 0 0 1-.521-.853l3.771-2.436-3.25 1.877a.5.5 0 0 1-.524-.851l3.376-2.213-2.852 1.647a.5.5 0 0 1-.534-.845l5.133-3.553-4.6 2.654a.5.5 0 0 1-.543-.838l4.2-3.039-3.656 2.113a.5.5 0 0 1-.538-.842L30.6 14l-.322.185a.5.5 0 0 1-.551-.832l1.021-.768-.47.272a.5.5 0 0 1-.61-.78l1.776-1.849-1.164.672a.5.5 0 0 1-.74-.534l.323-1.573a.5.5 0 0 1-.083-.905l.5-.289a.5.5 0 0 1 .741.533l-.277 1.346L34 7.6a.5.5 0 0 1 .61.779l-1.777 1.851 4.556-2.63a.5.5 0 0 1 .55.832l-1.019.767 2.771-1.6a.5.5 0 0 1 .538.842l-.86.606 2.509-1.449a.5.5 0 0 1 .543.839l-4.2 3.038 6.716-3.878a.5.5 0 0 1 .534.845l-5.133 3.548 7.618-4.4a.5.5 0 0 1 .524.851l-3.38 2.215 5.312-3.066a.5.5 0 0 1 .522.853l-3.776 2.439 5.7-3.292a.5.5 0 0 1 .517.856L51.7 9.5l3.315-1.914a.5.5 0 0 1 .517.855l-5.181 3.29 7.18-4.146a.5.5 0 0 1 .515.858l-2.383 1.488 2.8-1.617a.5.5 0 0 1 .522.852l-12.978 8.448 12.713-7.34a.5.5 0 0 1 .518.855l-9.129 5.8 8.611-4.969a.5.5 0 0 1 .516.856L51.655 17.6l7.065-4.079a.5.5 0 0 1 .515.856l-6.308 3.965L58.72 15a.5.5 0 0 1 .519.854l-10.028 6.4 9.509-5.49a.5.5 0 0 1 .52.854l-11.723 7.556 11.2-6.468a.5.5 0 0 1 .52.854L47.9 26.85l10.82-6.25a.5.5 0 0 1 .521.853l-12.16 7.856 11.639-6.715a.5.5 0 0 1 .524.851l-14.433 9.481L58.72 24.9a.5.5 0 0 1 .514.857l-4.005 2.5 3.491-2.016a.5.5 0 0 1 .523.852l-13.978 9.143 13.455-7.769a.5.5 0 0 1 .513.858l-2.543 1.58 2.03-1.172a.5.5 0 0 1 .517.855l-8.555 5.425 8.038-4.641a.5.5 0 0 1 .514.857l-4.024 2.509 3.51-2.025a.5.5 0 0 1 .516.855l-6.829 4.3 6.313-3.643a.5.5 0 0 1 .517.854l-8.469 5.368 7.952-4.591a.5.5 0 0 1 .514.857L55.3 39.165l3.418-1.974a.5.5 0 0 1 .514.857l-3.9 2.43 3.382-1.953a.5.5 0 0 1 .521.853l-12.218 7.9 11.7-6.752a.5.5 0 0 1 .521.853l-11 7.1 10.482-6.054a.5.5 0 0 1 .524.85L49.2 49.87l9.518-5.494a.5.5 0 0 1 .526.85l-7.755 5.13 7.229-4.172a.5.5 0 0 1 .538.84l-8.6 6.077 8.059-4.653a.5.5 0 0 1 .535.844l-4.593 3.182 4.058-2.343a.5.5 0 0 1 .552.83l-4.8 3.656 4.249-2.453a.5.5 0 0 1 .574.813l-3.327 2.84 2.753-1.588a.5.5 0 0 1 .586.8l-1.294 1.175.692-.4a.5.5 0 0 1 .609.78l-.705.729a.487.487 0 0 1 .211.2.5.5 0 0 1-.182.682l-2.044 1.185a.5.5 0 0 1-.61-.78l.145-.15-1.654.95a.5.5 0 0 1-.586-.8l1.291-1.172-3.427 1.978a.5.5 0 0 1-.574-.812l3.326-2.84-6.337 3.658a.5.5 0 0 1-.553-.83l4.8-3.656-7.777 4.49a.5.5 0 0 1-.535-.844L48.7 55.39l-6.979 4.029a.5.5 0 0 1-.539-.841l8.6-6.076-11.996 6.922a.5.5 0 0 1-.526-.85l7.756-5.132-10.368 5.986a.5.5 0 0 1-.524-.851l10.044-6.6-12.906 7.455a.494.494 0 0 1-.25.068z" fill="#deecff"/><path d="M3.821 9.5a.5.5 0 0 1-.3-.9l4.035-3.039L1.28 9.184a.5.5 0 0 1-.537-.843l1.75-1.229-1.213.7a.5.5 0 0 1-.542-.839l.688-.494-.146.084a.5.5 0 0 1-.58-.808l2-1.748-1.42.817a.5.5 0 0 1-.642-.742l1.067-1.355a.5.5 0 0 1-.343-.927L3.411.62a.5.5 0 0 1 .643.742l-1.021 1.3L6.6.6a.5.5 0 0 1 .579.809L5.186 3.154 9.615.6a.5.5 0 0 1 .542.839l-.686.493L11.778.6a.5.5 0 0 1 .537.842l-1.751 1.226L14.152.6a.5.5 0 0 1 .551.832l-4.035 3.036L17.373.6a.5.5 0 0 1 .534.844l-1.313.907L19.626.6a.5.5 0 0 1 .543.838l-3.088 2.228L22.4.6a.5.5 0 0 1 .536.843l-1.6 1.109L24.716.6a.5.5 0 0 1 .536.842L23.305 2.8 27.124.6a.5.5 0 0 1 .557.828L23.2 4.9 30.657.6a.5.5 0 0 1 .55.833l-3.942 2.953L33.827.6a.5.5 0 0 1 .543.838l-3.151 2.28L36.624.6a.5.5 0 0 1 .551.832l-4.029 3.033L39.846.6a.5.5 0 0 1 .534.844l-1.337.924L42.1.6a.5.5 0 0 1 .548.835l-3.713 2.753L45.155.6a.5.5 0 0 1 .549.834L41.9 4.266 48.253.6a.5.5 0 0 1 .532.845l-.844.578L50.406.6a.5.5 0 0 1 .533.845l-1.139.78L52.621.6a.5.5 0 0 1 .551.833L49.2 4.412 55.8.6a.5.5 0 0 1 .547.835l-3.579 2.643 4.862-2.807a.5.5 0 0 1 .538.842l-1.239.872 1.432-.827a.5.5 0 0 1 .583.806L55.419 6.11l3.305-1.91a.5.5 0 0 1 .572.816l-.817.687.253-.146a.5.5 0 0 1 .667.709l-.8 1.208.143-.083a.5.5 0 0 1 .5.866L57.26 9.4a.5.5 0 0 1-.667-.709l.8-1.208-3.324 1.923a.5.5 0 0 1-.569-.816l.816-.687-2.6 1.5a.5.5 0 0 1-.583-.806l3.525-3.146L47.8 9.409a.5.5 0 0 1-.538-.842l1.242-.874-2.972 1.717a.5.5 0 0 1-.547-.835l3.583-2.643-6.026 3.48a.5.5 0 0 1-.551-.833L45.958 5.6l-6.607 3.814a.5.5 0 0 1-.534-.846l1.135-.78-2.817 1.627a.5.5 0 0 1-.532-.846l.848-.581-2.472 1.428a.5.5 0 0 1-.549-.834l3.805-2.835-6.357 3.67a.5.5 0 0 1-.548-.834l3.717-2.756-6.222 3.592a.5.5 0 0 1-.534-.845l1.338-.924-3.065 1.77a.5.5 0 0 1-.55-.833l4.028-3.035-6.7 3.87a.5.5 0 0 1-.543-.838l3.15-2.284-5.409 3.123a.5.5 0 0 1-.55-.833l3.944-2.957-6.567 3.792a.5.5 0 0 1-.556-.828l4.477-3.476-7.457 4.306a.5.5 0 0 1-.536-.843l1.952-1.366-3.827 2.21a.5.5 0 0 1-.535-.844l1.591-1.1L9.1 9.429a.5.5 0 0 1-.543-.838l3.089-2.232-5.32 3.072a.5.5 0 0 1-.534-.845l1.314-.907-3.035 1.753a.5.5 0 0 1-.25.068z" fill="#bddadc"/><path d="M35.607 31.471a.5.5 0 0 1-.274-.919l3.747-2.459-4.717 2.723a.5.5 0 0 1-.519-.854l1.46-.934-1.024.591a.5.5 0 0 1-.523-.852l4.794-3.133L34.28 28.1a.5.5 0 0 1-.53-.848l8.329-5.635-7.8 4.5a.5.5 0 0 1-.53-.847l7.236-4.908-6.705 3.873a.5.5 0 0 1-.533-.845l5.2-3.573-4.667 2.693a.5.5 0 0 1-.54-.84l4.211-3-3.671 2.116a.5.5 0 0 1-.54-.841l1.65-1.172-1.11.641a.5.5 0 0 1-.569-.818l2.628-2.179-2.059 1.188a.5.5 0 0 1-.571-.816l.546-.457a.5.5 0 0 1-.685-.643l.64-1.5a.507.507 0 0 1-.56-.234.5.5 0 0 1 .183-.683l1.161-.671a.5.5 0 0 1 .71.629l-.628 1.47 3.649-2.1a.5.5 0 0 1 .571.816l-.543.455 2.2-1.271a.5.5 0 0 1 .569.818L38.9 15.6l5.192-3a.5.5 0 0 1 .54.841l-1.65 1.172 3.482-2.013a.5.5 0 0 1 .54.84l-4.209 3 6.655-3.84a.5.5 0 0 1 .533.845l-5.2 3.574 7.655-4.419a.5.5 0 0 1 .531.846l-7.237 4.909 7.988-4.611a.5.5 0 0 1 .53.847l-8.329 5.636 7.8-4.5a.5.5 0 0 1 .523.852l-4.79 3.121 4.266-2.46a.5.5 0 0 1 .519.854l-1.458.933.939-.542a.5.5 0 0 1 .524.851L50.49 21.8l3.23-1.864a.5.5 0 0 1 .546.836l-7.072 5.184 6.526-3.768a.5.5 0 0 1 .56.825l-5.212 4.139 4.652-2.686a.5.5 0 0 1 .564.822l-2.547 2.059L53.72 26.2a.5.5 0 0 1 .632.755l-1.814 2.155 1.182-.682a.5.5 0 0 1 .683.682l-.4.7a.5.5 0 0 1 .165.925l-1.16.67a.5.5 0 0 1-.684-.682l.286-.5-2.044 1.177a.5.5 0 0 1-.631-.755l1.813-2.145-5.035 2.9a.5.5 0 0 1-.565-.821l2.552-2.058-5 2.879a.5.5 0 0 1-.56-.824l5.211-4.139L39.76 31.4a.5.5 0 0 1-.546-.836l7.071-5.184-10.428 6.02a.506.506 0 0 1-.25.071zM47.608 55.47a.5.5 0 0 1-.3-.9l.4-.3-1.974 1.13a.5.5 0 0 1-.57-.816l4.036-3.365-6.673 3.852a.5.5 0 0 1-.547-.834l4.7-3.487-4.4 2.538a.5.5 0 0 1-.545-.836l4.448-3.252-3.9 2.253a.5.5 0 0 1-.535-.844l1.475-1.022-.94.542a.5.5 0 0 1-.545-.836l1.657-1.213-1.112.642a.5.5 0 0 1-.556-.827l1.024-.8-.468.269a.5.5 0 0 1-.6-.792l1.128-1.094-.531.306a.5.5 0 0 1-.693-.664l.482-.923a.5.5 0 0 1-.236-.932l1.161-.67a.5.5 0 0 1 .693.664l-.417.8 2.536-1.459a.5.5 0 0 1 .6.792l-1.128 1.093 3.265-1.885a.5.5 0 0 1 .557.827l-1.026.8L50.89 42.6a.5.5 0 0 1 .545.836l-1.65 1.208 3.379-1.952a.5.5 0 0 1 .535.844l-1.478 1.024 1.5-.866a.5.5 0 0 1 .545.836l-4.448 3.252 3.9-2.253a.5.5 0 0 1 .548.834l-4.7 3.487 4.151-2.4a.5.5 0 0 1 .57.817l-4.035 3.369 3.465-2a.5.5 0 0 1 .554.829l-.459.353a.5.5 0 0 1 .555.776l-1.285 1.726.638-.368a.5.5 0 0 1 .5.865L51.475 55.4a.5.5 0 0 1-.651-.732l1.288-1.724-4.254 2.456a.493.493 0 0 1-.25.07z" fill="#34dd90"/><g fill="#262626"><path d="M.272 55.845a3.512 3.512 0 0 0 3.467 3.636h48.148c6.58.709 8.689-1.351 7.845-7.975-.152-16.2.3-32.491-.158-48.648C58.4-1.552 44.71 1.268 40.511.519H10.6C5.91.461-.94-.569.272 6.415c.052 16.476-.097 32.955 0 49.43zm5.387 2.675c-4.2.825-4.2-3.663-3.927-6.581-.011-14.2.022-28.4-.012-42.6h27.558V58.52zM58.272 46.3c-.6 3.128 1.55 10.7-1.6 12.136-8.611.258-17.306 0-25.945.089V9.336h27.545zM1.732 4.045C1.836.954 4.662 1.481 6.8 1.481h26.8c7.262 0 14.527-.064 21.789 0 3.987.141 2.625 4.565 2.882 7.184H1.714c-.014-1.541-.034-3.084.018-4.62z"/><path d="M33.278 30.128c.077 1.026.983 1.219 1.889 1.2 5.878-.015 11.761.029 17.636-.015.505-.065 1.49-.287 1.625-.754.813-4.815.041-10.073.3-15.027-.013-.711.25-1.877-.309-2.446-3.534-1.084-7.757-.1-11.507-.419-2.909.362-6.961-.991-9.325.788-.834 5.365-.066 11.18-.309 16.673zM43.13 22.1l-8.388 7.549c-.042-5.036 0-10.074-.016-15.111zm-4.9 8.566a11.494 11.494 0 0 1-3-.1l8.653-7.788 8.762 7.885zm15.04-16.33c.2 5.025.012 10.089.009 15.12L44.874 21.9zm-17.553-1.005c5.666.1 11.406-.192 17.044.106l-8.643 7.779-8.8-7.916c.157.012.309.031.399.031zM54.372 43.036c-1.086-.681-12.7-.989-12.84.4a42.03 42.03 0 0 0 .057 11.431c-.09.884 13.62.983 12.869-.318a38.755 38.755 0 0 0-.086-11.513zm-5.527 5.828 4.429-4.429c0 2.957.021 5.911.011 8.869zm2.419-5.471a4.187 4.187 0 0 1 1.567.072l-4.693 4.693-4.764-4.765zm-8.546 10.185c.037-2.982-.009-5.934-.036-8.918l4.477 4.477zm1.535 1.03a2.939 2.939 0 0 1-1.1-.051l4.714-4.714 4.765 4.765zM5.413 5.312c2.359-.253.972-.922-.477-.558-1.297.429-.272.664.477.558zM9.414 5.309c.636.007 2.209.271 2.267-.57-.463-.171-2.738-.194-2.267.57zM15.407 5.291c.325.1 1.834-.367 1.066-.581-1.013-.245-3.596.647-1.066.581zM53.783 5.275c5.725-.505-4.2-.953-5.33-.275-.224.133-.211.275.074.275zM15.066 33.47h-10c-.314 0-.763.242-.8.586-.039.379.384.475.67.475H13.7c.671-.065 1.793.274 2.037-.586.038-.379-.386-.475-.671-.475zM14.268 37.529c-.8.164-8.776-.6-6.532.943.798-.164 8.776.601 6.532-.943zM19.467 37.721c-6.408.653 4.576.622 6.061.559 3.862-.892-5.052-.48-6.061-.559zM4.716 30.394c2.9-.29 6.285.6 8.958-.388.171-.283-.146-.4-.386-.4H6.28c-.572-.181-3.006.307-1.564.788zM15.27 53.539c-1.048.278-13.026-.8-10.537.922 1.049-.277 13.027.799 10.537-.922zM4.341 50.035c-.193.262.169.292.356.292 2.92-.267 6.235.556 8.966-.36.193-.263-.169-.293-.357-.293-2.919.266-6.234-.556-8.965.361zM4.709 14.368c3.572-.3 7.6.613 10.961-.377.169-.279-.145-.358-.375-.358H6.534c-.711.066-1.667-.222-2.2.377-.169.279.145.358.375.358zM14.294 17.628c-2.247.254-4.924-.546-6.961.379-.188.276.163.366.377.366h5.256c.506.194 2.661-.373 1.328-.745zM17.7 18.332c2.918-.268 6.238.56 8.965-.362.835-.627-11.915-.481-8.965.362zM7.708 26.367c2.249-.252 4.92.542 6.962-.377.19-.274-.165-.356-.374-.356H9.039c-.499-.193-2.659.374-1.331.733zM26.066 25.469h-8c-.314 0-.763.243-.8.586-.039.38.384.477.67.477h8c.823.039 1.147-1.138.13-1.063zM12.708 22.365c4.244-.965-6.143-1.062-6.373-.353-.192.273.165.353.373.353zM16.739 22.48c2.878-.32 6.354.663 8.948-.423-.255-1.268-5.953-.2-7.43-.537-.657-.195-3.002.303-1.518.96zM8.818 45.5c-.85-.3-2.491.78-.888 1 2.045-.36 5.283.784 6.8-.563.048-.373-.4-.438-.66-.438zM26.3 45.645c-2.912.277-6.256-.576-8.963.372-.183.273.159.339.369.339h7.009c.549.183 2.993-.324 1.585-.711zM6.716 42.394c2.241-.261 4.94.561 6.958-.388-.219-.96-4.48-.142-5.642-.4-.532-.196-2.668.382-1.316.788zM24.934 42.516c3.647-1.739-6.972-.829-7.864-1.031-3.647 1.739 6.972.829 7.864 1.031zM35.344 34.724c-5.867.633 3.76.62 5.183.552 3.746-.853-4.217-.492-5.183-.552zM38.468 44.692c-1.62.256-3.926-.595-5.191.5.423.239 6.466.334 5.191-.5zM38.3 48.631c-.6.02-6.476-.268-4.586.739.592-.02 6.471.268 4.586-.739zM38.276 52.561c-.664.057-6.538-.375-4.548.879.664-.057 6.538.375 4.548-.879zM55.067 38.471c-1.59.43-25.22-1.1-21.13 1.058 1.59-.429 25.22 1.105 21.13-1.058z"/></g></svg>