<svg xmlns="http://www.w3.org/2000/svg" xmlns:xlink="http://www.w3.org/1999/xlink" width="396.54" height="80" viewBox="0 0 396.54 80"><defs><clipPath id="a"><rect width="396.54" height="80" fill="none"/></clipPath></defs><g clip-path="url(#a)"><path d="M.993,7.614A12.5,12.5,0,0,1,12.3.013Q66.941-.008,121.581,0a12.536,12.536,0,0,1,12.77,12.779c-.013,13.964.026,27.924-.019,41.888a12.54,12.54,0,0,1-11.844,12.112c-13.284.057-26.574.005-39.86.028C84.413,71.2,86.22,75.6,88.005,80,80.091,75.642,72.257,71.131,64.3,66.866c-17.476-.156-34.965.012-52.444-.088A12.539,12.539,0,0,1,.033,54.677C-.02,41.01.033,27.336.006,13.662A14.034,14.034,0,0,1,.993,7.614" transform="translate(0 0)" fill="#9c5c8f" fill-rule="evenodd"/><path d="M55.147,9.55c2.017-2.146,5.847-1.449,7.336.978a4.575,4.575,0,0,1,.228,4.332c-2.805,5.52-3.978,11.672-5.059,17.718-1.277,7.882-2.339,15.866-1.924,23.868.114,2.039-.873,4.516-3.062,4.991-2.072.463-3.956-.893-5.258-2.356-5.948-6.4-9.314-14.687-11.742-22.957-2.454,4.844-4.917,9.685-7.3,14.568-1.667,3.3-3.424,6.667-6.085,9.288-1.124,1.116-3.024,2.124-4.473.978-2.181-1.908-2.718-4.948-3.644-7.562C10.657,41.284,8.664,28.8,6.624,16.375A4.668,4.668,0,0,1,9.092,11c1.669-.627,3.807-.715,5.231.515a5.593,5.593,0,0,1,1.449,3.508c1.432,9.619,3.136,19.207,5.46,28.653Q27.2,32.358,33.132,21.02a7.378,7.378,0,0,1,2.38-2.9,3.889,3.889,0,0,1,4.812.436A7.707,7.707,0,0,1,41.962,22.5a101.758,101.758,0,0,0,5.121,18.345c1.005-8.919,2.234-17.947,5.491-26.367A19.89,19.89,0,0,1,55.147,9.55m22.365,4.777a13.771,13.771,0,0,1,11.823,4.155A18.1,18.1,0,0,1,93.5,28.2a29.884,29.884,0,0,1-3.268,17.692A19.424,19.424,0,0,1,83.4,53.679a14.025,14.025,0,0,1-14.691-.48c-3.428-2.348-5.353-6.35-6.138-10.338C61,33.838,63.695,23.777,70.529,17.476a13.237,13.237,0,0,1,6.983-3.149m.9,9.284c-2.057.684-3.358,2.569-4.463,4.323C71.173,32.4,70.371,38.284,72.6,43.14a4.554,4.554,0,0,0,3.013,2.89A5.381,5.381,0,0,0,79.809,44.4c2.533-2.172,3.794-5.436,4.406-8.641.689-3.647.336-7.688-1.805-10.812a3.508,3.508,0,0,0-4-1.34m33.471-9.276a13.8,13.8,0,0,1,11.66,3.9,18.09,18.09,0,0,1,4.44,10.417,29.841,29.841,0,0,1-3.228,17.078,19.544,19.544,0,0,1-6.985,7.994,14.053,14.053,0,0,1-14.123-.2A14.48,14.48,0,0,1,97.8,45.783a28.34,28.34,0,0,1,6.437-27.655,13.507,13.507,0,0,1,7.646-3.794m.907,9.29c-2.246.8-3.6,2.947-4.763,4.9-2.53,4.458-3.151,10.2-.864,14.884.616,1.3,1.709,2.6,3.257,2.671a6.247,6.247,0,0,0,4.3-2.107c2.544-2.508,3.706-6.09,4.112-9.566a13.668,13.668,0,0,0-2.02-9.486,3.5,3.5,0,0,0-4.022-1.291" transform="translate(-0.722 -0.919)" fill="#fff" fill-rule="evenodd"/><path d="M174.818,16.412a25.335,25.335,0,0,1,11.132.149c.013,2.976,0,5.95.008,8.924-2.982-.719-6.318-1.392-9.213,0-3.46,1.692-5.349,5.592-5.384,9.338-.195,3.732,1.048,7.887,4.353,9.983,3.036,2.011,6.915,1.583,10.244.627-.008,2.974,0,5.948-.008,8.923a21.746,21.746,0,0,1-13.524-.48A18.186,18.186,0,0,1,161.577,42.2a24.325,24.325,0,0,1-.379-12.429,18.376,18.376,0,0,1,13.62-13.356m26.844-.441c4.494-.5,9.386.191,13.016,3.073,3.5,2.717,5.253,7.1,5.86,11.386a32.517,32.517,0,0,1-.969,14.1,15.013,15.013,0,0,1-7.535,9.151,19.031,19.031,0,0,1-12.211.992,13.671,13.671,0,0,1-8.861-6.644c-2.559-4.5-3.028-9.84-2.828-14.916.21-4.38,1.316-8.944,4.26-12.319a14.23,14.23,0,0,1,9.267-4.818m1.384,8.532c-1.932.489-3.024,2.392-3.508,4.186-.956,3.546-.793,7.279-.55,10.909.234,1.96.444,4.129,1.842,5.658a4.953,4.953,0,0,0,7.287-.336,9.857,9.857,0,0,0,1.68-4.916,34.428,34.428,0,0,0-.013-9.22,9.452,9.452,0,0,0-2.178-5.124,4.753,4.753,0,0,0-4.559-1.158m176.27-7.937a25.393,25.393,0,0,1,11.7-.035c.09,2.981.02,5.97.04,8.954-2.921-.7-6.147-1.357-9.005-.1a10.168,10.168,0,0,0-5.536,8.544c-.4,3.948.684,8.485,4.165,10.8,3.049,2.1,7,1.687,10.376.709-.04,3,.089,6-.069,8.988a22.138,22.138,0,0,1-14.291-.885A18.219,18.219,0,0,1,366.55,41.793a24.324,24.324,0,0,1-.207-12.228,18.37,18.37,0,0,1,12.973-13m-152.846.3q6.369-.016,12.751,0c1.539,6.89,3,13.8,4.278,20.749,1.217-6.976,2.851-13.868,4.494-20.749q6.537-.016,13.078-.005,2.537,18.711,5.055,37.423-5,.005-10,0c-.924-8.544-1.746-17.1-2.724-25.636-2.022,8.557-4.155,17.088-6.217,25.636-2.274.009-4.553.005-6.826,0-2.18-8.558-4.326-17.128-6.525-25.681q-1.289,12.845-2.577,25.686c-3.186-.005-6.377,0-9.562-.005q2.379-18.711,4.777-37.418m45.736-.005c4.253.005,8.5-.008,12.761.005,1.534,6.882,2.983,13.782,4.271,20.718,1.234-6.962,2.85-13.849,4.5-20.724h13.027q2.529,18.711,5.048,37.423c-3.331.009-6.661-.005-9.993.009-.924-8.548-1.788-17.1-2.7-25.644-2.079,8.544-4.12,17.1-6.2,25.641-2.274-.005-4.542,0-6.813,0q-3.271-12.851-6.524-25.707c-.873,8.564-1.715,17.135-2.582,25.7q-4.784.005-9.566,0,2.388-18.711,4.776-37.423m42.451.123c6.827-.154,13.66-.02,20.489-.066.014,2.658-.008,5.31.014,7.968-3.446.039-6.892,0-10.338.022q-.005,3.423,0,6.847c2.983.008,5.966,0,8.948,0q0,3.88,0,7.75c-2.98.005-5.965,0-8.948.005q-.005,3.424,0,6.852c3.46.008,6.923,0,10.38,0,0,2.658.005,5.316,0,7.972q-10.244.008-20.484,0c-.044-12.452.076-24.908-.062-37.356Zm23.441-.123c4.276.018,8.549-.034,12.823.026,4.028.128,8.3,1.132,11.3,3.985a10.133,10.133,0,0,1,2.6,10.156,10.448,10.448,0,0,1-5.649,6.425c2.675,5.618,5.376,11.217,8.051,16.832q-5.335.005-10.663.005c-2.788-5.729-5.491-11.507-8.316-17.216-.07,5.737-.008,11.474-.031,17.211q-5.063.005-10.117,0,0-18.711,0-37.423m10.069,7.2q-.013,4.459,0,8.932c1.828-.129,3.816-.2,5.372-1.3,1.788-1.291,1.594-4.053.466-5.719-1.4-1.711-3.824-1.746-5.838-1.908m45.721-7.188c6.816-.017,13.632,0,20.45-.009q.005,3.992,0,7.985-5.189.005-10.377,0-.008,3.419-.005,6.838c2.983.011,5.965,0,8.95.005q0,3.88,0,7.764h-8.941c-.012,2.283-.009,4.564,0,6.851,3.471.01,6.943,0,10.419.005q0,3.985,0,7.976-10.24,0-20.481-.005-.021-18.705-.009-37.414" transform="translate(-17.841 -1.758)" fill="#fff" fill-rule="evenodd"/></g></svg>