<svg xmlns="http://www.w3.org/2000/svg" xmlns:xlink="http://www.w3.org/1999/xlink" width="396.659" height="90" viewBox="0 0 396.659 90"><defs><clipPath id="a"><rect width="396.659" height="90" fill="none"/></clipPath></defs><g transform="translate(0 0)"><g transform="translate(0 0)" clip-path="url(#a)"><path d="M230.842,35.651H215.227v1.656c4.881,0,5.669,1.046,5.669,7.241V55.714c0,6.193-.784,7.327-5.669,7.327-3.749-.523-6.28-2.53-9.769-6.367l-4.012-4.361c5.407-.961,8.289-4.361,8.289-8.2,0-4.8-4.1-8.461-11.776-8.461H182.6v1.657c4.881,0,5.669,1.046,5.669,7.24V55.714c0,6.193-.785,7.327-5.669,7.327V64.7h17.358V63.041c-4.881,0-5.67-1.134-5.67-7.327V52.573h1.483L205.459,64.7h25.383c12.474,0,17.882-6.628,17.882-14.564s-5.407-14.48-17.882-14.48ZM194.294,49.868v-11.6h3.576c3.925,0,5.67,2.7,5.67,5.844,0,3.052-1.745,5.757-5.67,5.757h-3.576ZM231.1,61.994h-.61c-3.14,0-3.576-.784-3.576-4.8V38.265H231.1c9.073,0,10.729,6.628,10.729,11.776,0,5.32-1.657,11.949-10.729,11.949Zm-97.084-8.9,6.018-17.8c1.745-5.147.96-6.628-4.623-6.628V26.927h16.4v1.745c-5.495,0-6.8,1.308-8.986,7.676L132.885,66.18h-1.133l-8.9-27.3-9.071,27.3h-1.134l-9.684-29.832c-2.091-6.368-3.486-7.676-8.549-7.676V26.927h19.368v1.745c-5.147,0-6.543,1.221-4.71,6.628l5.844,17.8,8.811-26.17h1.658Zm29.656,12.735c-9.6,0-17.445-7.065-17.445-15.7,0-8.548,7.852-15.614,17.445-15.614s17.445,7.066,17.445,15.614c0,8.637-7.85,15.7-17.445,15.7m0-28.61c-8.024,0-10.816,7.239-10.816,12.909,0,5.758,2.788,12.911,10.816,12.911,8.113,0,10.9-7.153,10.9-12.911,0-5.67-2.789-12.909-10.9-12.909" transform="translate(-0.789 -0.225)" fill="#fff"/><path d="M271.581,62.954V64.7H251.6V62.954c5.845,0,6.895-1.483,6.895-10.207V38.791c0-8.725-1.046-10.12-6.895-10.12V26.926h18.056c8.987,0,13.958,4.623,13.958,10.818,0,6.018-4.974,10.729-13.958,10.729h-4.972v4.273c0,8.725,1.047,10.207,6.895,10.207Zm-1.92-32.887h-4.972V45.246h4.972c4.886,0,7.153-3.4,7.153-7.5,0-4.183-2.267-7.677-7.153-7.677M343.544,56.5l-.436,1.57c-.784,2.879-1.745,3.925-7.938,3.925h-1.222c-4.536,0-5.32-1.046-5.32-7.239V50.742c6.8,0,7.328.609,7.328,5.146h1.657v-13h-1.657c0,4.537-.524,5.147-7.328,5.147V38.265h4.8c6.2,0,7.153,1.046,7.938,3.925l.437,1.657h1.394l-.61-8.2H316.941V37.3c4.881,0,5.67,1.046,5.67,7.24v11.17c0,5.665-.667,7.092-4.518,7.3-3.661-.559-6.174-2.556-9.612-6.338l-4.013-4.361c5.408-.96,8.29-4.361,8.29-8.2,0-4.8-4.1-8.461-11.776-8.461H285.625v1.656c4.881,0,5.67,1.046,5.67,7.241V55.714c0,6.193-.785,7.327-5.67,7.327V64.7h17.36V63.041c-4.881,0-5.67-1.134-5.67-7.327V52.573H298.8L308.482,64.7h35.851l.524-8.2h-1.313Zm-46.231-6.631v-11.6h3.577c3.925,0,5.671,2.7,5.671,5.844,0,3.053-1.746,5.757-5.671,5.757h-3.577Zm63.938,15.964a12.9,12.9,0,0,1-7.852-2.966,6.271,6.271,0,0,0-1.394,2.966h-1.658V53.795h1.745c.7,5.757,4.709,9.158,9.857,9.158,2.789,0,5.059-1.57,5.059-4.184,0-2.268-2.006-4.013-5.583-5.67l-4.972-2.355c-3.487-1.659-6.107-4.538-6.107-8.374,0-4.184,3.926-7.763,9.334-7.763a10.923,10.923,0,0,1,6.8,2.267,4.93,4.93,0,0,0,1.133-2.356h1.657V44.809h-1.831c-.612-4.1-2.88-7.5-7.5-7.5-2.442,0-4.71,1.394-4.71,3.577,0,2.267,1.832,3.486,6.019,5.407l4.8,2.355c4.187,2.005,5.844,5.235,5.844,7.852C371.894,61.994,367.1,65.831,361.251,65.831Zm26.866,0a12.89,12.89,0,0,1-7.851-2.966,6.261,6.261,0,0,0-1.394,2.966h-1.658V53.795h1.744c.7,5.757,4.709,9.158,9.857,9.158,2.789,0,5.059-1.57,5.059-4.184,0-2.268-2.005-4.013-5.583-5.67l-4.972-2.355c-3.487-1.659-6.107-4.538-6.107-8.374,0-4.184,3.925-7.763,9.333-7.763a10.921,10.921,0,0,1,6.8,2.267,4.916,4.916,0,0,0,1.132-2.356h1.658V44.809H394.31c-.611-4.1-2.879-7.5-7.5-7.5-2.442,0-4.711,1.394-4.711,3.577,0,2.267,1.833,3.486,6.02,5.407l4.8,2.355c4.188,2.005,5.846,5.235,5.846,7.851,0,5.495-4.8,9.331-10.641,9.331Z" transform="translate(-2.101 -0.225)" fill="#fff"/><path d="M6.394,45A38.611,38.611,0,0,0,28.152,79.742L9.737,29.285A38.439,38.439,0,0,0,6.394,45m64.664-1.948a20.325,20.325,0,0,0-3.183-10.646c-1.958-3.176-3.791-5.873-3.791-9.053A6.685,6.685,0,0,1,70.567,16.5c.171,0,.333.021.5.032A38.594,38.594,0,0,0,12.744,23.8c.905.027,1.759.047,2.485.047,4.037,0,10.288-.49,10.288-.49a1.6,1.6,0,0,1,.248,3.176s-2.092.247-4.417.368L35.4,68.718l8.445-25.334L37.837,26.9c-2.078-.122-4.048-.368-4.048-.368a1.593,1.593,0,0,1,.244-3.176s6.375.49,10.168.49c4.037,0,10.288-.49,10.288-.49a1.6,1.6,0,0,1,.248,3.176s-2.1.246-4.416.368L64.27,68.4,68.12,55.53c1.668-5.339,2.939-9.175,2.939-12.479ZM45.675,48.376,34.093,82.032a38.62,38.62,0,0,0,23.724-.616,3.411,3.411,0,0,1-.275-.532Zm33.2-21.9a29.52,29.52,0,0,1,.26,3.97A36.406,36.406,0,0,1,76.2,44.275L64.4,78.368a38.611,38.611,0,0,0,14.467-51.89M45,0A45,45,0,1,0,90,45,45,45,0,0,0,45,0m0,87.937A42.937,42.937,0,1,1,87.929,45v0A42.986,42.986,0,0,1,45,87.937Z" transform="translate(0 0)" fill="#fff"/></g></g></svg>