<?xml version="1.0" standalone="no"?>
<!DOCTYPE svg PUBLIC "-//W3C//DTD SVG 20010904//EN"
 "http://www.w3.org/TR/2001/REC-SVG-20010904/DTD/svg10.dtd">
<svg version="1.0" xmlns="http://www.w3.org/2000/svg"
 width="207.000000pt" height="207.000000pt" viewBox="0 0 207.000000 207.000000"
 preserveAspectRatio="xMidYMid meet">
<metadata>
Created by potrace 1.14, written by Peter Selinger 2001-2017
</metadata>
<g transform="translate(0.000000,207.000000) scale(0.100000,-0.100000)"
fill="#000000" stroke="none">
<path d="M869 1875 c-31 -6 -81 -25 -110 -42 -30 -16 -67 -33 -83 -37 -94 -23
-175 -134 -161 -222 5 -33 2 -52 -9 -68 -36 -55 -49 -136 -43 -261 3 -66 11
-136 16 -155 8 -25 8 -59 0 -117 -8 -58 -8 -102 0 -149 5 -37 8 -71 5 -76 -3
-4 -1 -8 4 -8 5 0 19 -30 31 -66 47 -144 121 -256 242 -368 127 -118 237 -147
353 -93 143 66 298 214 365 348 23 46 45 88 50 93 21 27 54 184 52 247 -1 45
4 82 18 120 54 146 68 325 31 387 -11 18 -20 48 -20 67 0 18 -5 37 -10 40 -6
3 -9 26 -8 50 1 51 -9 69 -89 150 -39 41 -83 72 -133 97 -135 67 -353 94 -501
63z m47 -371 c49 -9 168 -19 264 -24 96 -4 189 -13 206 -18 111 -35 140 -87
159 -287 7 -74 11 -160 8 -192 -12 -191 -68 -374 -123 -403 -31 -17 -53 -11
-109 28 -51 34 -61 37 -135 40 -45 1 -92 5 -106 8 -22 5 -23 7 -7 15 9 6 22
19 28 31 l12 21 -28 -21 c-35 -28 -80 -28 -124 -1 l-35 21 17 -26 17 -25 -113
2 c-101 2 -115 0 -147 -20 -62 -40 -114 -25 -148 42 -20 41 -42 180 -42 270 0
91 7 130 59 330 35 131 89 200 168 215 60 12 84 11 179 -6z m158 -894 c82 -5
151 -12 155 -15 3 -3 -37 -5 -89 -5 -107 2 -329 25 -339 36 -3 4 23 4 59 0 36
-4 132 -11 214 -16z m-225 -111 c39 -34 138 -79 125 -57 -5 8 -1 9 12 3 82
-35 195 9 251 98 22 36 27 38 35 22 16 -27 3 -92 -25 -128 -34 -45 -120 -91
-155 -82 -15 4 -71 8 -126 10 -63 3 -106 10 -121 19 -36 24 -86 78 -96 103
-12 33 -11 90 2 116 11 20 13 18 35 -25 13 -25 41 -61 63 -79z m209 72 c37 -1
51 -4 46 -12 -11 -18 -234 2 -234 20 0 4 30 4 68 0 37 -5 91 -8 120 -8z"/>
<path d="M720 1275 c-53 -17 -90 -48 -90 -75 0 -25 17 -25 71 0 54 24 81 25
142 3 42 -15 49 -15 58 -3 15 24 6 54 -21 67 -43 20 -112 23 -160 8z"/>
<path d="M1240 1246 c-29 -11 -35 -18 -35 -42 0 -25 3 -29 25 -26 14 1 49 5
78 8 47 6 58 3 104 -25 59 -37 79 -31 58 18 -26 63 -145 97 -230 67z"/>
<path d="M715 1064 c-36 -18 -73 -52 -87 -78 -7 -14 3 -9 32 14 l43 34 -7 -28
c-12 -47 0 -63 52 -72 107 -19 147 14 108 89 -14 25 -14 26 4 17 10 -5 28 -22
39 -36 12 -15 21 -22 21 -17 0 19 -40 61 -74 77 -43 20 -92 20 -131 0z m50
-45 c0 -7 -8 -15 -17 -17 -18 -3 -25 18 -11 32 10 10 28 1 28 -15z"/>
<path d="M1203 1020 c-17 -10 -37 -29 -43 -42 l-11 -23 18 21 c21 24 63 49 63
37 0 -4 -7 -17 -15 -27 -16 -22 -19 -64 -6 -84 6 -10 29 -13 82 -10 l74 3 5
44 5 45 33 -38 c41 -47 42 -23 0 28 -54 66 -141 85 -205 46z m67 -40 c0 -11
-6 -20 -13 -20 -19 0 -27 10 -20 26 8 21 33 17 33 -6z"/>
<path d="M420 1012 c0 -5 10 -17 21 -28 22 -19 22 -19 10 3 -12 24 -31 39 -31
25z"/>
<path d="M1618 913 c-31 -37 -31 -47 -1 -23 18 14 32 28 32 33 1 13 -16 7 -31
-10z"/>
</g>
</svg>
